<?xml version="1.0" standalone="no"?>
<!DOCTYPE svg PUBLIC "-//W3C//DTD SVG 1.1//EN" "http://www.w3.org/Graphics/SVG/1.1/DTD/svg11.dtd" >
<svg>
<metadata>
Created by FontForge 20120731 at Sun May 27 12:47:55 2018
 By www
Copyright 2014 Dalton Maag Ltd. Modification of this file requires prior written permission from Dalton Maag Ltd.
</metadata>
<defs>
<font id="BlennyW01-Black" horiz-adv-x="0" >
  <font-face 
    font-family="BlennyW01-Black"
    font-weight="900"
    font-stretch="normal"
    units-per-em="1000"
    panose-1="2 11 10 4 7 9 2 3 2 4"
    ascent="800"
    descent="-200"
    x-height="508"
    cap-height="665"
    bbox="-274 -296 1195 1001"
    underline-thickness="50"
    underline-position="-125"
    unicode-range="U+0008-2212"
  />
<missing-glyph horiz-adv-x="500" 
d="M450 0h-400v750h400v-750zM400 50v650h-300v-650h300z" />
    <glyph glyph-name=".notdef" horiz-adv-x="500" 
d="M450 0h-400v750h400v-750zM400 50v650h-300v-650h300z" />
    <glyph glyph-name=".null" 
 />
    <glyph glyph-name="nonmarkingreturn" horiz-adv-x="333" 
 />
    <glyph glyph-name="uni0008" 
 />
    <glyph glyph-name="uni0008" 
 />
    <glyph glyph-name="uni0008" 
 />
    <glyph glyph-name="uni0009" unicode="&#x9;" horiz-adv-x="220" 
 />
    <glyph glyph-name="uni0009" unicode="&#xd;" horiz-adv-x="220" 
 />
    <glyph glyph-name="space" unicode=" " horiz-adv-x="220" 
 />
    <glyph glyph-name="exclam" unicode="!" horiz-adv-x="324" 
d="M155 205q-7 0 -10.5 4t-9.5 18q-62 136 -88.5 217t-26.5 131q0 68 38 106t104 38t104 -38t38 -106q0 -50 -26.5 -131t-88.5 -217q-6 -14 -9.5 -18t-10.5 -4h-14zM162 -17q-51 0 -82 27t-31 70t31.5 70t81.5 27t81.5 -27t31.5 -70t-31 -70t-82 -27z" />
    <glyph glyph-name="quotedbl" unicode="&#x22;" horiz-adv-x="440" 
d="M104 416q-8 0 -12.5 4.5t-9.5 16.5q-38 86 -55 137.5t-17 81.5q0 42 27 67.5t71 25.5t71 -25.5t27 -67.5q0 -30 -17 -81.5t-55 -137.5q-5 -12 -9.5 -16.5t-12.5 -4.5h-8zM328 416q-8 0 -12.5 4.5t-9.5 16.5q-38 86 -55 137.5t-17 81.5q0 42 27 67.5t71 25.5t71 -25.5
t27 -67.5q0 -30 -17 -81.5t-55 -137.5q-5 -12 -9.5 -16.5t-12.5 -4.5h-8z" />
    <glyph glyph-name="numbersign" unicode="#" horiz-adv-x="618" 
d="M378 196h-189l-33 -190q-1 -6 -8 -6h-31q-7 0 -7 5q0 2 2 12l31 179h-88q-12 0 -12 10v21q0 10 12 10h95l37 207h-88q-12 0 -12 10v21q0 10 12 10h95l34 191q1 6 8 6h31q7 0 7 -5q0 -2 -2 -12l-32 -180h189l34 191q1 6 8 6h31q7 0 7 -5q0 -2 -2 -12l-32 -180h88
q12 0 12 -10v-21q0 -10 -12 -10h-95l-37 -207h88q12 0 12 -10v-21q0 -10 -12 -10h-95l-33 -190q-1 -6 -8 -6h-31q-7 0 -7 5q0 2 2 12zM385 237l37 207h-189l-37 -207h189z" />
    <glyph glyph-name="dollar" unicode="$" horiz-adv-x="605" 
d="M271 771q0 12 10 12h17q10 0 10 -12v-113h28v113q0 12 10 12h17q10 0 10 -12v-116q98 -9 155 -52t57 -108q0 -49 -34.5 -79t-89.5 -30q-60 0 -99 29t-39 74q0 36 24.5 58t66.5 24q6 6 6 13t-6 11t-16 4q-45 0 -76.5 -32t-31.5 -78q0 -52 39.5 -87t115.5 -49
q150 -29 150 -147q0 -83 -57 -133t-165 -62v-117q0 -12 -10 -12h-17q-10 0 -10 12v113h-28v-113q0 -12 -10 -12h-17q-10 0 -10 12v113q-121 5 -186 47t-65 114q0 49 34.5 79.5t90.5 30.5q60 0 99.5 -28.5t39.5 -73.5q0 -37 -25 -59t-68 -23q-6 -6 -6 -13t6.5 -11t16.5 -4
q45 0 76.5 32t31.5 78q0 48 -34 78t-125 60q-63 22 -93.5 58t-30.5 88q0 81 64 133t174 62v116z" />
    <glyph glyph-name="percent" unicode="%" horiz-adv-x="803" 
d="M156 -24q0 3 3 8l361 587q-50 1 -90 8t-60 17q26 -40 26 -105q0 -51 -23.5 -93t-66.5 -67t-99 -25q-83 0 -136 53t-53 136q0 84 54 135.5t141 51.5q30 0 54.5 -7t59.5 -24q91 -42 171 -42q27 0 48 3l53 96q32 59 82 59q35 0 57 -18.5t22 -49.5q0 -51 -50 -84.5
t-134 -41.5l-377 -612q-4 -7 -9 -7q-3 0 -8 3l-20 11q-6 3 -6 8zM785 171q0 -53 -23 -95.5t-66 -67.5t-100 -25q-53 0 -96 23t-68 66t-25 99q0 53 23 95.5t66 67.5t100 25q53 0 96 -23t68 -66t25 -99zM192 372q0 -26 15 -26t15 26v244q0 26 -15 26t-15 -26v-244zM581 49
q0 -26 15 -26t15 26v244q0 26 -15 26t-15 -26v-244z" />
    <glyph glyph-name="ampersand" unicode="&#x26;" horiz-adv-x="825" 
d="M463 389q-91 -11 -150 -61t-59 -118q0 -74 50.5 -118.5t133.5 -44.5q73 0 123 41t50 100q0 35 -17.5 64t-49 46.5t-70.5 17.5q-36 0 -67.5 -14t-51 -39t-19.5 -56q0 -35 25.5 -60.5t58.5 -25.5q24 0 24 15q0 5 -2 9q-36 2 -55.5 18t-19.5 43q0 34 29.5 56.5t75.5 22.5
t76 -27t30 -69q0 -47 -40 -79t-100 -32q-66 0 -108.5 35.5t-42.5 91.5t42.5 97.5t118.5 57.5q43 8 92 14q126 15 183.5 47.5t57.5 87.5q0 37 -25 62.5t-60 25.5q-25 0 -25 -14q0 -2 1 -5t2 -5q35 -1 54.5 -19t19.5 -48q0 -32 -26.5 -52.5t-67.5 -20.5q-45 0 -73.5 25
t-28.5 64q0 50 39 81t102 31q60 0 97 -34.5t37 -90.5q0 -73 -71 -116.5t-208 -54.5q50 -16 80.5 -57.5t30.5 -94.5q0 -59 -37 -105t-106 -72t-161 -26q-103 0 -180.5 27t-121 78t-43.5 120q0 70 52.5 119.5t144.5 64.5q-63 8 -105 47t-42 89q0 70 69.5 112t185.5 42
q101 0 160 -33.5t59 -90.5q0 -48 -32.5 -75t-90.5 -27q-51 0 -83 23t-32 59q0 31 23.5 49t65.5 19q6 7 6 15q-1 12 -23 12q-44 0 -74.5 -28.5t-30.5 -69.5q0 -50 45 -78.5t124 -28.5h31q12 0 12 -10v-20q0 -5 -2.5 -6.5t-9.5 -2.5z" />
    <glyph glyph-name="quotesingle" unicode="'" horiz-adv-x="216" 
d="M104 416q-8 0 -12.5 4.5t-9.5 16.5q-38 86 -55 137.5t-17 81.5q0 42 27 67.5t71 25.5t71 -25.5t27 -67.5q0 -30 -17 -81.5t-55 -137.5q-5 -12 -9.5 -16.5t-12.5 -4.5h-8z" />
    <glyph glyph-name="parenleft" unicode="(" horiz-adv-x="368" 
d="M291 125q0 -117 7.5 -155t27 -50.5t60.5 -12.5h4q8 0 8 -9v-21q0 -5 -2 -7t-7 -2h-29q-160 0 -245 119t-85 340t85 340t245 119h29q5 0 7 -2t2 -7v-21q0 -9 -8 -9h-4q-38 0 -56 -10t-26 -32t-10.5 -59.5t-2.5 -116.5v-404z" />
    <glyph glyph-name="parenright" unicode=")" horiz-adv-x="368" 
d="M77 529q0 117 -7.5 155t-27 50.5t-60.5 12.5h-4q-8 0 -8 9v21q0 5 2 7t7 2h29q160 0 245 -119t85 -340t-85 -340t-245 -119h-29q-5 0 -7 2t-2 7v21q0 9 8 9h4q38 0 56 10t26 32t10.5 59.5t2.5 116.5v404z" />
    <glyph glyph-name="asterisk" unicode="*" horiz-adv-x="584" 
d="M292 524l-45 -66q28 -23 28 -61q0 -39 -28.5 -63t-74.5 -24q-45 0 -73.5 24.5t-28.5 62.5t28.5 62.5t73.5 24.5q26 0 44 -7l48 64l-57 14q-11 -24 -36 -38t-59 -14q-45 0 -73.5 24.5t-28.5 62.5t28.5 62.5t73.5 24.5q44 0 73 -24t30 -62l57 -15v64q-37 5 -59.5 28.5
t-22.5 57.5q0 38 28.5 62.5t73.5 24.5t73.5 -24.5t28.5 -62.5q0 -34 -22.5 -57.5t-59.5 -28.5v-64l57 15q1 38 30 62t73 24q45 0 73.5 -24.5t28.5 -62.5t-28.5 -62.5t-73.5 -24.5q-34 0 -59 14t-36 38l-57 -14l48 -64q18 7 44 7q45 0 73.5 -24.5t28.5 -62.5t-28.5 -62.5
t-73.5 -24.5q-46 0 -74.5 24t-28.5 63q0 38 28 61z" />
    <glyph glyph-name="plus" unicode="+" horiz-adv-x="618" 
d="M332 311v-193q0 -12 -10 -12h-26q-10 0 -10 12v193h-187q-12 0 -12 10v25q0 10 12 10h187v193q0 12 10 12h26q10 0 10 -12v-193h187q12 0 12 -10v-25q0 -10 -12 -10h-187z" />
    <glyph glyph-name="comma" unicode="," horiz-adv-x="266" 
d="M189 -3q0 9 -7 16q-14 -14 -32.5 -22t-39.5 -8q-39 0 -64.5 26.5t-25.5 67.5q0 45 31 72.5t81 27.5q52 0 83 -32.5t31 -87.5q0 -67 -34 -107q-17 -20 -52.5 -37.5t-60.5 -17.5q-8 0 -10 9l-1 4q-1 4 -1.5 7t-0.5 5q0 5 3 7.5t11 4.5q40 11 64.5 29t24.5 36z" />
    <glyph glyph-name="hyphen" unicode="-" horiz-adv-x="400" 
d="M354 350q12 0 12 -10v-137q0 -10 -12 -10h-308q-12 0 -12 10v137q0 10 12 10h308z" />
    <glyph glyph-name="period" unicode="." horiz-adv-x="266" 
d="M133 -17q-50 0 -81.5 27t-31.5 70t31.5 70t81.5 27t81.5 -27t31.5 -70t-31.5 -70t-81.5 -27z" />
    <glyph glyph-name="slash" unicode="/" horiz-adv-x="325" 
d="M266 789q3 10 12 10h32q10 0 10 -8q0 -2 -2 -10l-259 -918q-3 -10 -12 -10h-32q-10 0 -10 8q0 2 2 10z" />
    <glyph glyph-name="zero" unicode="0" horiz-adv-x="624" 
d="M312 -17q-135 0 -213 93.5t-78 255.5q0 170 74.5 260t216.5 90t216.5 -90t74.5 -260q0 -162 -78 -255.5t-213 -93.5zM312 34q18 0 18 27v543q0 27 -18 27t-18 -27v-543q0 -27 18 -27z" />
    <glyph glyph-name="one" unicode="1" horiz-adv-x="448" 
d="M38 0q-12 0 -12 10v12q0 10 10 13q32 12 45 21t17.5 21.5t4.5 35.5v403h-72q-11 0 -11 10v22q0 10 11 10h66q84 0 149 35t79 87q2 8 4.5 10.5t8.5 2.5h22q11 0 11 -12v-568q0 -26 5.5 -38.5t19.5 -21t42 -18.5q10 -3 10 -13v-12q0 -10 -12 -10h-398z" />
    <glyph glyph-name="two" unicode="2" horiz-adv-x="599" 
d="M136 217q0 18 9 28.5t25 10.5q12 0 26.5 -6.5t34 -15t47.5 -15t67 -6.5q58 0 110.5 22t78.5 57q5 7 6.5 8t3.5 1h17q7 0 9.5 -6.5t2.5 -26.5q0 -131 -62.5 -208t-169.5 -77q-65 0 -115 21.5t-91 68.5q-9 0 -13.5 -9.5t-10.5 -40.5q-2 -13 -5 -18t-11 -5h-25q-12 0 -12 16
v198q0 48 13 74t43.5 39.5t85.5 19.5q77 9 119 48t42 103q0 59 -39 96.5t-99 37.5q-25 0 -25 -15q0 -8 6 -14h6q55 0 86.5 -28t31.5 -75q0 -54 -40.5 -88t-105.5 -34q-70 0 -112.5 37.5t-42.5 99.5q0 47 31 85t89 60t134 22q88 0 153 -25.5t100.5 -74.5t35.5 -116
q0 -60 -28 -110t-80 -80t-118 -30q-34 0 -62.5 7t-51 16t-40.5 16t-32 7q-26 0 -40.5 -21t-14.5 -59v-98q4 -4 12 -4q21 0 21 21v86z" />
    <glyph glyph-name="three" unicode="3" horiz-adv-x="584" 
d="M348 164q0 73 -49 115t-134 42h-26q-12 0 -12 11v17q0 11 12 11h27q86 0 134 37.5t48 105.5q0 57 -32.5 93t-83.5 36q-15 0 -23.5 -4t-8.5 -12q0 -7 6 -13h6q49 0 76 -25t27 -72q0 -56 -37 -85.5t-107 -29.5q-62 0 -101.5 36t-39.5 92q0 76 69.5 119.5t190.5 43.5
q117 0 184.5 -48t67.5 -131q0 -61 -42 -100t-121 -51q91 -5 140 -49t49 -121q0 -59 -34.5 -104t-100.5 -70t-155 -25q-121 0 -191.5 47t-70.5 128q0 59 43.5 95.5t114.5 36.5q63 0 102 -35.5t39 -93.5q0 -46 -27.5 -71.5t-75.5 -25.5h-6q-6 -6 -6 -13t8.5 -11.5t23.5 -4.5
q51 0 83.5 36t32.5 93z" />
    <glyph glyph-name="four" unicode="4" horiz-adv-x="632" 
d="M205 0q-12 0 -12 10v12q0 10 10 13q32 12 45 21t17.5 21.5t4.5 35.5v74h-30q-27 -22 -63 -44q-49 -29 -89 -29q-37 0 -60.5 21t-23.5 55q0 32 21.5 53.5t53.5 21.5q22 -1 39.5 -10t31.5 -18.5t26 -10.5q30 26 30 67q-1 28 -14.5 56.5t-32 58.5t-32 61t-14.5 64
q0 71 52 115t135 44q76 0 121.5 -42.5t45.5 -110.5q0 -34 -17 -76.5t-48 -84.5q-17 -22 -34 -41t-64 -66q-16 -16 -21.5 -23.5t-5.5 -13.5t5.5 -11t13.5 -5q65 55 112 114q33 42 52.5 76.5t32.5 74.5q1 5 3.5 7t8.5 2h19q8 0 11 -3t3 -11v-252h72q12 0 12 -10v-19
q0 -10 -12 -10h-72v-74q0 -26 5.5 -38.5t19.5 -21t42 -18.5q10 -3 10 -13v-12q0 -10 -12 -10h-398z" />
    <glyph glyph-name="five" unicode="5" horiz-adv-x="575" 
d="M317 165q0 -47 -31.5 -75t-86.5 -28h-6q-6 -6 -6 -14q0 -15 25 -15q60 0 99 37.5t39 96.5q0 66 -49.5 109.5t-123.5 43.5q-28 0 -48.5 -4.5t-35 -9t-25.5 -4.5q-12 0 -19 8t-7 21v318q0 9 2.5 12.5t9.5 3.5h25q8 0 10 -3.5t6 -19.5q6 -27 9 -36t6 -11.5t9 -2.5
q30 1 59 14t60 31t67.5 31t81.5 14q71 0 109 -47.5t38 -136.5q0 -41 -6 -69.5t-15 -28.5h-15q-7 0 -12 2.5t-17 10.5q-59 39 -139 39q-42 0 -76 -7.5t-60 -17.5t-42.5 -17.5t-22.5 -7.5q-9 0 -9 13v119q0 21 -19 21q-6 0 -14 -4v-184q0 -7 3.5 -11t8.5 -4q9 1 28 10.5t48 23
t67 23t85 10.5q66 0 118.5 -26.5t83 -75t30.5 -111.5q0 -103 -75 -163t-205 -60q-75 0 -134.5 21t-94 60t-34.5 91q0 58 43.5 95t111.5 37q65 0 105.5 -34t40.5 -88z" />
    <glyph glyph-name="six" unicode="6" horiz-adv-x="609" 
d="M318 34q18 0 18 27v215q0 27 -18 27t-18 -27v-215q0 -27 18 -27zM241 498q0 -38 18 -79.5t45 -65.5q38 5 70 5q108 0 164.5 -43.5t56.5 -126.5q0 -63 -32.5 -108.5t-94.5 -71t-142 -25.5q-148 0 -226 89t-78 257q0 103 38 183.5t110 125t174 44.5q63 0 115 -21t84 -60
t32 -86q0 -61 -43.5 -99t-114.5 -38q-66 0 -104.5 32.5t-38.5 89.5q0 47 31.5 75t86.5 28h6q6 6 6 14q0 15 -25 15q-60 0 -99 -37.5t-39 -96.5z" />
    <glyph glyph-name="seven" unicode="7" horiz-adv-x="567" 
d="M280 412q-43 -42 -75.5 -59t-67.5 -17q-60 0 -91.5 38.5t-31.5 111.5q0 48 11.5 95.5t32.5 85.5q8 15 15 15h12q5 0 7 -2.5t6 -13.5q14 -40 43 -58t78 -18q41 1 80.5 11t75.5 23t68 23t58 11q27 0 43.5 -14.5t16.5 -37.5q0 -16 -10.5 -33t-36.5 -42l-150 -146
q118 -115 118 -241q0 -72 -49 -116.5t-129 -44.5q-53 0 -94.5 19t-65.5 54t-24 81q0 43 22 81t77 92l282 274q10 10 10 19q0 5 -3.5 8.5t-8.5 3.5t-10 -3t-17 -14z" />
    <glyph glyph-name="eight" unicode="8" horiz-adv-x="588" 
d="M294 34q18 0 18 27v260q0 27 -18 27t-18 -27v-260q0 -27 18 -27zM294 392q18 0 18 27v185q0 27 -18 27t-18 -27v-185q0 -27 18 -27zM294 -17q-125 0 -203.5 57t-78.5 148q0 69 51 120.5t129 61.5q-71 12 -112.5 50.5t-41.5 92.5q0 78 69 123.5t187 45.5t187 -45.5
t69 -123.5q0 -54 -41.5 -92.5t-112.5 -50.5q78 -10 129 -61.5t51 -120.5q0 -91 -78.5 -148t-203.5 -57z" />
    <glyph glyph-name="nine" unicode="9" horiz-adv-x="614" 
d="M337 165q0 -47 -31.5 -75t-86.5 -28h-6q-6 -6 -6 -14q0 -15 25 -15q60 0 99 37.5t39 96.5q0 36 -17.5 73.5t-45.5 62.5q-37 -5 -70 -5q-107 0 -165 45t-58 129q0 58 33 106t93.5 76t142.5 28q149 0 229 -88t80 -250q0 -107 -38.5 -189t-111 -127t-175.5 -45
q-63 0 -115 21t-84 60t-32 86q0 60 42.5 94t115.5 34q69 0 106 -29.5t37 -83.5zM291 631q-18 0 -18 -27v-224q0 -27 18 -27t18 27v224q0 27 -18 27z" />
    <glyph glyph-name="colon" unicode=":" horiz-adv-x="266" 
d="M133 -17q-50 0 -81.5 27t-31.5 70t31.5 70t81.5 27t81.5 -27t31.5 -70t-31.5 -70t-81.5 -27zM133 314q-50 0 -81.5 27t-31.5 70t31.5 70t81.5 27t81.5 -27t31.5 -70t-31.5 -70t-81.5 -27z" />
    <glyph glyph-name="semicolon" unicode=";" horiz-adv-x="266" 
d="M189 -3q0 9 -7 16q-14 -14 -32.5 -22t-39.5 -8q-39 0 -64.5 26.5t-25.5 67.5q0 45 31 72.5t81 27.5q52 0 83 -32.5t31 -87.5q0 -67 -34 -107q-17 -20 -52.5 -37.5t-60.5 -17.5q-8 0 -10 9l-1 4q-1 4 -1.5 7t-0.5 5q0 5 3 7.5t11 4.5q40 11 64.5 29t24.5 36zM133 314
q-50 0 -81.5 27t-31.5 70t31.5 70t81.5 27t81.5 -27t31.5 -70t-31.5 -70t-81.5 -27z" />
    <glyph glyph-name="less" unicode="&#x3c;" horiz-adv-x="618" 
d="M156 333l372 -160q12 -5 12 -12q0 -3 -4 -11l-6 -11q-3 -6 -10 -6q-4 0 -13 4l-381 164q-12 5 -16 8.5t-4 10.5v26q0 7 4 10.5t16 8.5l381 164q9 4 13 4q7 0 10 -6l6 -11q4 -8 4 -11q0 -7 -12 -12z" />
    <glyph glyph-name="equal" unicode="=" horiz-adv-x="618" 
d="M121 399q-11 0 -11 10v22q0 10 11 10h376q11 0 11 -10v-22q0 -10 -11 -10h-376zM121 226q-11 0 -11 10v22q0 10 11 10h376q11 0 11 -10v-22q0 -10 -11 -10h-376z" />
    <glyph glyph-name="greater" unicode="&#x3e;" horiz-adv-x="618" 
d="M490 333l-372 160q-12 5 -12 12q0 3 4 11l6 11q3 6 10 6q4 0 13 -4l381 -164q12 -5 16 -8.5t4 -10.5v-26q0 -7 -4 -10.5t-16 -8.5l-381 -164q-9 -4 -13 -4q-7 0 -10 6l-6 11q-4 8 -4 11q0 7 12 12z" />
    <glyph glyph-name="question" unicode="?" horiz-adv-x="605" 
d="M300 202q-64 0 -100 22t-36 60q0 30 21 53t77 57q78 48 78 135q0 61 -32.5 99.5t-85.5 38.5q-25 0 -25 -15q0 -8 6 -14h6q48 0 73 -28.5t25 -83.5q0 -58 -42 -91.5t-113 -33.5q-63 0 -102.5 36t-39.5 94q0 84 78 136t206 52q133 0 211 -60t78 -163q0 -65 -31 -114.5
t-90 -77.5t-138 -28q-42 0 -91 13q-9 -4 -9 -15q0 -15 23 -23t66 -8h19q11 0 11 -11v-15q0 -10 -3.5 -12.5t-16.5 -2.5h-23zM280 -17q-50 0 -81.5 27t-31.5 70t31.5 70t81.5 27t81.5 -27t31.5 -70t-31.5 -70t-81.5 -27z" />
    <glyph glyph-name="at" unicode="@" horiz-adv-x="1014" 
d="M480 151q0 -11 5 -17.5t13 -6.5q11 0 16 8v303q-5 8 -16 8q-8 0 -13 -6.5t-5 -17.5v-271zM744 147q0 -22 9 -35t25 -13q46 0 81.5 26t56 74.5t20.5 112.5q0 102 -51 182.5t-145.5 126.5t-220.5 46q-123 0 -223 -51.5t-159 -146t-59 -215.5q0 -113 54.5 -205t155 -146
t231.5 -54q42 0 80 7t68.5 15.5t49.5 15.5t24 7q7 0 11 -10l3 -8q4 -11 4 -14q0 -6 -7 -9l-10 -4q-51 -21 -110.5 -32.5t-115.5 -11.5q-140 0 -252 55.5t-177 158.5t-65 238q0 124 62 227t176 165t258 62q133 0 240.5 -49.5t170.5 -141t63 -210.5q0 -88 -34 -155t-99 -104
t-153 -37q-61 0 -103.5 19t-73.5 60q-19 -38 -51.5 -58.5t-73.5 -20.5q-85 0 -132 64t-47 180q0 124 66 193t185 69q118 0 191 -85q8 0 12.5 11.5t13.5 49.5q1 7 4 9.5t10 2.5h25q7 0 9.5 -3.5t2.5 -12.5v-345z" />
    <glyph glyph-name="A" unicode="A" horiz-adv-x="687" 
d="M335 169h-37l29 -112q6 -23 6 -32q0 -25 -31 -25h-261q-20 0 -30.5 9.5t-10.5 26.5q0 23 46 140t156 373q6 14 6 25q0 17 -8.5 29t-31.5 27q-10 6 -10 13v12q0 10 12 10h232q33 0 53.5 -13t31.5 -42l193 -508q19 -49 19 -70q0 -32 -33 -32h-251q-21 0 -30.5 9t-16.5 36z
M286 216h37l-70 269q-5 5 -13 5t-13 -4.5t-5 -11.5q0 -4 1 -9t3 -12z" />
    <glyph glyph-name="B" unicode="B" horiz-adv-x="675" 
d="M330 390h13q25 0 25 25v177q0 11 -5 18t-14 7q-13 0 -19 -8v-219zM330 345v-289q6 -8 19 -8q9 0 14 7t5 18v247q0 25 -28 25h-10zM400 665q116 0 175.5 -38t59.5 -111q0 -37 -16 -66.5t-47 -50t-76 -29.5q85 -10 130 -52t45 -113q0 -94 -74 -149.5t-199 -55.5h-303
q-18 0 -25.5 8t-7.5 27v516q0 25 -4 36.5t-14 21t-34 25.5q-5 3 -5 9v12q0 10 12 10h383z" />
    <glyph glyph-name="C" unicode="C" horiz-adv-x="676" 
d="M389 632q-65 0 -109 -43t-44 -106q0 -79 57.5 -130t147.5 -51q53 0 99.5 20t76.5 55q6 7 9 9.5t7 2.5h15q7 0 10.5 -5.5t6.5 -21.5q4 -20 4 -45q0 -93 -39 -168.5t-110 -120.5t-163 -45q-93 0 -169.5 44t-122 126t-45.5 187q0 98 41 175.5t117 122t176 44.5
q75 0 135 -24.5t95.5 -69.5t35.5 -103q0 -67 -48 -107.5t-127 -40.5q-48 0 -87.5 18.5t-63 52t-23.5 76.5q0 54 37 86t100 32q6 6 6 13q0 8 -7 12.5t-18 4.5z" />
    <glyph glyph-name="D" unicode="D" horiz-adv-x="704" 
d="M330 56q6 -8 19 -8q9 0 14 7t5 18v519q0 11 -5 18t-14 7q-13 0 -19 -8v-553zM370 665q148 0 230.5 -87.5t82.5 -243.5q0 -98 -38 -173.5t-109.5 -118t-166.5 -42.5h-274q-18 0 -25.5 8t-7.5 27v517q0 32 -8 45.5t-44 36.5q-5 3 -5 9v12q0 10 12 10h353z" />
    <glyph glyph-name="E" unicode="E" horiz-adv-x="665" 
d="M600 665q18 0 25.5 -8t7.5 -27v-119q0 -63 -27 -93.5t-83 -30.5h-123q-19 0 -27 8t-8 27v173q0 22 -17 22q-12 0 -18 -8v-252h190q12 0 12 -11v-26q0 -10 -12 -10h-190v-252q6 -8 18 -8q17 0 17 22v171q0 19 8 27t27 8h123q56 0 83 -30.5t27 -93.5v-119q0 -19 -7.5 -27
t-25.5 -8h-505q-18 0 -25.5 8t-7.5 27v516q0 25 -4 36.5t-14 21t-34 25.5q-5 3 -5 9v12q0 10 12 10h583z" />
    <glyph glyph-name="F" unicode="F" horiz-adv-x="665" 
d="M600 665q18 0 25.5 -8t7.5 -27v-143q0 -63 -27 -93.5t-83 -30.5h-123q-19 0 -27 8t-8 27v197q0 22 -17 22q-12 0 -18 -8v-276h190q12 0 12 -11v-26q0 -10 -12 -10h-190v-251q0 -19 -7.5 -27t-25.5 -8h-202q-18 0 -25.5 8t-7.5 27v516q0 25 -4 36.5t-14 21t-34 25.5
q-5 3 -5 9v12q0 10 12 10h583z" />
    <glyph glyph-name="G" unicode="G" horiz-adv-x="725" 
d="M478 0q-30 -10 -54.5 -13.5t-57.5 -3.5q-166 0 -256 92.5t-90 263.5q0 101 43 178.5t125 121t194 43.5q74 0 134 -24.5t96 -69.5t36 -103q0 -67 -48 -107.5t-127 -40.5q-48 0 -87.5 18.5t-63 52t-23.5 76.5q0 54 37 86t100 32q6 6 6 13q0 8 -7 12.5t-18 4.5
q-40 0 -74.5 -19t-55.5 -53t-21 -77q0 -44 16.5 -76.5t54.5 -63.5q9 -7 13 -15.5t4 -22.5v-244q0 -27 18 -27t18 27v217q0 19 7.5 27t25.5 8h280q12 0 12 -10v-12q0 -4 -1.5 -6.5t-8.5 -6.5q-29 -16 -38 -31t-9 -47v-165q0 -19 -7.5 -27t-25.5 -8h-147z" />
    <glyph glyph-name="H" unicode="H" horiz-adv-x="706" 
d="M62 551q0 25 -4 36.5t-14 21t-34 25.5q-5 3 -5 9v12q0 10 12 10h290q18 0 25.5 -8t7.5 -27v-263h38v263q0 19 7.5 27t25.5 8h212q18 0 25.5 -8t7.5 -27v-595q0 -19 -7.5 -27t-25.5 -8h-212q-18 0 -25.5 8t-7.5 27v283h-38v-283q0 -19 -7.5 -27t-25.5 -8h-212
q-18 0 -25.5 8t-7.5 27v516z" />
    <glyph glyph-name="I" unicode="I" horiz-adv-x="380" 
d="M330 35q0 -19 -7.5 -27t-25.5 -8h-202q-18 0 -25.5 8t-7.5 27v516q0 25 -4 36.5t-14 21t-34 25.5q-5 3 -5 9v12q0 10 12 10h280q18 0 25.5 -8t7.5 -27v-595z" />
    <glyph glyph-name="J" unicode="J" horiz-adv-x="506" 
d="M435 665q18 0 25.5 -8t7.5 -27v-409q0 -108 -65.5 -173t-175.5 -65q-64 0 -115.5 21t-81.5 60.5t-30 90.5q0 66 49.5 108.5t125.5 42.5q74 0 119 -38t45 -99q0 -51 -33.5 -80t-92.5 -29q-6 -6 -6 -13q0 -16 24 -16q62 0 102 39.5t40 101.5q0 57 -36 98t-104 60
q-19 5 -27 14.5t-8 27.5v180q0 26 -4 37t-14.5 20.5t-33.5 24.5q-5 3 -5 9v12q0 10 12 10h282z" />
    <glyph glyph-name="K" unicode="K" horiz-adv-x="711" 
d="M216 665q76 0 105 -71l86 -217q5 -4 16 -4q7 0 11 4.5t4 10.5q0 10 -11 37l-79 200q-5 13 -5 20v7q0 8 3 10.5t10 2.5h282q39 0 39 -33q0 -11 -11.5 -30.5t-62.5 -88.5l-115 -157q82 -4 126 -47t44 -118v-78q0 -32 9 -47t38 -31q7 -4 8.5 -6.5t1.5 -6.5v-12
q0 -10 -12 -10h-302q-18 0 -25.5 8t-7.5 27v295q0 11 -5 18t-14 7q-13 0 -19 -8v-312q0 -19 -7.5 -27t-25.5 -8h-202q-18 0 -25.5 8t-7.5 27v516q0 25 -4 36.5t-14 21t-34 25.5q-5 3 -5 9v12q0 10 12 10h199z" />
    <glyph glyph-name="L" unicode="L" horiz-adv-x="645" 
d="M297 665q18 0 25.5 -8t7.5 -27v-572q6 -8 18 -8q17 0 17 22v191q0 19 8 27t27 8h123q56 0 83 -30.5t27 -93.5v-139q0 -19 -7.5 -27t-25.5 -8h-505q-18 0 -25.5 8t-7.5 27v516q0 25 -4 36.5t-14 21t-34 25.5q-5 3 -5 9v12q0 10 12 10h280z" />
    <glyph glyph-name="M" unicode="M" horiz-adv-x="941" 
d="M542 485q-7 5 -14 5t-12 -4.5t-5 -10.5q0 -7 5 -26l95 -392q4 -19 4 -25q0 -32 -33 -32h-177q-21 0 -30.5 9t-16.5 36l-110 440q-7 5 -16 5q-6 0 -10.5 -4t-4.5 -11t5 -26l95 -392q6 -23 6 -32q0 -25 -31 -25h-251q-20 0 -30.5 9.5t-10.5 26.5q0 22 45.5 140.5
t151.5 372.5q6 14 6 25q0 17 -8.5 29t-31.5 27q-10 6 -10 13v12q0 10 12 10h192q40 0 61.5 -12.5t34.5 -42.5l39 -90l17 37q9 21 9 31q0 12 -6.5 21.5t-22.5 20.5q-10 6 -10 13v12q0 10 12 10h180q65 0 85 -55l178 -508q19 -54 19 -70q0 -32 -33 -32h-221q-21 0 -30.5 9
t-16.5 36z" />
    <glyph glyph-name="N" unicode="N" horiz-adv-x="711" 
d="M582 202q5 -2 10 -2q6 0 11 4.5t5 11.5q0 13 -11 30l-230 380q-5 8 -6.5 11.5t-1.5 8.5v6q0 8 3 10.5t10 2.5h256q18 0 25.5 -8t7.5 -27v-595q0 -19 -7.5 -27t-25.5 -8h-128q-46 0 -72 16t-52 59l-235 388q-5 2 -9 2q-6 0 -11.5 -4.5t-5.5 -11.5q0 -11 11 -30l230 -380
q5 -8 6.5 -11.5t1.5 -8.5v-6q0 -7 -2.5 -10t-10.5 -3h-256q-18 0 -25.5 8t-7.5 27v516q0 25 -4 36.5t-14 21t-34 25.5q-5 3 -5 9v12q0 10 12 10h206q46 0 72 -16t52 -59z" />
    <glyph glyph-name="O" unicode="O" horiz-adv-x="728" 
d="M364 -17q-164 0 -253.5 91.5t-89.5 258.5t89.5 258t253.5 91t253.5 -91t89.5 -258t-89.5 -258.5t-253.5 -91.5zM364 34q19 0 19 27v543q0 27 -19 27t-19 -27v-543q0 -27 19 -27z" />
    <glyph glyph-name="P" unicode="P" horiz-adv-x="675" 
d="M330 266q6 -8 19 -8q9 0 14 7t5 18v309q0 11 -5 18t-14 7q-13 0 -19 -8v-343zM400 665q128 0 193.5 -59.5t65.5 -175.5q0 -106 -65 -169t-177 -63q-49 0 -87 12v-175q0 -19 -7 -27t-26 -8h-202q-19 0 -26 8t-7 27v516q0 25 -4 36.5t-14 21t-34 25.5q-5 3 -5 9v12
q0 10 12 10h383z" />
    <glyph glyph-name="Q" unicode="Q" horiz-adv-x="728" 
d="M12 -103q0 36 15.5 67.5t45 55t69.5 34.5q-121 93 -121 279q0 167 90 258t254 91t253 -91t89 -258q0 -127 -53 -206.5t-153 -97.5q33 -3 63.5 -17t59 -32.5t54.5 -36.5t50 -30t45 -12q46 0 60 50q4 16 6.5 19t8.5 3h11q8 0 11 -6.5t3 -29.5q0 -79 -54 -128.5t-138 -49.5
q-53 0 -100 16t-92 50t-99 94q-52 58 -94.5 81.5t-92.5 23.5q-40 0 -74 -16t-55 -44.5t-21 -63.5q0 -45 31 -73.5t80 -28.5q22 0 22 15q0 5 -2 9q-43 0 -70.5 22.5t-27.5 57.5q0 41 33 66t86 25q58 0 97.5 -32.5t39.5 -80.5q0 -54 -45.5 -87.5t-118.5 -33.5q-74 0 -120 38.5
t-46 99.5zM365 61q19 0 19 26v517q0 27 -19 27t-19 -27v-516q0 -27 19 -27z" />
    <glyph glyph-name="R" unicode="R" horiz-adv-x="697" 
d="M330 361h13q25 0 25 25v206q0 11 -5 18t-14 7q-13 0 -19 -8v-248zM330 316v-281q0 -19 -7.5 -27t-25.5 -8h-202q-18 0 -25.5 8t-7.5 27v517q0 32 -9 47t-38 31q-7 4 -8.5 6.5t-1.5 6.5v12q0 10 12 10h373q131 0 193.5 -42t62.5 -129q0 -55 -43 -99t-107 -54
q160 -8 160 -165v-63q0 -32 9 -47t38 -31q7 -4 8.5 -6.5t1.5 -6.5v-12q0 -10 -12 -10h-300q-18 0 -25.5 8t-7.5 27v256q0 25 -25 25h-13z" />
    <glyph glyph-name="S" unicode="S" horiz-adv-x="652" 
d="M632 190q0 -100 -83 -153.5t-238 -53.5q-144 0 -218.5 43.5t-74.5 126.5q0 51 37 83.5t95 32.5q67 0 106.5 -29.5t39.5 -79.5q0 -38 -26 -60t-73 -24q-6 -6 -6 -13t6.5 -11t16.5 -4q50 0 83.5 32t33.5 80q0 39 -16 64.5t-51.5 45.5t-96.5 39q-69 21 -104 63t-35 103
q0 60 37.5 106.5t108 73.5t164.5 27q132 0 206.5 -45t74.5 -125q0 -51 -38.5 -83.5t-99.5 -32.5q-63 0 -101.5 30t-38.5 79q0 38 26 60t73 24q6 6 6 13t-6.5 11t-16.5 4q-32 0 -58.5 -14.5t-42.5 -40t-16 -57.5q0 -55 37 -88.5t127 -58.5q83 -23 122.5 -64t39.5 -104z" />
    <glyph glyph-name="T" unicode="T" horiz-adv-x="822" 
d="M277 609q-6 8 -17 8q-17 0 -17 -22v-243q0 -19 -8 -27t-27 -8h-68q-56 0 -83 30.5t-27 93.5v189q0 19 7.5 27t25.5 8h696q18 0 25.5 -8t7.5 -27v-189q0 -63 -27 -93.5t-83 -30.5h-68q-19 0 -27 8t-8 27v243q0 22 -17 22q-11 0 -17 -8v-574q0 -19 -7.5 -27t-25.5 -8h-202
q-18 0 -25.5 8t-7.5 27v574z" />
    <glyph glyph-name="U" unicode="U" horiz-adv-x="703" 
d="M304 665q18 0 25.5 -8t7.5 -27v-569q0 -27 19 -27t19 27v569q0 19 7.5 27t25.5 8h221q18 0 26 -7.5t8 -24.5v-359q0 -144 -77.5 -217.5t-229.5 -73.5q-151 0 -229 73.5t-78 217.5v277q0 25 -4 36.5t-14 21t-34 25.5q-5 3 -5 9v12q0 10 12 10h300z" />
    <glyph glyph-name="V" unicode="V" horiz-adv-x="778" 
d="M223 665q69 0 106 -30t55 -100l109 -415q5 -5 15 -5q6 0 11 4.5t5 11.5q0 8 -4 21l-102 398q-5 18 -14 39t-18 33t-11 16t-2 10v7q0 10 13 10h323q20 0 30.5 -9.5t10.5 -26.5q0 -37 -59.5 -215.5t-132.5 -358.5q-11 -29 -31.5 -42t-53.5 -13h-145q-33 0 -53.5 13
t-31.5 42l-200 527q-6 16 -16.5 26.5t-35.5 25.5q-5 3 -5 9v12q0 10 12 10h225z" />
    <glyph glyph-name="W" unicode="W" horiz-adv-x="1030" 
d="M742 119q6 -6 15 -6q17 0 17 19q0 5 -1 10.5t-2 9.5l-76 398q-10 50 -28 72q-8 11 -10.5 15.5t-2.5 10.5v7q0 10 13 10h294q20 0 30.5 -9.5t10.5 -26.5q0 -37 -59.5 -214.5t-133.5 -359.5q-11 -29 -31.5 -42t-53.5 -13h-120q-33 0 -53.5 13t-31.5 42q-22 -55 -89 -55
h-128q-67 0 -85 55l-174 527q-5 15 -15.5 25.5t-36.5 26.5q-5 3 -5 9v12q0 10 12 10h190q69 0 106 -30t55 -100l103 -415q6 -5 14 -5t13 5t5 13q0 5 -1 10.5t-3 12.5l-98 394q-8 31 -14.5 46.5t-14.5 25.5q-8 11 -10.5 15.5t-2.5 10.5v7q0 10 13 10h147q71 0 109.5 -31
t51.5 -99z" />
    <glyph glyph-name="X" unicode="X" horiz-adv-x="792" 
d="M54 0q-20 0 -29.5 8t-9.5 25q0 16 17 43.5t56 75.5l147 184l-172 250q-13 18 -22.5 26.5t-31.5 21.5q-5 3 -5 9v12q0 10 12 10h231q52 0 79.5 -16.5t60.5 -66.5l122 -183q9 0 15.5 6.5t6.5 15.5t-10 23l-120 181q-5 8 -6 11t-1 8v11q0 10 10 10h326q39 0 39 -33
q0 -32 -74 -119l-143 -168l195 -266q13 -18 22.5 -26.5t31.5 -21.5q5 -3 5 -9v-12q0 -10 -12 -10h-252q-52 0 -79.5 16.5t-60.5 66.5l-130 195q-9 0 -15.5 -6.5t-6.5 -15.5t10 -23l128 -193q7 -10 7 -19v-11q0 -10 -10 -10h-331z" />
    <glyph glyph-name="Y" unicode="Y" horiz-adv-x="778" 
d="M43 582q-6 16 -16.5 26.5t-35.5 25.5q-5 3 -5 9v12q0 10 12 10h225q47 0 78 -13.5t51 -42t32 -74.5l86 -325q5 -5 15 -5q6 0 11 4.5t5 11.5q0 8 -4 21l-79 308q-5 18 -14 39t-18 33t-11 16t-2 10v7q0 10 13 10h323q20 0 30.5 -9.5t10.5 -26.5q0 -25 -23 -100t-102 -302
q-13 -39 -33.5 -53t-56.5 -14v-125q0 -19 -7.5 -27t-25.5 -8h-202q-18 0 -25.5 8t-7.5 27v125q-26 0 -41.5 5t-25 15.5t-18.5 34.5z" />
    <glyph glyph-name="Z" unicode="Z" horiz-adv-x="670" 
d="M652 35q0 -19 -7.5 -27t-25.5 -8h-565q-40 0 -40 34q0 19 17 46l320 524q-3 6 -9 9.5t-12 3.5q-8 0 -13.5 -5.5t-16.5 -23.5l-148 -243q-9 -15 -16 -20t-18 -5h-38q-28 0 -40 14t-12 44v252q0 19 7.5 27t25.5 8h535q40 0 40 -34q0 -15 -17 -46l-290 -524q7 -13 21 -13
q9 0 15 6t15 23l134 243q8 14 15 19.5t19 5.5h52q28 0 40 -14t12 -44v-252z" />
    <glyph glyph-name="bracketleft" unicode="[" horiz-adv-x="365" 
d="M81 -132q-18 0 -26 7t-8 24v856q0 17 8 24t26 7h285q5 0 7 -2t2 -7v-21q0 -9 -8 -9h-80v-840h79q5 0 7 -2t2 -7v-21q0 -9 -8 -9h-286z" />
    <glyph glyph-name="backslash" unicode="\" horiz-adv-x="325" 
d="M318 -129q2 -8 2 -10q0 -8 -10 -8h-32q-9 0 -12 10l-259 918q-2 8 -2 10q0 8 10 8h32q9 0 12 -10z" />
    <glyph glyph-name="bracketright" unicode="]" horiz-adv-x="365" 
d="M-2 -132q-8 0 -8 9v21q0 5 2 7t7 2h79v840h-80q-8 0 -8 9v21q0 5 2 7t7 2h285q18 0 26 -7t8 -24v-856q0 -17 -8 -24t-26 -7h-286z" />
    <glyph glyph-name="asciicircum" unicode="^" horiz-adv-x="618" 
d="M309 546l-143 -230q-6 -10 -9 -12.5t-7 -2.5t-12 5l-15 9q-7 4 -7 10q0 5 6 14l150 229q8 13 12.5 16.5t11.5 3.5h26q7 0 11.5 -3.5t12.5 -16.5l150 -229q6 -9 6 -14q0 -6 -7 -10l-15 -9q-8 -5 -12 -5t-7 2.5t-9 12.5z" />
    <glyph glyph-name="underscore" unicode="_" horiz-adv-x="510" 
d="M17 -77q-12 0 -12 10v22q0 10 12 10h476q12 0 12 -10v-22q0 -10 -12 -10h-476z" />
    <glyph glyph-name="grave" unicode="`" horiz-adv-x="600" 
d="M230 829q48 0 77.5 -28.5t30.5 -75.5q0 -16 -1.5 -28t-3.5 -23.5t-2 -24.5q0 -24 10 -37.5t28 -13.5q16 0 32 9l4 2q6 3 9 3q4 0 7 -4l6 -10q3 -4 3 -8q0 -6 -11 -12q-34 -21 -84 -21q-53 0 -99 22t-75 62.5t-30 89.5q0 44 27.5 71t71.5 27z" />
    <glyph glyph-name="a" unicode="a" horiz-adv-x="611" 
d="M288 204q-6 8 -16 8q-17 0 -17 -20v-64q0 -20 17 -20q10 0 16 8v88zM449 -12q-101 0 -144 83q-23 -43 -56.5 -63t-82.5 -20q-69 0 -111 34t-42 90q0 49 34.5 77.5t106.5 38.5q184 24 184 139q0 46 -32 79.5t-76 33.5q-21 0 -21 -14q0 -5 3 -10q42 0 69 -25t27 -64
q0 -46 -38.5 -76t-98.5 -30q-61 0 -97 30.5t-36 80.5q0 67 65 107.5t172 40.5q128 0 194.5 -62t66.5 -182v-125q0 -17 3 -23t10 -6q9 0 13 8t7 31q2 17 4 20.5t8 3.5h17q6 0 8.5 -7t2.5 -23q0 -80 -41.5 -123.5t-118.5 -43.5z" />
    <glyph glyph-name="b" unicode="b" horiz-adv-x="615" 
d="M43 596q0 35 -10 53.5t-37 34.5q-7 4 -8.5 6.5t-1.5 6.5v12q0 10 12 10h259q19 0 26.5 -7.5t7.5 -24.5v-209q42 42 115 42q89 0 140 -67.5t51 -185.5q0 -134 -69.5 -206.5t-198.5 -72.5q-70 0 -117.5 19.5t-91.5 65.5q-8 0 -12.5 -11.5t-13.5 -49.5q-1 -7 -4 -9.5
t-10 -2.5h-25q-7 0 -9.5 3.5t-2.5 12.5v580zM327 408q0 24 -19 24q-11 0 -17 -8v-381q6 -8 17 -8q19 0 19 24v349z" />
    <glyph glyph-name="c" unicode="c" horiz-adv-x="574" 
d="M234 366q0 -42 20 -77t56.5 -56.5t82.5 -21.5q41 0 72.5 13.5t62.5 45.5q6 6 8.5 7.5t7.5 1.5h13q11 0 11 -20q0 -75 -34.5 -136.5t-97.5 -98t-144 -36.5q-77 0 -139 32.5t-98 92.5t-36 139q0 76 36 136.5t103.5 96t155.5 35.5q63 0 112.5 -18.5t78.5 -53t29 -79.5
q0 -55 -38.5 -91.5t-98.5 -36.5q-56 0 -94.5 36.5t-38.5 89.5q0 39 27 64t69 25q3 5 3 10q0 14 -21 14q-44 0 -76 -33.5t-32 -80.5z" />
    <glyph glyph-name="d" unicode="d" horiz-adv-x="647" 
d="M288 131q0 -24 19 -24q11 0 17 8v309q-6 8 -17 8q-19 0 -19 -24v-277zM324 596q0 35 -10 53.5t-37 34.5q-7 4 -8.5 6.5t-1.5 6.5v12q0 10 12 10h259q19 0 26.5 -7.5t7.5 -24.5v-536q0 -17 3 -23t10 -6q9 0 13 8t7 31q2 17 4 20.5t8 3.5h17q6 0 8.5 -7t2.5 -23
q0 -80 -41.5 -123.5t-118.5 -43.5q-100 0 -144 83q-44 -83 -136 -83q-88 0 -137.5 71.5t-49.5 198.5q0 124 50 193t140 69q74 0 116 -42v118z" />
    <glyph glyph-name="e" unicode="e" horiz-adv-x="581" 
d="M251 231q0 -23 39 -42.5t87 -19.5q95 0 156 64q6 6 8.5 7.5t7.5 1.5h12q7 0 9.5 -5t2.5 -18q0 -62 -33.5 -114.5t-95 -84.5t-137.5 -32q-81 0 -146 33t-103.5 94t-38.5 139q0 77 36 137t102.5 94.5t155.5 34.5q67 0 120.5 -21t84.5 -60t31 -90q0 -65 -47 -107.5
t-119 -42.5t-117 48q-6 0 -10.5 -4.5t-4.5 -11.5zM281 300q6 -8 16 -8q18 0 18 20v142q0 20 -18 20q-10 0 -16 -8v-166z" />
    <glyph glyph-name="f" unicode="f" horiz-adv-x="346" 
d="M44 508v49q0 87 61 139.5t162 52.5q80 0 130 -33t50 -86q0 -45 -36.5 -71t-98.5 -26q-59 0 -92 23t-33 63q0 30 22 48.5t60 18.5q2 2 2.5 5t0.5 5q0 14 -21 14q-39 0 -66.5 -27.5t-27.5 -66.5q0 -73 90 -108h136q12 0 12 -10v-18q0 -10 -12 -10h-100q11 -9 15 -18.5
t4 -28.5v-391q0 -17 -7.5 -24.5t-26.5 -7.5h-190q-19 0 -26.5 7.5t-7.5 24.5v438h-67q-12 0 -12 10v18q0 10 12 10h67z" />
    <glyph glyph-name="g" unicode="g" horiz-adv-x="576" 
d="M366 594q0 28 20.5 47t51.5 19q21 0 35 -8q5 5 5 12q0 9 -12 14.5t-32 5.5q-41 0 -69 -26t-28 -65q0 -29 19 -54t55 -42q79 -38 113 -82t34 -109q0 -64 -32.5 -114.5t-93.5 -79t-142 -28.5q-102 0 -172 44q-8 -8 -8 -17q0 -14 23.5 -27t65.5 -21.5t91 -8.5q40 1 75 5
t64 5q66 0 103.5 -33t37.5 -92q0 -54 -34.5 -94.5t-99.5 -63t-153 -22.5q-106 0 -171 28.5t-65 74.5q0 25 18 46q-46 44 -46 114q0 40 17.5 74t49.5 56q-66 60 -66 150q0 60 32 109.5t91 79t134 29.5q9 0 18 -0.5t18 -2.5q-8 14 -13 31q-6 21 -6 43q0 56 42 92t106 36
q60 0 97 -29.5t37 -76.5q0 -42 -31 -68.5t-79 -26.5q-43 0 -71.5 21.5t-28.5 54.5zM289 130q18 0 18 27v290q0 27 -18 27t-18 -27v-290q0 -27 18 -27zM410 -140q-62 -25 -135 -25q-99 0 -171 44q-8 -6 -8 -17q0 -22 55.5 -39.5t126.5 -17.5q55 0 97 11t42 30q0 9 -7 14z" />
    <glyph glyph-name="h" unicode="h" horiz-adv-x="614" 
d="M43 596q0 35 -10 53.5t-37 34.5q-7 4 -8.5 6.5t-1.5 6.5v12q0 10 12 10h259q19 0 26.5 -7.5t7.5 -24.5v-228q49 61 136 61q72 0 110 -43t38 -122v-323q0 -17 -7.5 -24.5t-26.5 -7.5h-180q-19 0 -26.5 7.5t-7.5 24.5v344q0 11 -5 18t-14 7q-12 0 -17 -8v-361
q0 -17 -7.5 -24.5t-26.5 -7.5h-180q-19 0 -26.5 7.5t-7.5 24.5v564z" />
    <glyph glyph-name="i" unicode="i" horiz-adv-x="367" 
d="M28 648q0 45 35 72t94 27t94.5 -27t35.5 -72q0 -44 -35.5 -71t-94.5 -27t-94 26.5t-35 71.5zM258 508q19 0 26.5 -7.5t7.5 -24.5v-325q0 -17 3 -23t10 -6q9 0 12.5 7t7.5 32q2 17 4 20.5t8 3.5h17q6 0 8.5 -7t2.5 -24q0 -80 -43 -123t-123 -43q-77 0 -118.5 43.5
t-41.5 124.5v229q0 35 -10 53.5t-37 34.5q-7 4 -8.5 6.5t-1.5 6.5v12q0 10 12 10h264z" />
    <glyph glyph-name="j" unicode="j" horiz-adv-x="336" 
d="M28 648q0 45 35 72t94 27t94.5 -27t35.5 -72q0 -44 -35.5 -71t-94.5 -27t-94 26.5t-35 71.5zM39 385q0 35 -10 53.5t-37 34.5q-7 4 -8.5 6.5t-1.5 6.5v12q0 10 12 10h264q19 0 26.5 -7.5t7.5 -24.5v-525q0 -87 -61 -139.5t-162 -52.5q-80 0 -130 33t-50 86q0 47 37.5 76
t97.5 29q56 0 90.5 -26t34.5 -68q0 -30 -22 -48.5t-60 -18.5q-1 -2 -1.5 -4t-0.5 -4q0 -7 6.5 -11.5t17.5 -4.5q37 0 63.5 27.5t26.5 66.5q-1 44 -28 72t-85 46q-15 5 -21 14.5t-6 28.5v332z" />
    <glyph glyph-name="k" unicode="k" horiz-adv-x="691" 
d="M43 596q0 35 -10 53.5t-37 34.5q-7 4 -8.5 6.5t-1.5 6.5v12q0 10 12 10h259q19 0 26.5 -7.5t7.5 -24.5v-270q26 49 72.5 76t104.5 27q77 0 126.5 -43.5t49.5 -109.5q0 -56 -38 -91t-98 -35q-82 0 -116 64q-17 0 -17 -18t17 -35t47 -29t63 -12q86 0 141 59q6 6 8.5 7.5
t7.5 1.5h12q7 0 9.5 -5t2.5 -21q0 -124 -48 -194.5t-132 -70.5q-86 0 -134 64.5t-48 179.5q0 101 40 162.5t107 61.5q4 5 4 12t-5.5 10.5t-13.5 3.5q-47 0 -83 -32t-57.5 -92.5t-21.5 -130.5v-195q0 -17 -8 -24.5t-26 -7.5h-180q-34 0 -34 32v564z" />
    <glyph glyph-name="l" unicode="l" horiz-adv-x="367" 
d="M39 596q0 35 -10 53.5t-37 34.5q-7 4 -8.5 6.5t-1.5 6.5v12q0 10 12 10h264q19 0 26.5 -7.5t7.5 -24.5v-536q0 -17 3 -23t10 -6q9 0 12.5 7t7.5 32q2 17 4 20.5t8 3.5h17q6 0 8.5 -7t2.5 -24q0 -80 -43 -123t-123 -43q-77 0 -118.5 43.5t-41.5 124.5v440z" />
    <glyph glyph-name="m" unicode="m" horiz-adv-x="868" 
d="M146 508q49 0 78.5 -17.5t40.5 -54.5q23 40 61.5 62t85.5 22q46 0 79 -20.5t49 -59.5q21 38 59.5 59t86.5 21q70 0 106.5 -42t36.5 -123v-323q0 -17 -7.5 -24.5t-26.5 -7.5h-170q-19 0 -26.5 7.5t-7.5 24.5v344q0 11 -5 18t-14 7q-12 0 -17 -8v-361q0 -17 -7.5 -24.5
t-26.5 -7.5h-170q-19 0 -26.5 7.5t-7.5 24.5v344q0 11 -5 18t-14 7q-12 0 -17 -8v-361q0 -17 -7.5 -24.5t-26.5 -7.5h-170q-19 0 -26.5 7.5t-7.5 24.5v353q0 35 -10 53.5t-37 34.5q-7 4 -8.5 6.5t-1.5 6.5v12q0 10 12 10h148z" />
    <glyph glyph-name="n" unicode="n" horiz-adv-x="614" 
d="M156 508q49 0 78.5 -17.5t40.5 -54.5q23 41 62.5 62.5t89.5 21.5q72 0 110 -43t38 -122v-323q0 -17 -7.5 -24.5t-26.5 -7.5h-180q-19 0 -26.5 7.5t-7.5 24.5v344q0 11 -5 18t-14 7q-12 0 -17 -8v-361q0 -17 -7.5 -24.5t-26.5 -7.5h-180q-19 0 -26.5 7.5t-7.5 24.5v353
q0 35 -10 53.5t-37 34.5q-7 4 -8.5 6.5t-1.5 6.5v12q0 10 12 10h158z" />
    <glyph glyph-name="o" unicode="o" horiz-adv-x="614" 
d="M307 34q18 0 18 27v386q0 27 -18 27t-18 -27v-386q0 -27 18 -27zM307 -12q-141 0 -214.5 68t-73.5 198t73.5 198t214.5 68t214.5 -68t73.5 -198t-73.5 -198t-214.5 -68z" />
    <glyph glyph-name="p" unicode="p" horiz-adv-x="615" 
d="M156 508q50 0 78.5 -17.5t39.5 -53.5q44 83 136 83q88 0 137.5 -71.5t49.5 -198.5q0 -124 -50 -193t-140 -69q-75 0 -116 41v-208q0 -17 -7.5 -24.5t-26.5 -7.5h-180q-19 0 -26.5 7.5t-7.5 24.5v564q0 35 -10 53.5t-37 34.5q-7 4 -8.5 6.5t-1.5 6.5v12q0 10 12 10h158z
M327 377q0 24 -19 24q-11 0 -17 -8v-309q6 -8 17 -8q19 0 19 24v277z" />
    <glyph glyph-name="q" unicode="q" horiz-adv-x="618" 
d="M574 -179q0 -17 -7.5 -24.5t-26.5 -7.5h-180q-19 0 -26.5 7.5t-7.5 24.5v209q-42 -42 -115 -42q-88 0 -139.5 68t-51.5 184q0 135 72 207.5t206 72.5q44 0 77.5 -8.5t62.5 -27t59 -49.5q8 0 12.5 11.5t13.5 49.5q1 7 4 9.5t10 2.5h25q7 0 9.5 -3.5t2.5 -12.5v-671z
M290 100q0 -24 19 -24q11 0 17 8v382q-6 8 -17 8q-19 0 -19 -24v-350z" />
    <glyph glyph-name="r" unicode="r" horiz-adv-x="501" 
d="M69 508q86 0 117 -51q29 32 65 47.5t83 15.5q73 0 120 -40t47 -102q0 -52 -38 -84.5t-98 -32.5q-59 0 -96.5 30t-37.5 76q0 39 27 64t69 25q3 5 3 10q0 14 -21 14q-44 0 -76 -33.5t-32 -80.5q0 -40 22.5 -70.5t64.5 -48.5q14 -6 18.5 -13.5t4.5 -25.5v-176q0 -32 -34 -32
h-203q-31 0 -31 32v353q0 35 -10 53.5t-37 34.5q-7 4 -8.5 6.5t-1.5 6.5v12q0 10 12 10h71z" />
    <glyph glyph-name="s" unicode="s" horiz-adv-x="562" 
d="M253 115q0 -26 -18 -43.5t-49 -19.5q-4 -6 -4 -11q0 -13 18 -13q32 0 57.5 27.5t25.5 63.5q0 41 -28 64.5t-97 39.5q-131 30 -131 128q0 78 75.5 123.5t204.5 45.5q106 0 165 -32.5t59 -90.5q0 -40 -31 -63.5t-86 -23.5q-54 0 -88 23t-34 60q0 26 18 43.5t49 19.5
q4 6 4 11q0 13 -18 13q-32 0 -57.5 -27.5t-25.5 -63.5q0 -41 30.5 -65t101.5 -39q84 -17 120 -47.5t36 -86.5q0 -79 -70.5 -121t-202.5 -42q-120 0 -191.5 34t-71.5 90q0 40 31.5 63t85.5 23t88 -23t34 -60z" />
    <glyph glyph-name="t" unicode="t" horiz-adv-x="390" 
d="M119 616q4 19 12.5 25.5t25.5 6.5h109q19 0 26.5 -7.5t7.5 -24.5v-108h99q12 0 12 -10v-18q0 -10 -12 -10h-99v-314q0 -20 5.5 -27t20.5 -7q12 0 17.5 8t9.5 31q2 16 4.5 20t8.5 4h16q6 0 8.5 -7t2.5 -24q0 -80 -44 -123t-125 -43q-84 0 -130.5 46t-46.5 129v307h-59
q-12 0 -12 10v18q0 10 12 10h4q47 0 69 9t34.5 31t23.5 68z" />
    <glyph glyph-name="u" unicode="u" horiz-adv-x="646" 
d="M253 508q19 0 26.5 -7.5t7.5 -24.5v-344q0 -11 5 -18t14 -7q12 0 17 8v361q0 17 7.5 24.5t26.5 7.5h180q18 0 26 -7.5t8 -24.5v-325q0 -17 3 -23t10 -6q9 0 13 8t7 31q2 17 4 20.5t8 3.5h17q6 0 8.5 -7t2.5 -23q0 -78 -43 -122.5t-119 -44.5q-47 0 -85 22t-58 62
q-22 -40 -62 -62t-90 -22q-72 0 -110 43t-38 122v232q0 35 -10 53.5t-37 34.5q-7 4 -8.5 6.5t-1.5 6.5v12q0 10 12 10h259z" />
    <glyph glyph-name="v" unicode="v" horiz-adv-x="683" 
d="M23 421q-6 17 -16.5 28t-31.5 24q-10 6 -10 13v12q0 10 12 10h156q68 0 100.5 -10.5t51 -36.5t35.5 -77l96 -290q5 -5 12 -5q15 0 15 17q0 9 -8 33l-90 275q-7 22 -12 33t-11 19q-9 11 -11.5 14.5t-2.5 8.5v9q0 10 12 10h283q36 0 36 -26q0 -44 -132 -375
q-22 -55 -35.5 -74.5t-30 -26t-49.5 -6.5h-150q-35 0 -53 11.5t-29 41.5z" />
    <glyph glyph-name="w" unicode="w" horiz-adv-x="914" 
d="M595 417q-12 38 -25 52q-7 7 -9 11t-2 9v9q0 10 12 10h263q36 0 36 -26q0 -36 -34.5 -150.5t-78.5 -224.5q-21 -54 -34.5 -74t-30 -26.5t-49.5 -6.5h-117q-33 0 -53.5 13t-31.5 42q-11 -28 -32 -41.5t-55 -13.5h-117q-35 0 -53 11.5t-29 41.5l-132 368q-6 17 -16.5 28
t-31.5 24q-10 6 -10 13v12q0 10 12 10h126q68 0 100.5 -10.5t51 -36.5t35.5 -77l96 -290q5 -5 12 -5q15 0 15 17q0 9 -8 33l-91 278q-12 38 -25 52q-7 7 -9 11t-2 9v9q0 10 12 10h94q68 0 100.5 -10.5t51 -36.5t35.5 -77l96 -290q5 -5 12 -5q15 0 15 17q0 9 -8 33z" />
    <glyph glyph-name="x" unicode="x" horiz-adv-x="679" 
d="M-3 25q0 11 13.5 31t49.5 60l125 140l-147 187q-10 13 -38 29q-12 7 -12 15v11q0 10 12 10h195q43 0 66.5 -13.5t55.5 -56.5l104 -134q8 0 13.5 5t5.5 13t-6 17l-104 134q-7 10 -7 15v10q0 10 12 10h268q33 0 33 -25q0 -11 -13.5 -31t-49.5 -60l-115 -129l158 -198
q10 -13 38 -29q12 -7 12 -15v-11q0 -10 -12 -10h-203q-42 0 -65.5 13.5t-56.5 56.5l-110 142q-8 0 -13.5 -5t-5.5 -13t6 -17l110 -142q7 -10 7 -15v-10q0 -10 -12 -10h-281q-33 0 -33 25z" />
    <glyph glyph-name="y" unicode="y" horiz-adv-x="683" 
d="M23 421q-6 17 -16.5 28t-31.5 24q-10 6 -10 13v12q0 10 12 10h156q68 0 100.5 -10.5t51 -36.5t35.5 -77l96 -290q5 -5 12 -5q15 0 15 17q0 10 -8 33l-90 275q-13 40 -23 52q-9 11 -11.5 14.5t-2.5 8.5v9q0 10 12 10h283q36 0 36 -26q0 -24 -51 -164t-139 -356
q-32 -79 -63 -122.5t-68.5 -62t-88.5 -18.5q-74 0 -119.5 33t-45.5 87q0 47 37 76t96 29q55 0 90 -26.5t35 -68.5q0 -32 -21.5 -49.5t-60.5 -17.5q-2 -4 -2 -9q0 -14 23 -14q39 0 65 26.5t26 66.5q0 47 -33 77.5t-96 41.5q-36 6 -47 16t-23 44z" />
    <glyph glyph-name="z" unicode="z" horiz-adv-x="568" 
d="M274 55q8 -9 19 -9q8 0 13.5 4.5t12.5 16.5l112 182q10 15 27 15h30q28 -1 40 -14.5t12 -43.5v-174q0 -18 -8 -25t-28 -7h-451q-18 0 -26.5 6.5t-8.5 21.5q0 14 10 29l257 391q-8 9 -19 9q-6 0 -11.5 -4t-15.5 -18l-115 -176q-10 -15 -27 -15h-24q-28 1 -40 14.5
t-12 43.5v174q0 18 8 25t28 7h435q35 0 35 -25q0 -15 -11 -33z" />
    <glyph glyph-name="braceleft" unicode="{" horiz-adv-x="418" 
d="M365 225q0 -18 -9 -45.5t-20 -60t-20 -64.5t-9 -60q0 -44 29 -65.5t90 -22.5h4q8 0 8 -9v-21q0 -5 -2 -7t-7 -2h-5q-394 0 -394 217q0 41 22 78t63 64t95 36l-126 30q-17 4 -23.5 10t-6.5 18v12q0 12 6.5 18t23.5 10l126 30q-51 9 -91.5 34t-64.5 63t-24 81
q0 217 394 217h5q5 0 7 -2t2 -7v-21q0 -9 -8 -9h-4q-61 -1 -90 -22.5t-29 -65.5q0 -28 9 -60t20 -64.5t20 -60t9 -45.5q0 -42 -54 -54l-219 -48l219 -48q54 -12 54 -54z" />
    <glyph glyph-name="bar" unicode="|" horiz-adv-x="180" 
d="M65 848q0 12 10 12h30q10 0 10 -12v-1063q0 -12 -10 -12h-30q-10 0 -10 12v1063z" />
    <glyph glyph-name="braceright" unicode="}" horiz-adv-x="418" 
d="M53 225q0 42 54 54l219 48l-219 48q-54 12 -54 54q0 18 9 45.5t20 60t20 64.5t9 60q0 44 -29 65.5t-90 22.5h-4q-8 0 -8 9v21q0 5 2 7t7 2h5q394 0 394 -217q0 -41 -22 -78t-63 -64t-95 -36l126 -30q17 -4 23.5 -10t6.5 -18v-12q0 -12 -6.5 -18t-23.5 -10l-126 -30
q51 -9 91.5 -34t64.5 -63t24 -81q0 -217 -394 -217h-5q-5 0 -7 2t-2 7v21q0 9 8 9h4q61 1 90 22.5t29 65.5q0 28 -9 60t-20 64.5t-20 60t-9 45.5z" />
    <glyph glyph-name="asciitilde" unicode="~" horiz-adv-x="618" 
d="M226 414q30 0 53.5 -12.5t57.5 -44.5q27 -26 44 -35t37 -9q28 0 43.5 21.5t15.5 61.5v6q0 12 10 12h25q10 0 10 -12v-4q0 -61 -26.5 -93.5t-75.5 -32.5q-29 0 -55 13t-56 42q-28 28 -44 37t-37 9q-28 0 -43.5 -21.5t-15.5 -61.5v-6q0 -12 -10 -12h-25q-10 0 -10 12v4
q0 61 26.5 93.5t75.5 32.5z" />
    <glyph glyph-name="uni00A0" unicode="&#xa0;" horiz-adv-x="220" 
 />
    <glyph glyph-name="exclamdown" unicode="&#xa1;" horiz-adv-x="324" 
d="M171 298q7 0 10.5 -4t9.5 -18q59 -131 86 -213.5t27 -134.5q0 -68 -38 -106t-104 -38t-104 38t-38 106q0 52 27 134.5t86 213.5q6 14 9.5 18t10.5 4h18zM162 520q51 0 82 -27t31 -70t-31.5 -70t-81.5 -27t-81.5 27t-31.5 70t31 70t82 27z" />
    <glyph glyph-name="cent" unicode="&#xa2;" horiz-adv-x="531" 
d="M217 435q0 -39 19.5 -72t54 -53.5t77.5 -20.5q74 0 125 59q4 6 6.5 7.5t7.5 1.5h11q11 0 11 -20q0 -73 -31.5 -132t-90 -93.5t-134.5 -34.5q-25 0 -52 5l-54 -144q-4 -13 -13 -13q-3 0 -11 3l-11 4q-10 3 -10 10q0 3 2 8l53 144q-72 27 -113.5 90t-41.5 146
q0 71 33.5 129t96 93t142.5 35q41 0 75 -9l38 101q4 13 13 13q4 0 11 -3l11 -4q10 -3 10 -10q0 -3 -2 -8l-39 -104q40 -19 62 -50.5t22 -69.5q0 -54 -35.5 -89t-89.5 -35q-52 0 -87.5 35.5t-35.5 86.5q0 37 25.5 61t63.5 24q2 2 2.5 4.5t0.5 4.5q0 14 -20 14
q-42 0 -72 -33.5t-30 -80.5z" />
    <glyph glyph-name="sterling" unicode="&#xa3;" horiz-adv-x="629" 
d="M482 157q40 0 61.5 15t32.5 50q3 9 5.5 12t8.5 3h10q8 0 10.5 -6.5t2.5 -29.5q0 -111 -47 -164.5t-144 -53.5q-54 0 -133 24q-46 -24 -101 -24q-79 0 -125.5 40t-46.5 106q0 59 41.5 96.5t106.5 37.5q22 0 44 -4.5t44.5 -14t64.5 -33.5q-13 42 -53 74h-158q-12 0 -12 10
v17q0 10 12 10h97l-6 3q-84 38 -116 74.5t-32 93.5t36.5 99.5t106.5 66t167 23.5q72 0 129.5 -20.5t91 -58.5t33.5 -88q0 -62 -42.5 -99.5t-112.5 -37.5q-65 0 -105.5 34t-40.5 88q0 47 31.5 75t86.5 28h6q6 6 6 14q0 15 -25 15q-60 0 -99 -37.5t-39 -96.5q0 -31 7 -53
t18 -40t23.5 -37t23.5 -46h147q12 0 12 -10v-17q0 -10 -12 -10h-136q12 -45 13 -104q53 -24 107 -24zM196 27q12 0 32 4q-78 36 -125 80q-11 -5 -11 -25q0 -25 30 -42t74 -17z" />
    <glyph glyph-name="currency" unicode="&#xa4;" horiz-adv-x="650" 
d="M215 537q51 28 110 28t110 -28l72 57q9 8 15 10.5t14 2.5q12 0 22 -13l61 -77q11 -16 11 -24q0 -14 -15 -25l-69 -55q18 -44 18 -89q0 -44 -18 -90l69 -54q7 -5 11 -11.5t4 -13.5q0 -8 -11 -24l-61 -77q-10 -13 -22 -13q-8 0 -14 2.5t-15 10.5l-72 56q-52 -27 -110 -27
t-110 27l-72 -56q-9 -8 -15 -10.5t-14 -2.5q-12 0 -22 13l-61 77q-11 16 -11 24q0 13 15 25l68 54q-17 43 -17 90t17 89l-68 55q-15 12 -15 25q0 8 11 24l61 77q10 13 22 13q8 0 14 -2.5t15 -10.5zM424 324q0 42 -29 71.5t-70 29.5t-70 -29.5t-29 -71.5t29 -71.5t70 -29.5
t70 29.5t29 71.5zM395 324q0 -31 -20.5 -51.5t-49.5 -20.5t-49.5 20.5t-20.5 51.5t20.5 51.5t49.5 20.5t49.5 -20.5t20.5 -51.5z" />
    <glyph glyph-name="yen" unicode="&#xa5;" horiz-adv-x="728" 
d="M505 79v-44q0 -19 -7.5 -27t-25.5 -8h-192q-18 0 -25.5 8t-7.5 27v44h-63q-12 0 -12 10v17q0 10 12 10h63v25h-63q-12 0 -12 10v17q0 10 12 10h63v42q-18 2 -29 7t-19 14.5t-19 33.5l-145 307q-14 31 -47 48q-7 4 -8.5 6.5t-1.5 6.5v12q0 10 12 10h225q47 0 78 -13.5
t51 -42t32 -74.5l70 -265q5 -5 14 -5q6 0 10.5 4.5t4.5 11.5q0 8 -4 21l-64 248q-5 18 -14 39t-18 33t-11 16t-2 10v7q0 10 13 10h292q20 0 30.5 -9.5t10.5 -26.5q0 -14 -7 -36t-22 -58.5t-40.5 -96.5t-61.5 -151q-15 -37 -31 -50t-41 -16v-43h65q12 0 12 -10v-17
q0 -10 -12 -10h-65v-25h65q12 0 12 -10v-17q0 -10 -12 -10h-65z" />
    <glyph glyph-name="brokenbar" unicode="&#xa6;" horiz-adv-x="180" 
d="M65 848q0 12 10 12h30q10 0 10 -12v-493q0 -12 -10 -12h-30q-10 0 -10 12v493zM65 278q0 12 10 12h30q10 0 10 -12v-493q0 -12 -10 -12h-30q-10 0 -10 12v493z" />
    <glyph glyph-name="section" unicode="&#xa7;" horiz-adv-x="608" 
d="M24 216q0 46 27.5 80.5t80.5 57t124 30.5q-111 7 -165 40.5t-54 96.5q0 48 34.5 84.5t100 56.5t154.5 20q113 0 176.5 -34t63.5 -95q0 -42 -33 -66.5t-89 -24.5t-92.5 25t-36.5 64q0 28 19 46t52 20q4 6 4 12q0 13 -19 13q-34 0 -60 -28t-26 -65q0 -31 12.5 -50.5
t41.5 -35.5t84 -36q161 -59 161 -173q0 -45 -27 -79.5t-80.5 -57t-124.5 -30.5q111 -7 165 -40.5t54 -96.5q0 -48 -34.5 -84.5t-100 -56.5t-154.5 -20q-113 0 -176.5 34t-63.5 95q0 42 33 66.5t89 24.5t92.5 -25t36.5 -64q0 -28 -19 -46t-52 -20q-4 -6 -4 -12q0 -13 19 -13
q34 0 60 28t26 65q0 31 -12.5 50.5t-41.5 35.5t-84 36q-161 59 -161 172zM304 362q-18 0 -18 -28v-197q0 -28 18 -28t18 28v197q0 28 -18 28z" />
    <glyph glyph-name="dieresis" unicode="&#xa8;" horiz-adv-x="600" 
d="M36 649q0 42 32 70t83 28t83 -28t32 -70t-32 -70t-83 -28t-83 28t-32 70zM294 649q0 42 32 70t83 28t83 -28t32 -70t-32 -70t-83 -28t-83 28t-32 70z" />
    <glyph glyph-name="copyright" unicode="&#xa9;" horiz-adv-x="770" 
d="M339 415q0 -47 35 -76.5t88 -29.5q27 0 51.5 10t41.5 28q6 6 9.5 8t8.5 2h8q10 0 10 -18q0 -55 -25 -99.5t-70.5 -70.5t-105.5 -26q-56 0 -103 25t-76 70.5t-29 101.5q0 55 26.5 100.5t75.5 72.5t112 27q74 0 120 -32t46 -84q0 -40 -27.5 -65t-72.5 -25q-43 0 -69 22.5
t-26 60.5q0 27 18.5 45t47.5 18q2 5 2 9q0 10 -16 10q-33 0 -56.5 -24.5t-23.5 -59.5zM701 336q0 63 -21.5 118.5t-63 98t-101 67t-130.5 24.5q-88 0 -159.5 -38t-114 -108.5t-42.5 -161.5q0 -85 39.5 -154.5t111.5 -111.5t165 -42q87 0 158.5 38.5t114.5 109t43 160.5z
M750 336q0 -96 -45.5 -175t-129 -126t-190.5 -47q-101 0 -183.5 43.5t-132 123t-49.5 181.5q0 96 45.5 174.5t129 125t190.5 46.5q101 0 184 -43t132 -122t49 -181z" />
    <glyph glyph-name="ordfeminine" unicode="&#xaa;" horiz-adv-x="418" 
d="M200 582q0 -26 -24.5 -44t-61.5 -18q-40 0 -63 17.5t-23 48.5q0 43 43 69.5t112 26.5q85 0 128.5 -40.5t43.5 -119.5v-89q0 -12 10 -12q6 0 9 4.5t5 17.5t4 16t6 3h10q5 0 6.5 -3.5t1.5 -20.5q0 -50 -28 -77.5t-78 -27.5q-68 0 -97 54q-30 -54 -97 -54q-43 0 -69 22.5
t-26 58.5q0 62 92 77q58 10 88.5 34t30.5 60q0 28 -19 47t-48 19q-16 0 -16 -10q0 -2 0.5 -4.5t1.5 -4.5q26 0 42 -13.5t16 -36.5zM192 472q-6 6 -13 6q-14 0 -14 -19v-25q0 -19 14 -19q7 0 13 6v51zM27 271q-11 0 -11 10v18q0 10 11 10h364q11 0 11 -10v-18q0 -10 -11 -10
h-364z" />
    <glyph glyph-name="guillemotleft" unicode="&#xab;" horiz-adv-x="633" 
d="M20 328q1 7 5 12.5t15 13.5l258 181q9 6 13 6q5 0 9 -5l7 -9q4 -5 4 -10q0 -4 -4 -11l-103 -189l103 -189q4 -7 4 -11q0 -5 -4 -10l-7 -9q-4 -5 -9 -5q-4 0 -13 6l-258 181q-12 9 -16 14t-4 12v22zM290 328q1 7 5 12.5t15 13.5l258 181q9 6 13 6q5 0 9 -5l7 -9
q4 -5 4 -10q0 -4 -4 -11l-103 -189l103 -189q4 -7 4 -11q0 -5 -4 -10l-7 -9q-4 -5 -9 -5q-4 0 -13 6l-258 181q-12 9 -16 14t-4 12v22z" />
    <glyph glyph-name="logicalnot" unicode="&#xac;" horiz-adv-x="550" 
d="M485 287q0 -12 -10 -12h-26q-10 0 -10 12v175h-392q-12 0 -12 10v26q0 10 12 10h426q12 0 12 -10v-211z" />
    <glyph glyph-name="uni00AD" unicode="&#xad;" horiz-adv-x="400" 
d="M354 350q12 0 12 -10v-137q0 -10 -12 -10h-308q-12 0 -12 10v137q0 10 12 10h308z" />
    <glyph glyph-name="registered" unicode="&#xae;" horiz-adv-x="653" 
d="M273 589q0 8 -3.5 12.5t-9.5 4.5q-7 0 -12 -4v-71h12q13 0 13 12v46zM464 518q0 55 -25 99.5t-71.5 71t-107.5 26.5q-88 0 -145.5 -56t-57.5 -142q0 -53 25.5 -97.5t72 -71t105.5 -26.5q55 0 101.5 24.5t74.5 69.5t28 102zM504 517q0 -64 -30 -116t-86 -83t-128 -31
q-67 0 -122.5 28.5t-88.5 81t-33 120.5q0 64 30 117t86 84t128 31q68 0 123.5 -29t88 -82t32.5 -121zM248 504v-78q0 -11 -10 -11h-81q-11 0 -11 11v165q0 6 -3 10t-11 9q-4 3 -5.5 5t-1.5 6v6q0 5 5 5h159q87 0 87 -55q0 -20 -11.5 -34t-32.5 -19q49 -5 49 -54v-13
q0 -8 3 -12.5t11 -8.5q5 -3 6 -4.5t1 -5.5v-7q0 -4 -5 -4h-114q-10 0 -10 11v64q0 14 -13 14h-12z" />
    <glyph glyph-name="macron" unicode="&#xaf;" horiz-adv-x="600" 
d="M494 691q12 0 12 -10v-104q0 -10 -12 -10h-388q-12 0 -12 10v104q0 10 12 10h388z" />
    <glyph glyph-name="degree" unicode="&#xb0;" horiz-adv-x="312" 
d="M156 501q39 0 64 25t25 63t-25 63t-64 25t-64 -25t-25 -63t25 -63t64 -25zM156 459q-56 0 -95 38t-39 92t39 92t95 38t95 -38t39 -92t-39 -92t-95 -38z" />
    <glyph glyph-name="plusminus" unicode="&#xb1;" horiz-adv-x="618" 
d="M98 1q-11 0 -11 10v25q0 10 11 10h422q11 0 11 -10v-25q0 -10 -11 -10h-422zM332 311v-193q0 -12 -10 -12h-26q-10 0 -10 12v193h-187q-12 0 -12 10v25q0 10 12 10h187v193q0 12 10 12h26q10 0 10 -12v-193h187q12 0 12 -10v-25q0 -10 -12 -10h-187z" />
    <glyph glyph-name="uni00B2" unicode="&#xb2;" horiz-adv-x="420" 
d="M101 493q0 21 18 21q12 0 28.5 -6t39 -12t53.5 -6q36 0 66 11.5t48 31.5q3 4 4.5 5t5.5 1h6q5 0 6.5 -3t1.5 -14q0 -73 -38.5 -111t-110.5 -38q-76 0 -130 48q-6 0 -9 -4.5t-5 -17.5l-1 -6q-1 -11 -14 -11h-14q-10 0 -10 8v107q0 30 7.5 44t25.5 20t51 8q51 4 80.5 25
t29.5 53t-19.5 52t-49.5 20q-14 0 -22.5 -4t-8.5 -11q0 -2 1 -4.5t2 -4.5q4 1 8 1.5t8 0.5q26 0 41 -13t15 -34q0 -26 -25 -41.5t-70 -15.5q-39 0 -62 17t-23 48q0 41 44 66t114 25q82 0 134 -34.5t52 -88.5q0 -46 -40.5 -79t-96.5 -33q-27 0 -51 6.5t-44.5 12.5t-35.5 6
q-17 0 -25 -9t-8 -30v-49q2 -2 5 -2.5t5 -0.5q13 0 13 12v33z" />
    <glyph glyph-name="uni00B3" unicode="&#xb3;" horiz-adv-x="420" 
d="M88 574q0 6 9 6h16q56 0 84.5 18.5t28.5 54.5q0 29 -17 47.5t-42 18.5q-31 0 -31 -14q0 -2 1 -4.5t2 -4.5q3 1 15 1q22 0 35 -12t13 -31q0 -23 -23.5 -36.5t-62.5 -13.5q-38 0 -59 15t-21 42q0 41 47.5 64.5t128.5 23.5q77 0 120 -25t43 -71q0 -32 -27.5 -53.5
t-75.5 -27.5q56 -2 89 -27t33 -65q-1 -50 -54 -78.5t-146 -28.5q-80 0 -124.5 23.5t-44.5 65.5q0 29 26 47t67 18q38 0 61 -16.5t23 -43.5q0 -18 -13 -30t-32 -12q-7 0 -18 3q-5 -5 -5 -11q0 -14 27 -14q29 0 47 18t18 48q0 38 -30.5 60t-83.5 22h-15q-9 0 -9 6v17z" />
    <glyph glyph-name="acute" unicode="&#xb4;" horiz-adv-x="600" 
d="M325 829q44 0 71.5 -27t27.5 -71q0 -45 -26.5 -84.5t-73.5 -64.5t-104 -25q-50 0 -84 21q-11 6 -11 12q0 4 3 8l6 10q3 4 7 4q3 0 9 -3l4 -2q16 -9 32 -9q18 0 28 13.5t10 37.5q0 13 -1.5 24.5t-3.5 23.5t-2 28q1 47 30.5 75.5t77.5 28.5z" />
    <glyph glyph-name="mu" unicode="&#xb5;" horiz-adv-x="655" 
d="M262 508q19 0 26.5 -7.5t7.5 -24.5v-344q0 -11 5.5 -18t14.5 -7q11 0 16 8v361q0 17 7.5 24.5t26.5 7.5h180q18 0 26 -7.5t8 -24.5v-325q0 -17 3 -23t10 -6q9 0 12.5 7t7.5 32q2 17 4 20.5t8 3.5h17q6 0 8.5 -7t2.5 -23q0 -77 -43 -122t-116 -45q-49 0 -87 21.5t-59 62.5
q-10 -41 -37.5 -62.5t-71.5 -21.5t-78.5 28.5t-47.5 76.5q-11 0 -18 -6t-7 -17q0 -25 28.5 -55.5t74.5 -55.5q36 -19 53.5 -45.5t17.5 -63.5q0 -44 -31.5 -73t-80.5 -29q-61 0 -96.5 36.5t-35.5 100.5q0 31 4.5 66.5t10.5 72.5t10.5 72.5t4.5 65.5v314q0 17 7.5 24.5
t26.5 7.5h180z" />
    <glyph glyph-name="paragraph" unicode="&#xb6;" horiz-adv-x="670" 
d="M40 -100q0 56 39.5 90.5t101.5 34.5q55 0 89 -28.5t34 -73.5q0 -41 -28.5 -66.5t-73.5 -25.5q-40 0 -66.5 20.5t-26.5 52.5q0 28 19 46.5t47 18.5q19 0 33 -8q5 5 5 11q0 8 -11 13.5t-29 5.5q-40 0 -65.5 -25t-25.5 -64q0 -44 33 -71t87 -27q64 0 99.5 37t35.5 105v234
q-25 -9 -65 -9q-75 0 -134.5 31t-93.5 89t-34 135q0 113 74.5 176t209.5 63h356q12 0 12 -10v-12q0 -6 -5 -9q-30 -20 -38.5 -29.5t-11 -20.5t-2.5 -33v-727q0 -19 -7.5 -27t-25.5 -8h-119q-18 0 -25.5 8t-7.5 27v785q-6 8 -17 8q-9 0 -14 -7t-5 -18v-642q0 -86 -48.5 -134
t-133.5 -48q-71 0 -116.5 37t-45.5 95zM301 267q0 -11 5 -18t14 -7q11 0 17 8v359q-6 8 -17 8q-9 0 -14 -7t-5 -18v-325z" />
    <glyph glyph-name="periodcentered" unicode="&#xb7;" horiz-adv-x="266" 
d="M133 184q-50 0 -81.5 27t-31.5 70t31.5 70t81.5 27t81.5 -27t31.5 -70t-31.5 -70t-81.5 -27z" />
    <glyph glyph-name="cedilla" unicode="&#xb8;" horiz-adv-x="487" 
d="M252 -290q-71 0 -118.5 46t-47.5 113v11q0 11 2.5 15.5t8.5 4.5h16q4 0 5.5 -2t4.5 -10q10 -27 33 -43t52 -16q28 0 48 16.5t20 38.5q0 7 -3 11.5t-8 4.5q-26 -41 -57 -41q-22 0 -36 13t-14 34q0 20 13 39l44 62h42l-53 -78q-9 -14 -9 -22q0 -13 13 -13q10 0 21 17l6 9
q12 19 30.5 29.5t40.5 10.5q40 0 67 -33t27 -80q0 -58 -42.5 -97.5t-105.5 -39.5z" />
    <glyph glyph-name="uni00B9" unicode="&#xb9;" horiz-adv-x="420" 
d="M85 379q-8 0 -8 6v11q0 5 6 6q26 8 34.5 15.5t8.5 26.5v210h-49q-7 0 -7 6v15q0 6 7 6h46q52 0 91.5 18.5t49.5 47.5q1 4 3 5.5t8 1.5h16q7 0 7 -7v-303q0 -18 8 -26t35 -16q5 -1 5 -6v-11q0 -6 -7 -6h-254z" />
    <glyph glyph-name="ordmasculine" unicode="&#xba;" horiz-adv-x="392" 
d="M27 271q-11 0 -11 10v18q0 10 11 10h338q11 0 11 -10v-18q0 -10 -11 -10h-338zM196 333q-93 0 -141 45t-48 130t48.5 129.5t140.5 44.5t140.5 -44.5t48.5 -129.5t-48 -130t-141 -45zM181 392q0 -26 15 -26t15 26v232q0 26 -15 26t-15 -26v-232z" />
    <glyph glyph-name="guillemotright" unicode="&#xbb;" horiz-adv-x="633" 
d="M343 306q0 -7 -4 -12t-16 -14l-258 -181q-9 -6 -13 -6q-5 0 -9 5l-7 9q-4 5 -4 10q0 4 4 11l103 189l-103 189q-4 7 -4 11q0 5 4 10l7 9q4 5 9 5q4 0 13 -6l258 -181q11 -8 15 -13.5t5 -12.5v-22zM613 306q0 -7 -4 -12t-16 -14l-258 -181q-9 -6 -13 -6q-5 0 -9 5l-7 9
q-4 5 -4 10q0 4 4 11l103 189l-103 189q-4 7 -4 11q0 5 4 10l7 9q4 5 9 5q4 0 13 -6l258 -181q11 -8 15 -13.5t5 -12.5v-22z" />
    <glyph glyph-name="onequarter" unicode="&#xbc;" horiz-adv-x="420" 
d="M30 316q-11 0 -11 10v13q0 10 11 10h362q11 0 11 -10v-13q0 -10 -11 -10h-362zM85 384q-8 0 -8 6v11q0 5 6 6q26 8 34.5 15.5t8.5 26.5v210h-49q-7 0 -7 6v15q0 6 7 6h46q52 0 91.5 18.5t49.5 47.5q1 4 3 5.5t8 1.5h16q7 0 7 -7v-303q0 -18 8 -26t35 -16q5 -1 5 -6v-11
q0 -6 -7 -6h-254zM353 39h43q8 0 8 -6v-15q0 -6 -8 -6h-43v-33q0 -19 8.5 -26.5t34.5 -15.5q6 -1 6 -6v-11q0 -6 -8 -6h-259q-8 0 -8 6v11q0 4 6 6q27 8 35 16t8 26v36h-19q-20 -21 -44.5 -31.5t-50.5 -10.5q-28 0 -44.5 12.5t-16.5 33.5q0 19 14 32t35 13q16 0 27.5 -6.5
t20 -13t14.5 -6.5q19 14 19 36q0 15 -8.5 30.5t-20 32t-20 33.5t-8.5 34q0 39 32 63.5t82 24.5q51 0 82 -22.5t31 -62.5q0 -44 -50 -94q-24 -24 -63 -56q-9 -7 -9 -14q0 -5 4.5 -8t10.5 -3q45 33 70 59q40 44 57 88q1 5 7 5h17q5 0 6.5 -1.5t1.5 -6.5v-137z" />
    <glyph glyph-name="onehalf" unicode="&#xbd;" horiz-adv-x="420" 
d="M30 316q-11 0 -11 10v13q0 10 11 10h362q11 0 11 -10v-13q0 -10 -11 -10h-362zM85 384q-8 0 -8 6v11q0 5 6 6q26 8 34.5 15.5t8.5 26.5v210h-49q-7 0 -7 6v15q0 6 7 6h46q52 0 91.5 18.5t49.5 47.5q1 4 3 5.5t8 1.5h16q7 0 7 -7v-303q0 -18 8 -26t35 -16q5 -1 5 -6v-11
q0 -6 -7 -6h-254zM101 29q0 21 18 21q12 0 28.5 -6t39 -12t53.5 -6q36 0 66 11.5t48 31.5q3 4 4.5 5t5.5 1h6q5 0 6.5 -3t1.5 -14q0 -73 -38.5 -111t-110.5 -38q-76 0 -130 48q-6 0 -9 -4.5t-5 -17.5l-1 -6q-1 -11 -14 -11h-14q-10 0 -10 8v107q0 30 7.5 44t25.5 20t51 8
q51 4 80.5 25t29.5 53t-19.5 52t-49.5 20q-14 0 -22.5 -4t-8.5 -11q0 -2 1 -4.5t2 -4.5q4 1 8 1.5t8 0.5q26 0 41 -13t15 -34q0 -26 -25 -41.5t-70 -15.5q-39 0 -62 17t-23 48q0 41 44 66t114 25q82 0 134 -34.5t52 -88.5q0 -46 -40.5 -79t-96.5 -33q-27 0 -51 6.5
t-44.5 12.5t-35.5 6q-17 0 -25 -9t-8 -30v-49q2 -2 5 -2.5t5 -0.5q13 0 13 12v33z" />
    <glyph glyph-name="threequarters" unicode="&#xbe;" horiz-adv-x="420" 
d="M30 316q-11 0 -11 10v13q0 10 11 10h362q11 0 11 -10v-13q0 -10 -11 -10h-362zM88 581q0 6 9 6h16q56 0 84.5 18.5t28.5 54.5q0 29 -17 47.5t-42 18.5q-31 0 -31 -14q0 -2 1 -4.5t2 -4.5q3 1 15 1q22 0 35 -12t13 -31q0 -23 -23.5 -36.5t-62.5 -13.5q-38 0 -59 15t-21 42
q0 41 47.5 64.5t128.5 23.5q77 0 120 -25t43 -71q0 -32 -27.5 -53.5t-75.5 -27.5q56 -2 89 -27t33 -65q-1 -50 -54 -78.5t-146 -28.5q-80 0 -124.5 23.5t-44.5 65.5q0 29 26 47t67 18q38 0 61 -16.5t23 -43.5q0 -18 -13 -30t-32 -12q-7 0 -18 3q-5 -5 -5 -11q0 -14 27 -14
q29 0 47 18t18 48q0 38 -30.5 60t-83.5 22h-15q-9 0 -9 6v17zM353 39h43q8 0 8 -6v-15q0 -6 -8 -6h-43v-33q0 -19 8.5 -26.5t34.5 -15.5q6 -1 6 -6v-11q0 -6 -8 -6h-259q-8 0 -8 6v11q0 4 6 6q27 8 35 16t8 26v36h-19q-20 -21 -44.5 -31.5t-50.5 -10.5q-28 0 -44.5 12.5
t-16.5 33.5q0 19 14 32t35 13q16 0 27.5 -6.5t20 -13t14.5 -6.5q19 14 19 36q0 15 -8.5 30.5t-20 32t-20 33.5t-8.5 34q0 39 32 63.5t82 24.5q51 0 82 -22.5t31 -62.5q0 -44 -50 -94q-24 -24 -63 -56q-9 -7 -9 -14q0 -5 4.5 -8t10.5 -3q45 33 70 59q40 44 57 88q1 5 7 5h17
q5 0 6.5 -1.5t1.5 -6.5v-137z" />
    <glyph glyph-name="questiondown" unicode="&#xbf;" horiz-adv-x="559" 
d="M295 301q64 0 100 -22t36 -60q0 -30 -21 -53t-77 -57q-78 -48 -78 -135q0 -61 32.5 -99.5t85.5 -38.5q25 0 25 15q0 8 -6 14h-6q-48 0 -73 28.5t-25 83.5q0 58 42 91.5t113 33.5q63 0 102.5 -36t39.5 -94q0 -84 -78 -136t-206 -52q-133 0 -211 60t-78 163q0 65 31 114.5
t90 77.5t138 28q42 0 91 -13q9 5 9 15q0 15 -23 23t-66 8h-19q-11 0 -11 11v15q0 10 3.5 12.5t16.5 2.5h23zM315 520q50 0 81.5 -27t31.5 -70t-31.5 -70t-81.5 -27t-81.5 27t-31.5 70t31.5 70t81.5 27z" />
    <glyph glyph-name="Agrave" unicode="&#xc0;" horiz-adv-x="687" 
d="M335 169h-37l29 -112q6 -23 6 -32q0 -25 -31 -25h-261q-20 0 -30.5 9.5t-10.5 26.5q0 23 46 140t156 373q6 14 6 25q0 17 -8.5 29t-31.5 27q-10 6 -10 13v12q0 10 12 10h232q33 0 53.5 -13t31.5 -42l193 -508q19 -49 19 -70q0 -32 -33 -32h-251q-21 0 -30.5 9t-16.5 36z
M286 216h37l-70 269q-5 5 -13 5t-13 -4.5t-5 -11.5q0 -4 1 -9t3 -12zM378 713q-56 0 -105.5 24t-80 66.5t-30.5 95.5q0 45 28.5 73.5t72.5 28.5q52 0 82.5 -29t30.5 -79q0 -23 -3.5 -44t-3.5 -41q0 -52 54 -52q17 0 35 9l6 3q6 3 9 3q5 0 8 -5l5 -9q3 -6 3 -9q0 -7 -11 -13
q-15 -9 -45.5 -15.5t-54.5 -6.5z" />
    <glyph glyph-name="Aacute" unicode="&#xc1;" horiz-adv-x="687" 
d="M335 169h-37l29 -112q6 -23 6 -32q0 -25 -31 -25h-261q-20 0 -30.5 9.5t-10.5 26.5q0 23 46 140t156 373q6 14 6 25q0 17 -8.5 29t-31.5 27q-10 6 -10 13v12q0 10 12 10h232q33 0 53.5 -13t31.5 -42l193 -508q19 -49 19 -70q0 -32 -33 -32h-251q-21 0 -30.5 9t-16.5 36z
M286 216h37l-70 269q-5 5 -13 5t-13 -4.5t-5 -11.5q0 -4 1 -9t3 -12zM291 713q-24 0 -54.5 6.5t-45.5 15.5q-11 6 -11 13q0 3 3 9l5 9q3 5 8 5q3 0 9 -3l6 -3q18 -9 35 -9q54 0 54 52q0 20 -3.5 41t-3.5 44q0 50 30.5 79t82.5 29q44 0 72.5 -28.5t28.5 -73.5q0 -50 -28 -92
t-78 -68t-110 -26z" />
    <glyph glyph-name="Acircumflex" unicode="&#xc2;" horiz-adv-x="687" 
d="M335 169h-37l29 -112q6 -23 6 -32q0 -25 -31 -25h-261q-20 0 -30.5 9.5t-10.5 26.5q0 23 46 140t156 373q6 14 6 25q0 17 -8.5 29t-31.5 27q-10 6 -10 13v12q0 10 12 10h232q33 0 53.5 -13t31.5 -42l193 -508q19 -49 19 -70q0 -32 -33 -32h-251q-21 0 -30.5 9t-16.5 36z
M286 216h37l-70 269q-5 5 -13 5t-13 -4.5t-5 -11.5q0 -4 1 -9t3 -12zM422 957q16 0 23 -4.5t10 -17.5q18 -74 48.5 -126t68.5 -74l10 -5q7 -3 7 -9q0 -2 -2 -10l-2 -7q-2 -8 -11 -8q-27 0 -71 17.5t-93.5 48.5t-83.5 64q-30 -29 -76.5 -59t-94 -50.5t-77.5 -20.5q-9 0 -11 8
l-2 7q-2 8 -2 10q0 6 7 9l10 5q38 22 68.5 74t48.5 126q3 13 10 17.5t23 4.5h192z" />
    <glyph glyph-name="Atilde" unicode="&#xc3;" horiz-adv-x="687" 
d="M335 169h-37l29 -112q6 -23 6 -32q0 -25 -31 -25h-261q-20 0 -30.5 9.5t-10.5 26.5q0 23 46 140t156 373q6 14 6 25q0 17 -8.5 29t-31.5 27q-10 6 -10 13v12q0 10 12 10h232q33 0 53.5 -13t31.5 -42l193 -508q19 -49 19 -70q0 -32 -33 -32h-251q-21 0 -30.5 9t-16.5 36z
M286 216h37l-70 269q-5 5 -13 5t-13 -4.5t-5 -11.5q0 -4 1 -9t3 -12zM550 838q0 -54 -33 -89.5t-87 -35.5q-61 0 -123 41q-42 27 -67 39t-41 12q-8 0 -14 -4.5t-6 -11.5q0 -17 27 -28q10 -4 13 -6t3 -6q0 -1 -2 -7l-2 -5q-4 -10 -10 -10q-4 0 -14 3q-42 12 -66 40t-24 65
q0 54 34.5 89.5t91.5 35.5q48 0 117 -41q53 -31 74 -41t34 -10q8 0 14 4.5t6 11.5q0 18 -27 28q-10 4 -13 6t-3 6q0 3 2 7l2 5q4 10 10 10q4 0 14 -3q42 -12 66 -40t24 -65z" />
    <glyph glyph-name="Adieresis" unicode="&#xc4;" horiz-adv-x="687" 
d="M335 169h-37l29 -112q6 -23 6 -32q0 -25 -31 -25h-261q-20 0 -30.5 9.5t-10.5 26.5q0 23 46 140t156 373q6 14 6 25q0 17 -8.5 29t-31.5 27q-10 6 -10 13v12q0 10 12 10h232q33 0 53.5 -13t31.5 -42l193 -508q19 -49 19 -70q0 -32 -33 -32h-251q-21 0 -30.5 9t-16.5 36z
M286 216h37l-70 269q-5 5 -13 5t-13 -4.5t-5 -11.5q0 -4 1 -9t3 -12zM70 813q0 43 32.5 71.5t84.5 28.5t84.5 -28.5t32.5 -71.5t-32.5 -71.5t-84.5 -28.5t-84.5 28.5t-32.5 71.5zM334 813q0 43 32.5 71.5t84.5 28.5t84.5 -28.5t32.5 -71.5t-32.5 -71.5t-84.5 -28.5
t-84.5 28.5t-32.5 71.5z" />
    <glyph glyph-name="Aring" unicode="&#xc5;" horiz-adv-x="687" 
d="M335 169h-37l29 -112q6 -23 6 -32q0 -25 -31 -25h-261q-20 0 -30.5 9.5t-10.5 26.5q0 23 46 140t156 373q6 14 6 25q0 17 -8.5 29t-31.5 27q-10 6 -10 13v12q0 10 12 10h232q33 0 53.5 -13t31.5 -42l193 -508q19 -49 19 -70q0 -32 -33 -32h-251q-21 0 -30.5 9t-16.5 36z
M286 216h37l-70 269q-5 5 -13 5t-13 -4.5t-5 -11.5q0 -4 1 -9t3 -12zM191 841q0 55 39.5 94t95.5 39q35 0 66 -17t50 -48t19 -68q0 -35 -17.5 -65t-48.5 -49t-69 -19q-56 0 -95.5 39t-39.5 94zM290 841q0 -16 10.5 -27t25.5 -11t25 11t10 27t-10 26.5t-25 10.5t-25.5 -10.5
t-10.5 -26.5z" />
    <glyph glyph-name="AE" unicode="&#xc6;" horiz-adv-x="948" 
d="M319 216h36v269q-6 8 -17 8q-9 0 -14 -7t-5 -18v-252zM402 0q-25 0 -36 10.5t-11 34.5v124h-36v-124q0 -24 -11 -34.5t-36 -10.5h-240q-17 0 -26.5 9t-9.5 25q0 17 19.5 53.5t52 87.5t73.5 112t85 126.5t85 131.5q9 14 9 29q0 17 -9 29t-32 27q-10 6 -10 13v12
q0 10 12 10h602q18 0 25.5 -8t7.5 -27v-119q0 -63 -27 -93.5t-83 -30.5h-123q-19 0 -27 8t-8 27v173q0 22 -17 22q-12 0 -18 -8v-252h190q12 0 12 -11v-26q0 -10 -12 -10h-190v-252q6 -8 18 -8q17 0 17 22v171q0 19 8 27t27 8h123q56 0 83 -30.5t27 -93.5v-119
q0 -19 -7.5 -27t-25.5 -8h-481z" />
    <glyph glyph-name="Ccedilla" unicode="&#xc7;" horiz-adv-x="676" 
d="M382 -296q-47 0 -85 20.5t-61 57.5t-23 84v11q0 12 2.5 16.5t8.5 4.5h16q4 0 6 -2.5t5 -9.5q10 -28 33.5 -44.5t52.5 -16.5t49.5 17t20.5 40q0 7 -3.5 11.5t-8.5 4.5q-25 -42 -58 -42q-22 0 -36.5 13.5t-14.5 34.5q0 20 14 40l28 40q-87 7 -157 53t-110.5 124.5
t-40.5 178.5q0 98 41 175.5t117 122t176 44.5q75 0 135 -24.5t95.5 -69.5t35.5 -103q0 -67 -48 -107.5t-127 -40.5q-48 0 -87.5 18.5t-63 52t-23.5 76.5q0 54 37 86t100 32q6 6 6 13q0 8 -7 12.5t-18 4.5q-65 0 -109 -43t-44 -106q0 -79 57.5 -130t147.5 -51q53 0 99.5 20
t76.5 55q6 7 9 9.5t7 2.5h15q7 0 10.5 -5.5t6.5 -21.5q4 -20 4 -45q0 -91 -37 -165t-105 -119t-156 -49l-38 -57q-9 -14 -9 -22q0 -13 13 -13q11 0 22 17l6 9q12 19 31 30t41 11q40 0 68 -33.5t28 -81.5q0 -38 -19 -69.5t-53.5 -51t-78.5 -19.5z" />
    <glyph glyph-name="Egrave" unicode="&#xc8;" horiz-adv-x="665" 
d="M600 665q18 0 25.5 -8t7.5 -27v-119q0 -63 -27 -93.5t-83 -30.5h-123q-19 0 -27 8t-8 27v173q0 22 -17 22q-12 0 -18 -8v-252h190q12 0 12 -11v-26q0 -10 -12 -10h-190v-252q6 -8 18 -8q17 0 17 22v171q0 19 8 27t27 8h123q56 0 83 -30.5t27 -93.5v-119q0 -19 -7.5 -27
t-25.5 -8h-505q-18 0 -25.5 8t-7.5 27v516q0 25 -4 36.5t-14 21t-34 25.5q-5 3 -5 9v12q0 10 12 10h583zM373 713q-56 0 -105.5 24t-80 66.5t-30.5 95.5q0 45 28.5 73.5t72.5 28.5q52 0 82.5 -29t30.5 -79q0 -23 -3.5 -44t-3.5 -41q0 -52 54 -52q17 0 35 9l6 3q6 3 9 3
q5 0 8 -5l5 -9q3 -6 3 -9q0 -7 -11 -13q-15 -9 -45.5 -15.5t-54.5 -6.5z" />
    <glyph glyph-name="Eacute" unicode="&#xc9;" horiz-adv-x="665" 
d="M600 665q18 0 25.5 -8t7.5 -27v-119q0 -63 -27 -93.5t-83 -30.5h-123q-19 0 -27 8t-8 27v173q0 22 -17 22q-12 0 -18 -8v-252h190q12 0 12 -11v-26q0 -10 -12 -10h-190v-252q6 -8 18 -8q17 0 17 22v171q0 19 8 27t27 8h123q56 0 83 -30.5t27 -93.5v-119q0 -19 -7.5 -27
t-25.5 -8h-505q-18 0 -25.5 8t-7.5 27v516q0 25 -4 36.5t-14 21t-34 25.5q-5 3 -5 9v12q0 10 12 10h583zM316 713q-24 0 -54.5 6.5t-45.5 15.5q-11 6 -11 13q0 3 3 9l5 9q3 5 8 5q3 0 9 -3l6 -3q18 -9 35 -9q54 0 54 52q0 20 -3.5 41t-3.5 44q0 50 30.5 79t82.5 29
q44 0 72.5 -28.5t28.5 -73.5q0 -50 -28 -92t-78 -68t-110 -26z" />
    <glyph glyph-name="Ecircumflex" unicode="&#xca;" horiz-adv-x="665" 
d="M600 665q18 0 25.5 -8t7.5 -27v-119q0 -63 -27 -93.5t-83 -30.5h-123q-19 0 -27 8t-8 27v173q0 22 -17 22q-12 0 -18 -8v-252h190q12 0 12 -11v-26q0 -10 -12 -10h-190v-252q6 -8 18 -8q17 0 17 22v171q0 19 8 27t27 8h123q56 0 83 -30.5t27 -93.5v-119q0 -19 -7.5 -27
t-25.5 -8h-505q-18 0 -25.5 8t-7.5 27v516q0 25 -4 36.5t-14 21t-34 25.5q-5 3 -5 9v12q0 10 12 10h583zM429 957q16 0 23 -4.5t10 -17.5q18 -74 48.5 -126t68.5 -74l10 -5q7 -3 7 -9q0 -2 -2 -10l-2 -7q-2 -8 -11 -8q-27 0 -71 17.5t-93.5 48.5t-83.5 64q-30 -29 -76.5 -59
t-94 -50.5t-77.5 -20.5q-9 0 -11 8l-2 7q-2 8 -2 10q0 6 7 9l10 5q38 22 68.5 74t48.5 126q3 13 10 17.5t23 4.5h192z" />
    <glyph glyph-name="Edieresis" unicode="&#xcb;" horiz-adv-x="665" 
d="M600 665q18 0 25.5 -8t7.5 -27v-119q0 -63 -27 -93.5t-83 -30.5h-123q-19 0 -27 8t-8 27v173q0 22 -17 22q-12 0 -18 -8v-252h190q12 0 12 -11v-26q0 -10 -12 -10h-190v-252q6 -8 18 -8q17 0 17 22v171q0 19 8 27t27 8h123q56 0 83 -30.5t27 -93.5v-119q0 -19 -7.5 -27
t-25.5 -8h-505q-18 0 -25.5 8t-7.5 27v516q0 25 -4 36.5t-14 21t-34 25.5q-5 3 -5 9v12q0 10 12 10h583zM82 813q0 43 32.5 71.5t84.5 28.5t84.5 -28.5t32.5 -71.5t-32.5 -71.5t-84.5 -28.5t-84.5 28.5t-32.5 71.5zM346 813q0 43 32.5 71.5t84.5 28.5t84.5 -28.5t32.5 -71.5
t-32.5 -71.5t-84.5 -28.5t-84.5 28.5t-32.5 71.5z" />
    <glyph glyph-name="Igrave" unicode="&#xcc;" horiz-adv-x="380" 
d="M330 35q0 -19 -7.5 -27t-25.5 -8h-202q-18 0 -25.5 8t-7.5 27v516q0 25 -4 36.5t-14 21t-34 25.5q-5 3 -5 9v12q0 10 12 10h280q18 0 25.5 -8t7.5 -27v-595zM234 713q-56 0 -105.5 24t-80 66.5t-30.5 95.5q0 45 28.5 73.5t72.5 28.5q52 0 82.5 -29t30.5 -79
q0 -23 -3.5 -44t-3.5 -41q0 -52 54 -52q17 0 35 9l6 3q6 3 9 3q5 0 8 -5l5 -9q3 -6 3 -9q0 -7 -11 -13q-15 -9 -45.5 -15.5t-54.5 -6.5z" />
    <glyph glyph-name="Iacute" unicode="&#xcd;" horiz-adv-x="380" 
d="M330 35q0 -19 -7.5 -27t-25.5 -8h-202q-18 0 -25.5 8t-7.5 27v516q0 25 -4 36.5t-14 21t-34 25.5q-5 3 -5 9v12q0 10 12 10h280q18 0 25.5 -8t7.5 -27v-595zM130 713q-24 0 -54.5 6.5t-45.5 15.5q-11 6 -11 13q0 3 3 9l5 9q3 5 8 5q3 0 9 -3l6 -3q18 -9 35 -9q54 0 54 52
q0 20 -3.5 41t-3.5 44q0 50 30.5 79t82.5 29q44 0 72.5 -28.5t28.5 -73.5q0 -50 -28 -92t-78 -68t-110 -26z" />
    <glyph glyph-name="Icircumflex" unicode="&#xce;" horiz-adv-x="380" 
d="M330 35q0 -19 -7.5 -27t-25.5 -8h-202q-18 0 -25.5 8t-7.5 27v516q0 25 -4 36.5t-14 21t-34 25.5q-5 3 -5 9v12q0 10 12 10h280q18 0 25.5 -8t7.5 -27v-595zM274 957q16 0 23 -4.5t10 -17.5q18 -74 48.5 -126t68.5 -74l10 -5q7 -3 7 -9q0 -2 -2 -10l-2 -7q-2 -8 -11 -8
q-27 0 -71 17.5t-93.5 48.5t-83.5 64q-30 -29 -76.5 -59t-94 -50.5t-77.5 -20.5q-9 0 -11 8l-2 7q-2 8 -2 10q0 6 7 9l10 5q38 22 68.5 74t48.5 126q3 13 10 17.5t23 4.5h192z" />
    <glyph glyph-name="Idieresis" unicode="&#xcf;" horiz-adv-x="380" 
d="M330 35q0 -19 -7.5 -27t-25.5 -8h-202q-18 0 -25.5 8t-7.5 27v516q0 25 -4 36.5t-14 21t-34 25.5q-5 3 -5 9v12q0 10 12 10h280q18 0 25.5 -8t7.5 -27v-595zM-70 813q0 43 32.5 71.5t84.5 28.5t84.5 -28.5t32.5 -71.5t-32.5 -71.5t-84.5 -28.5t-84.5 28.5t-32.5 71.5z
M194 813q0 43 32.5 71.5t84.5 28.5t84.5 -28.5t32.5 -71.5t-32.5 -71.5t-84.5 -28.5t-84.5 28.5t-32.5 71.5z" />
    <glyph glyph-name="Eth" unicode="&#xd0;" horiz-adv-x="704" 
d="M683 317q-3 -93 -42 -164.5t-109.5 -112t-162.5 -40.5h-274q-18 0 -25.5 8t-7.5 27v282h-44q-11 0 -11 10v23q0 10 11 10h44v192q0 32 -8 45.5t-44 36.5q-5 3 -5 9v12q0 10 12 10h353q141 0 223 -80.5t89 -224.5h33q11 0 11 -10v-23q0 -10 -11 -10h-32zM349 48q9 0 14 7
t5 18v244h-38v-261q6 -8 19 -8zM330 360h38v232q0 11 -5 18t-14 7q-13 0 -19 -8v-249z" />
    <glyph glyph-name="Ntilde" unicode="&#xd1;" horiz-adv-x="711" 
d="M582 202q5 -2 10 -2q6 0 11 4.5t5 11.5q0 13 -11 30l-230 380q-5 8 -6.5 11.5t-1.5 8.5v6q0 8 3 10.5t10 2.5h256q18 0 25.5 -8t7.5 -27v-595q0 -19 -7.5 -27t-25.5 -8h-128q-46 0 -72 16t-52 59l-235 388q-5 2 -9 2q-6 0 -11.5 -4.5t-5.5 -11.5q0 -11 11 -30l230 -380
q5 -8 6.5 -11.5t1.5 -8.5v-6q0 -7 -2.5 -10t-10.5 -3h-256q-18 0 -25.5 8t-7.5 27v516q0 25 -4 36.5t-14 21t-34 25.5q-5 3 -5 9v12q0 10 12 10h206q46 0 72 -16t52 -59zM568 838q0 -54 -33 -89.5t-87 -35.5q-61 0 -123 41q-42 27 -67 39t-41 12q-8 0 -14 -4.5t-6 -11.5
q0 -17 27 -28q10 -4 13 -6t3 -6q0 -1 -2 -7l-2 -5q-4 -10 -10 -10q-4 0 -14 3q-42 12 -66 40t-24 65q0 54 34.5 89.5t91.5 35.5q48 0 117 -41q53 -31 74 -41t34 -10q8 0 14 4.5t6 11.5q0 18 -27 28q-10 4 -13 6t-3 6q0 3 2 7l2 5q4 10 10 10q4 0 14 -3q42 -12 66 -40t24 -65
z" />
    <glyph glyph-name="Ograve" unicode="&#xd2;" horiz-adv-x="728" 
d="M364 -17q-164 0 -253.5 91.5t-89.5 258.5t89.5 258t253.5 91t253.5 -91t89.5 -258t-89.5 -258.5t-253.5 -91.5zM364 34q19 0 19 27v543q0 27 -19 27t-19 -27v-543q0 -27 19 -27zM417 713q-56 0 -105.5 24t-80 66.5t-30.5 95.5q0 45 28.5 73.5t72.5 28.5q52 0 82.5 -29
t30.5 -79q0 -23 -3.5 -44t-3.5 -41q0 -52 54 -52q17 0 35 9l6 3q6 3 9 3q5 0 8 -5l5 -9q3 -6 3 -9q0 -7 -11 -13q-15 -9 -45.5 -15.5t-54.5 -6.5z" />
    <glyph glyph-name="Oacute" unicode="&#xd3;" horiz-adv-x="728" 
d="M364 -17q-164 0 -253.5 91.5t-89.5 258.5t89.5 258t253.5 91t253.5 -91t89.5 -258t-89.5 -258.5t-253.5 -91.5zM364 34q19 0 19 27v543q0 27 -19 27t-19 -27v-543q0 -27 19 -27zM313 713q-24 0 -54.5 6.5t-45.5 15.5q-11 6 -11 13q0 3 3 9l5 9q3 5 8 5q3 0 9 -3l6 -3
q18 -9 35 -9q54 0 54 52q0 20 -3.5 41t-3.5 44q0 50 30.5 79t82.5 29q44 0 72.5 -28.5t28.5 -73.5q0 -50 -28 -92t-78 -68t-110 -26z" />
    <glyph glyph-name="Ocircumflex" unicode="&#xd4;" horiz-adv-x="728" 
d="M364 -17q-164 0 -253.5 91.5t-89.5 258.5t89.5 258t253.5 91t253.5 -91t89.5 -258t-89.5 -258.5t-253.5 -91.5zM364 34q19 0 19 27v543q0 27 -19 27t-19 -27v-543q0 -27 19 -27zM460 957q16 0 23 -4.5t10 -17.5q18 -74 48.5 -126t68.5 -74l10 -5q7 -3 7 -9q0 -2 -2 -10
l-2 -7q-2 -8 -11 -8q-27 0 -71 17.5t-93.5 48.5t-83.5 64q-30 -29 -76.5 -59t-94 -50.5t-77.5 -20.5q-9 0 -11 8l-2 7q-2 8 -2 10q0 6 7 9l10 5q38 22 68.5 74t48.5 126q3 13 10 17.5t23 4.5h192z" />
    <glyph glyph-name="Otilde" unicode="&#xd5;" horiz-adv-x="728" 
d="M364 -17q-164 0 -253.5 91.5t-89.5 258.5t89.5 258t253.5 91t253.5 -91t89.5 -258t-89.5 -258.5t-253.5 -91.5zM364 34q19 0 19 27v543q0 27 -19 27t-19 -27v-543q0 -27 19 -27zM587 838q0 -54 -33 -89.5t-87 -35.5q-61 0 -123 41q-42 27 -67 39t-41 12q-8 0 -14 -4.5
t-6 -11.5q0 -17 27 -28q10 -4 13 -6t3 -6q0 -1 -2 -7l-2 -5q-4 -10 -10 -10q-4 0 -14 3q-42 12 -66 40t-24 65q0 54 34.5 89.5t91.5 35.5q48 0 117 -41q53 -31 74 -41t34 -10q8 0 14 4.5t6 11.5q0 18 -27 28q-10 4 -13 6t-3 6q0 3 2 7l2 5q4 10 10 10q4 0 14 -3
q42 -12 66 -40t24 -65z" />
    <glyph glyph-name="Odieresis" unicode="&#xd6;" horiz-adv-x="728" 
d="M364 -17q-164 0 -253.5 91.5t-89.5 258.5t89.5 258t253.5 91t253.5 -91t89.5 -258t-89.5 -258.5t-253.5 -91.5zM364 34q19 0 19 27v543q0 27 -19 27t-19 -27v-543q0 -27 19 -27zM115 813q0 43 32.5 71.5t84.5 28.5t84.5 -28.5t32.5 -71.5t-32.5 -71.5t-84.5 -28.5
t-84.5 28.5t-32.5 71.5zM379 813q0 43 32.5 71.5t84.5 28.5t84.5 -28.5t32.5 -71.5t-32.5 -71.5t-84.5 -28.5t-84.5 28.5t-32.5 71.5z" />
    <glyph glyph-name="multiply" unicode="&#xd7;" horiz-adv-x="618" 
d="M151 135q-4 0 -8 4l-16 16q-1 2 -2 3.5t-1 3.5q0 4 4 8l163 163l-158 158q-4 4 -4 8q0 2 1 3.5t2 3.5l16 16q4 4 8 4t9 -5l156 -158l156 158q5 5 9 5t8 -4l16 -16q2 -2 2.5 -3.5t0.5 -3.5q0 -4 -4 -8l-158 -158l163 -163q4 -4 4 -8q0 -2 -0.5 -3.5t-2.5 -3.5l-16 -16
q-4 -4 -8 -4t-9 5l-161 163l-161 -163q-5 -5 -9 -5z" />
    <glyph glyph-name="Oslash" unicode="&#xd8;" horiz-adv-x="728" 
d="M364 -17q-136 0 -222 63l-43 -49q-6 -8 -12 -8q-5 0 -10 4l-14 12q-8 6 -8 12q0 4 5 9l46 52q-85 91 -85 255q0 167 89.5 258t253.5 91q141 0 226 -67l42 47q6 8 12 8q5 0 10 -4l13 -10q8 -6 8 -12q0 -4 -5 -9l-45 -52q82 -91 82 -250q0 -167 -89.5 -258.5t-253.5 -91.5z
M364 34q19 0 19 27v263l-38 -72v-191q0 -27 19 -27zM345 345l38 71v188q0 27 -19 27t-19 -27v-259z" />
    <glyph glyph-name="Ugrave" unicode="&#xd9;" horiz-adv-x="703" 
d="M304 665q18 0 25.5 -8t7.5 -27v-569q0 -27 19 -27t19 27v569q0 19 7.5 27t25.5 8h221q18 0 26 -7.5t8 -24.5v-359q0 -144 -77.5 -217.5t-229.5 -73.5q-151 0 -229 73.5t-78 217.5v277q0 25 -4 36.5t-14 21t-34 25.5q-5 3 -5 9v12q0 10 12 10h300zM390 713
q-56 0 -105.5 24t-80 66.5t-30.5 95.5q0 45 28.5 73.5t72.5 28.5q52 0 82.5 -29t30.5 -79q0 -23 -3.5 -44t-3.5 -41q0 -52 54 -52q17 0 35 9l6 3q6 3 9 3q5 0 8 -5l5 -9q3 -6 3 -9q0 -7 -11 -13q-15 -9 -45.5 -15.5t-54.5 -6.5z" />
    <glyph glyph-name="Uacute" unicode="&#xda;" horiz-adv-x="703" 
d="M304 665q18 0 25.5 -8t7.5 -27v-569q0 -27 19 -27t19 27v569q0 19 7.5 27t25.5 8h221q18 0 26 -7.5t8 -24.5v-359q0 -144 -77.5 -217.5t-229.5 -73.5q-151 0 -229 73.5t-78 217.5v277q0 25 -4 36.5t-14 21t-34 25.5q-5 3 -5 9v12q0 10 12 10h300zM305 713
q-24 0 -54.5 6.5t-45.5 15.5q-11 6 -11 13q0 3 3 9l5 9q3 5 8 5q3 0 9 -3l6 -3q18 -9 35 -9q54 0 54 52q0 20 -3.5 41t-3.5 44q0 50 30.5 79t82.5 29q44 0 72.5 -28.5t28.5 -73.5q0 -50 -28 -92t-78 -68t-110 -26z" />
    <glyph glyph-name="Ucircumflex" unicode="&#xdb;" horiz-adv-x="703" 
d="M304 665q18 0 25.5 -8t7.5 -27v-569q0 -27 19 -27t19 27v569q0 19 7.5 27t25.5 8h221q18 0 26 -7.5t8 -24.5v-359q0 -144 -77.5 -217.5t-229.5 -73.5q-151 0 -229 73.5t-78 217.5v277q0 25 -4 36.5t-14 21t-34 25.5q-5 3 -5 9v12q0 10 12 10h300zM442 957q16 0 23 -4.5
t10 -17.5q18 -74 48.5 -126t68.5 -74l10 -5q7 -3 7 -9q0 -2 -2 -10l-2 -7q-2 -8 -11 -8q-27 0 -71 17.5t-93.5 48.5t-83.5 64q-30 -29 -76.5 -59t-94 -50.5t-77.5 -20.5q-9 0 -11 8l-2 7q-2 8 -2 10q0 6 7 9l10 5q38 22 68.5 74t48.5 126q3 13 10 17.5t23 4.5h192z" />
    <glyph glyph-name="Udieresis" unicode="&#xdc;" horiz-adv-x="703" 
d="M304 665q18 0 25.5 -8t7.5 -27v-569q0 -27 19 -27t19 27v569q0 19 7.5 27t25.5 8h221q18 0 26 -7.5t8 -24.5v-359q0 -144 -77.5 -217.5t-229.5 -73.5q-151 0 -229 73.5t-78 217.5v277q0 25 -4 36.5t-14 21t-34 25.5q-5 3 -5 9v12q0 10 12 10h300zM108 813q0 43 32.5 71.5
t84.5 28.5t84.5 -28.5t32.5 -71.5t-32.5 -71.5t-84.5 -28.5t-84.5 28.5t-32.5 71.5zM372 813q0 43 32.5 71.5t84.5 28.5t84.5 -28.5t32.5 -71.5t-32.5 -71.5t-84.5 -28.5t-84.5 28.5t-32.5 71.5z" />
    <glyph glyph-name="Yacute" unicode="&#xdd;" horiz-adv-x="778" 
d="M43 582q-6 16 -16.5 26.5t-35.5 25.5q-5 3 -5 9v12q0 10 12 10h225q47 0 78 -13.5t51 -42t32 -74.5l86 -325q5 -5 15 -5q6 0 11 4.5t5 11.5q0 8 -4 21l-79 308q-5 18 -14 39t-18 33t-11 16t-2 10v7q0 10 13 10h323q20 0 30.5 -9.5t10.5 -26.5q0 -25 -23 -100t-102 -302
q-13 -39 -33.5 -53t-56.5 -14v-125q0 -19 -7.5 -27t-25.5 -8h-202q-18 0 -25.5 8t-7.5 27v125q-26 0 -41.5 5t-25 15.5t-18.5 34.5zM338 713q-24 0 -54.5 6.5t-45.5 15.5q-11 6 -11 13q0 3 3 9l5 9q3 5 8 5q3 0 9 -3l6 -3q18 -9 35 -9q54 0 54 52q0 20 -3.5 41t-3.5 44
q0 50 30.5 79t82.5 29q44 0 72.5 -28.5t28.5 -73.5q0 -50 -28 -92t-78 -68t-110 -26z" />
    <glyph glyph-name="Thorn" unicode="&#xde;" horiz-adv-x="681" 
d="M62 552q0 32 -8 45.5t-44 36.5q-5 3 -5 9v12q0 10 12 10h280q18 0 25.5 -8t7.5 -27v-72q38 12 85 12q118 0 180 -59t62 -172q0 -118 -62 -179.5t-180 -61.5q-47 0 -85 12v-75q0 -19 -7.5 -27t-25.5 -8h-202q-18 0 -25.5 8t-7.5 27v517zM330 166q6 -8 17 -8q9 0 14 7t5 18
v309q0 11 -5 18t-14 7q-11 0 -17 -8v-343z" />
    <glyph glyph-name="germandbls" unicode="&#xdf;" horiz-adv-x="711" 
d="M325 192q0 14 11 14h4q10 0 22 -10l187 -132q8 0 13.5 5t5.5 11q0 9 -10 15l-106 75q-54 38 -80.5 70.5t-37 70.5t-10.5 94q0 94 31 162.5t89 102.5q2 2 2.5 4.5t0.5 4.5q0 14 -15 14q-22 0 -56.5 -36t-53.5 -78q-30 -69 -30 -166v-381q0 -17 -7.5 -24.5t-26.5 -7.5h-180
q-19 0 -26.5 7.5t-7.5 24.5v360q0 171 90.5 264t257.5 93q62 0 113.5 -20t82.5 -57t31 -84q0 -52 -33 -84t-87 -32q-31 0 -61 13t-48 35q-7 0 -12 -5t-5 -14q0 -22 45 -45l94 -47q94 -47 138.5 -102.5t44.5 -124.5q0 -89 -56.5 -140.5t-154.5 -51.5q-47 0 -88 9t-60 23
q-11 8 -11 29v141z" />
    <glyph glyph-name="agrave" unicode="&#xe0;" horiz-adv-x="611" 
d="M288 204q-6 8 -16 8q-17 0 -17 -20v-64q0 -20 17 -20q10 0 16 8v88zM449 -12q-101 0 -144 83q-23 -43 -56.5 -63t-82.5 -20q-69 0 -111 34t-42 90q0 49 34.5 77.5t106.5 38.5q184 24 184 139q0 46 -32 79.5t-76 33.5q-21 0 -21 -14q0 -5 3 -10q42 0 69 -25t27 -64
q0 -46 -38.5 -76t-98.5 -30q-61 0 -97 30.5t-36 80.5q0 67 65 107.5t172 40.5q128 0 194.5 -62t66.5 -182v-125q0 -17 3 -23t10 -6q9 0 13 8t7 31q2 17 4 20.5t8 3.5h17q6 0 8.5 -7t2.5 -23q0 -80 -41.5 -123.5t-118.5 -43.5zM238 829q48 0 77.5 -28.5t30.5 -75.5
q0 -16 -1.5 -28t-3.5 -23.5t-2 -24.5q0 -24 10 -37.5t28 -13.5q16 0 32 9l4 2q6 3 9 3q4 0 7 -4l6 -10q3 -4 3 -8q0 -6 -11 -12q-34 -21 -84 -21q-53 0 -99 22t-75 62.5t-30 89.5q0 44 27.5 71t71.5 27z" />
    <glyph glyph-name="aacute" unicode="&#xe1;" horiz-adv-x="611" 
d="M288 204q-6 8 -16 8q-17 0 -17 -20v-64q0 -20 17 -20q10 0 16 8v88zM449 -12q-101 0 -144 83q-23 -43 -56.5 -63t-82.5 -20q-69 0 -111 34t-42 90q0 49 34.5 77.5t106.5 38.5q184 24 184 139q0 46 -32 79.5t-76 33.5q-21 0 -21 -14q0 -5 3 -10q42 0 69 -25t27 -64
q0 -46 -38.5 -76t-98.5 -30q-61 0 -97 30.5t-36 80.5q0 67 65 107.5t172 40.5q128 0 194.5 -62t66.5 -182v-125q0 -17 3 -23t10 -6q9 0 13 8t7 31q2 17 4 20.5t8 3.5h17q6 0 8.5 -7t2.5 -23q0 -80 -41.5 -123.5t-118.5 -43.5zM358 829q44 0 71.5 -27t27.5 -71
q0 -45 -26.5 -84.5t-73.5 -64.5t-104 -25q-50 0 -84 21q-11 6 -11 12q0 4 3 8l6 10q3 4 7 4q3 0 9 -3l4 -2q16 -9 32 -9q18 0 28 13.5t10 37.5q0 13 -1.5 24.5t-3.5 23.5t-2 28q1 47 30.5 75.5t77.5 28.5z" />
    <glyph glyph-name="acircumflex" unicode="&#xe2;" horiz-adv-x="611" 
d="M288 204q-6 8 -16 8q-17 0 -17 -20v-64q0 -20 17 -20q10 0 16 8v88zM449 -12q-101 0 -144 83q-23 -43 -56.5 -63t-82.5 -20q-69 0 -111 34t-42 90q0 49 34.5 77.5t106.5 38.5q184 24 184 139q0 46 -32 79.5t-76 33.5q-21 0 -21 -14q0 -5 3 -10q42 0 69 -25t27 -64
q0 -46 -38.5 -76t-98.5 -30q-61 0 -97 30.5t-36 80.5q0 67 65 107.5t172 40.5q128 0 194.5 -62t66.5 -182v-125q0 -17 3 -23t10 -6q9 0 13 8t7 31q2 17 4 20.5t8 3.5h17q6 0 8.5 -7t2.5 -23q0 -80 -41.5 -123.5t-118.5 -43.5zM367 781q16 0 23 -4.5t10 -17.5
q17 -68 46.5 -116.5t66.5 -68.5l10 -5q7 -3 7 -9q0 -2 -2 -10l-2 -7q-2 -8 -11 -8q-41 0 -112 37.5t-115 82.5q-44 -45 -115 -82.5t-112 -37.5q-9 0 -11 8l-2 7q-2 8 -2 10q0 6 7 9l10 5q37 20 66.5 68.5t46.5 116.5q3 13 10 17.5t23 4.5h158z" />
    <glyph glyph-name="atilde" unicode="&#xe3;" horiz-adv-x="611" 
d="M288 204q-6 8 -16 8q-17 0 -17 -20v-64q0 -20 17 -20q10 0 16 8v88zM449 -12q-101 0 -144 83q-23 -43 -56.5 -63t-82.5 -20q-69 0 -111 34t-42 90q0 49 34.5 77.5t106.5 38.5q184 24 184 139q0 46 -32 79.5t-76 33.5q-21 0 -21 -14q0 -5 3 -10q42 0 69 -25t27 -64
q0 -46 -38.5 -76t-98.5 -30q-61 0 -97 30.5t-36 80.5q0 67 65 107.5t172 40.5q128 0 194.5 -62t66.5 -182v-125q0 -17 3 -23t10 -6q9 0 13 8t7 31q2 17 4 20.5t8 3.5h17q6 0 8.5 -7t2.5 -23q0 -80 -41.5 -123.5t-118.5 -43.5zM502 665q0 -48 -34.5 -81.5t-85.5 -33.5
q-27 0 -53.5 9.5t-59.5 31.5q-55 36 -70.5 43.5t-27.5 7.5q-8 0 -14 -4.5t-6 -11.5q0 -17 27 -28q10 -4 13 -6t3 -6q0 -3 -2 -7l-2 -5q-4 -10 -10 -10q-4 0 -14 3q-42 12 -66 40t-24 65q0 48 34.5 81.5t85.5 33.5q24 0 49.5 -9t63.5 -32q32 -19 50 -30t28.5 -16t19.5 -5
q8 0 14 4.5t6 11.5q0 18 -27 28q-10 4 -13 6t-3 6q0 3 2 7l2 5q4 10 10 10q4 0 14 -3q42 -12 66 -40t24 -65z" />
    <glyph glyph-name="adieresis" unicode="&#xe4;" horiz-adv-x="611" 
d="M288 204q-6 8 -16 8q-17 0 -17 -20v-64q0 -20 17 -20q10 0 16 8v88zM449 -12q-101 0 -144 83q-23 -43 -56.5 -63t-82.5 -20q-69 0 -111 34t-42 90q0 49 34.5 77.5t106.5 38.5q184 24 184 139q0 46 -32 79.5t-76 33.5q-21 0 -21 -14q0 -5 3 -10q42 0 69 -25t27 -64
q0 -46 -38.5 -76t-98.5 -30q-61 0 -97 30.5t-36 80.5q0 67 65 107.5t172 40.5q128 0 194.5 -62t66.5 -182v-125q0 -17 3 -23t10 -6q9 0 13 8t7 31q2 17 4 20.5t8 3.5h17q6 0 8.5 -7t2.5 -23q0 -80 -41.5 -123.5t-118.5 -43.5zM38 649q0 42 32 70t83 28t83 -28t32 -70
t-32 -70t-83 -28t-83 28t-32 70zM296 649q0 42 32 70t83 28t83 -28t32 -70t-32 -70t-83 -28t-83 28t-32 70z" />
    <glyph glyph-name="aring" unicode="&#xe5;" horiz-adv-x="611" 
d="M288 204q-6 8 -16 8q-17 0 -17 -20v-64q0 -20 17 -20q10 0 16 8v88zM449 -12q-101 0 -144 83q-23 -43 -56.5 -63t-82.5 -20q-69 0 -111 34t-42 90q0 49 34.5 77.5t106.5 38.5q184 24 184 139q0 46 -32 79.5t-76 33.5q-21 0 -21 -14q0 -5 3 -10q42 0 69 -25t27 -64
q0 -46 -38.5 -76t-98.5 -30q-61 0 -97 30.5t-36 80.5q0 67 65 107.5t172 40.5q128 0 194.5 -62t66.5 -182v-125q0 -17 3 -23t10 -6q9 0 13 8t7 31q2 17 4 20.5t8 3.5h17q6 0 8.5 -7t2.5 -23q0 -80 -41.5 -123.5t-118.5 -43.5zM258 674q0 -16 9.5 -26t24.5 -10t24 10t9 26
t-9 25.5t-24 9.5t-24.5 -9.5t-9.5 -25.5zM166 674q0 33 16 61t45 45.5t65 17.5q34 0 62.5 -16t46 -44.5t17.5 -63.5q0 -33 -16 -61t-45 -45.5t-65 -17.5q-34 0 -62.5 16t-46 44.5t-17.5 63.5z" />
    <glyph glyph-name="ae" unicode="&#xe6;" horiz-adv-x="898" 
d="M288 204q-6 8 -16 8q-17 0 -17 -20v-127q0 -20 17 -20q10 0 16 8v151zM434 71q-32 -37 -96.5 -60.5t-140.5 -23.5q-89 0 -136.5 32.5t-47.5 92.5q0 49 34.5 77.5t106.5 38.5q184 24 184 139q0 46 -32 79.5t-76 33.5q-21 0 -21 -14q0 -5 3 -10q42 0 69 -25t27 -64
q0 -46 -38.5 -76t-98.5 -30q-61 0 -97 30.5t-36 80.5q0 67 64.5 107.5t170.5 40.5q53 0 99 -15.5t78 -43.5q36 28 83.5 43.5t96.5 15.5q67 0 120.5 -21t84.5 -60t31 -90q0 -65 -47 -107.5t-119 -42.5t-117 48q-6 0 -10.5 -4.5t-4.5 -11.5q0 -23 39 -42.5t87 -19.5
q95 0 156 64q6 6 8.5 7.5t7.5 1.5h12q7 0 9.5 -5t2.5 -18q0 -63 -32.5 -115t-92 -84t-130.5 -32q-123 0 -201 83zM598 300q6 -8 16 -8q18 0 18 20v142q0 20 -18 20q-10 0 -16 -8v-166z" />
    <glyph glyph-name="ccedilla" unicode="&#xe7;" horiz-adv-x="574" 
d="M323 -290q-71 0 -118.5 46t-47.5 113v11q0 11 2.5 15.5t8.5 4.5h16q4 0 5.5 -2t4.5 -10q10 -27 33 -43t52 -16q28 0 48 16.5t20 38.5q0 7 -3 11.5t-8 4.5q-26 -41 -57 -41q-22 0 -36 13t-14 34q0 20 13 39l31 44q-73 4 -130.5 37.5t-90.5 92t-33 133.5q0 76 36 136.5
t103.5 96t155.5 35.5q63 0 112.5 -18.5t78.5 -53t29 -79.5q0 -55 -38.5 -91.5t-98.5 -36.5q-56 0 -94.5 36.5t-38.5 89.5q0 39 27 64t69 25q3 5 3 10q0 14 -21 14q-44 0 -76 -33.5t-32 -80.5q0 -42 20 -77t56.5 -56.5t82.5 -21.5q41 0 72.5 13.5t62.5 45.5q6 6 8.5 7.5
t7.5 1.5h13q11 0 11 -20q0 -71 -31 -130t-88.5 -96.5t-132.5 -43.5l-41 -60q-9 -14 -9 -22q0 -13 13 -13q10 0 21 17l6 9q12 19 30.5 29.5t40.5 10.5q40 0 67 -33t27 -80q0 -58 -42.5 -97.5t-105.5 -39.5z" />
    <glyph glyph-name="egrave" unicode="&#xe8;" horiz-adv-x="581" 
d="M251 231q0 -23 39 -42.5t87 -19.5q95 0 156 64q6 6 8.5 7.5t7.5 1.5h12q7 0 9.5 -5t2.5 -18q0 -62 -33.5 -114.5t-95 -84.5t-137.5 -32q-81 0 -146 33t-103.5 94t-38.5 139q0 77 36 137t102.5 94.5t155.5 34.5q67 0 120.5 -21t84.5 -60t31 -90q0 -65 -47 -107.5
t-119 -42.5t-117 48q-6 0 -10.5 -4.5t-4.5 -11.5zM281 300q6 -8 16 -8q18 0 18 20v142q0 20 -18 20q-10 0 -16 -8v-166zM247 829q48 0 77.5 -28.5t30.5 -75.5q0 -16 -1.5 -28t-3.5 -23.5t-2 -24.5q0 -24 10 -37.5t28 -13.5q16 0 32 9l4 2q6 3 9 3q4 0 7 -4l6 -10q3 -4 3 -8
q0 -6 -11 -12q-34 -21 -84 -21q-53 0 -99 22t-75 62.5t-30 89.5q0 44 27.5 71t71.5 27z" />
    <glyph glyph-name="eacute" unicode="&#xe9;" horiz-adv-x="581" 
d="M251 231q0 -23 39 -42.5t87 -19.5q95 0 156 64q6 6 8.5 7.5t7.5 1.5h12q7 0 9.5 -5t2.5 -18q0 -62 -33.5 -114.5t-95 -84.5t-137.5 -32q-81 0 -146 33t-103.5 94t-38.5 139q0 77 36 137t102.5 94.5t155.5 34.5q67 0 120.5 -21t84.5 -60t31 -90q0 -65 -47 -107.5
t-119 -42.5t-117 48q-6 0 -10.5 -4.5t-4.5 -11.5zM281 300q6 -8 16 -8q18 0 18 20v142q0 20 -18 20q-10 0 -16 -8v-166zM365 829q44 0 71.5 -27t27.5 -71q0 -45 -26.5 -84.5t-73.5 -64.5t-104 -25q-50 0 -84 21q-11 6 -11 12q0 4 3 8l6 10q3 4 7 4q3 0 9 -3l4 -2
q16 -9 32 -9q18 0 28 13.5t10 37.5q0 13 -1.5 24.5t-3.5 23.5t-2 28q1 47 30.5 75.5t77.5 28.5z" />
    <glyph glyph-name="ecircumflex" unicode="&#xea;" horiz-adv-x="581" 
d="M251 231q0 -23 39 -42.5t87 -19.5q95 0 156 64q6 6 8.5 7.5t7.5 1.5h12q7 0 9.5 -5t2.5 -18q0 -62 -33.5 -114.5t-95 -84.5t-137.5 -32q-81 0 -146 33t-103.5 94t-38.5 139q0 77 36 137t102.5 94.5t155.5 34.5q67 0 120.5 -21t84.5 -60t31 -90q0 -65 -47 -107.5
t-119 -42.5t-117 48q-6 0 -10.5 -4.5t-4.5 -11.5zM281 300q6 -8 16 -8q18 0 18 20v142q0 20 -18 20q-10 0 -16 -8v-166zM381 781q16 0 23 -4.5t10 -17.5q17 -68 46.5 -116.5t66.5 -68.5l10 -5q7 -3 7 -9q0 -2 -2 -10l-2 -7q-2 -8 -11 -8q-41 0 -112 37.5t-115 82.5
q-44 -45 -115 -82.5t-112 -37.5q-9 0 -11 8l-2 7q-2 8 -2 10q0 6 7 9l10 5q37 20 66.5 68.5t46.5 116.5q3 13 10 17.5t23 4.5h158z" />
    <glyph glyph-name="edieresis" unicode="&#xeb;" horiz-adv-x="581" 
d="M251 231q0 -23 39 -42.5t87 -19.5q95 0 156 64q6 6 8.5 7.5t7.5 1.5h12q7 0 9.5 -5t2.5 -18q0 -62 -33.5 -114.5t-95 -84.5t-137.5 -32q-81 0 -146 33t-103.5 94t-38.5 139q0 77 36 137t102.5 94.5t155.5 34.5q67 0 120.5 -21t84.5 -60t31 -90q0 -65 -47 -107.5
t-119 -42.5t-117 48q-6 0 -10.5 -4.5t-4.5 -11.5zM281 300q6 -8 16 -8q18 0 18 20v142q0 20 -18 20q-10 0 -16 -8v-166zM58 649q0 42 32 70t83 28t83 -28t32 -70t-32 -70t-83 -28t-83 28t-32 70zM316 649q0 42 32 70t83 28t83 -28t32 -70t-32 -70t-83 -28t-83 28t-32 70z
" />
    <glyph glyph-name="igrave" unicode="&#xec;" horiz-adv-x="367" 
d="M258 508q19 0 26.5 -7.5t7.5 -24.5v-325q0 -17 3 -23t10 -6q9 0 12.5 7t7.5 32q2 17 4 20.5t8 3.5h17q6 0 8.5 -7t2.5 -24q0 -80 -43 -123t-123 -43q-77 0 -118.5 43.5t-41.5 124.5v229q0 35 -10 53.5t-37 34.5q-7 4 -8.5 6.5t-1.5 6.5v12q0 10 12 10h264zM103 829
q48 0 77.5 -28.5t30.5 -75.5q0 -16 -1.5 -28t-3.5 -23.5t-2 -24.5q0 -24 10 -37.5t28 -13.5q16 0 32 9l4 2q6 3 9 3q4 0 7 -4l6 -10q3 -4 3 -8q0 -6 -11 -12q-34 -21 -84 -21q-53 0 -99 22t-75 62.5t-30 89.5q0 44 27.5 71t71.5 27z" />
    <glyph glyph-name="iacute" unicode="&#xed;" horiz-adv-x="367" 
d="M258 508q19 0 26.5 -7.5t7.5 -24.5v-325q0 -17 3 -23t10 -6q9 0 12.5 7t7.5 32q2 17 4 20.5t8 3.5h17q6 0 8.5 -7t2.5 -24q0 -80 -43 -123t-123 -43q-77 0 -118.5 43.5t-41.5 124.5v229q0 35 -10 53.5t-37 34.5q-7 4 -8.5 6.5t-1.5 6.5v12q0 10 12 10h264zM211 829
q44 0 71.5 -27t27.5 -71q0 -45 -26.5 -84.5t-73.5 -64.5t-104 -25q-50 0 -84 21q-11 6 -11 12q0 4 3 8l6 10q3 4 7 4q3 0 9 -3l4 -2q16 -9 32 -9q18 0 28 13.5t10 37.5q0 13 -1.5 24.5t-3.5 23.5t-2 28q1 47 30.5 75.5t77.5 28.5z" />
    <glyph glyph-name="icircumflex" unicode="&#xee;" horiz-adv-x="367" 
d="M258 508q19 0 26.5 -7.5t7.5 -24.5v-325q0 -17 3 -23t10 -6q9 0 12.5 7t7.5 32q2 17 4 20.5t8 3.5h17q6 0 8.5 -7t2.5 -24q0 -80 -43 -123t-123 -43q-77 0 -118.5 43.5t-41.5 124.5v229q0 35 -10 53.5t-37 34.5q-7 4 -8.5 6.5t-1.5 6.5v12q0 10 12 10h264zM212 781
q13 0 19 -4.5t8 -17.5q15 -79 37.5 -123.5t56.5 -61.5l10 -5q7 -3 7 -9q0 -2 -2 -10l-2 -7q-2 -8 -11 -8q-35 0 -93 37t-94 83q-36 -46 -94 -83t-93 -37q-9 0 -11 8l-2 7q-2 8 -2 10q0 6 7 9l10 5q34 17 56.5 61.5t37.5 123.5q2 13 8 17.5t19 4.5h128z" />
    <glyph glyph-name="idieresis" unicode="&#xef;" horiz-adv-x="367" 
d="M258 508q19 0 26.5 -7.5t7.5 -24.5v-325q0 -17 3 -23t10 -6q9 0 12.5 7t7.5 32q2 17 4 20.5t8 3.5h17q6 0 8.5 -7t2.5 -24q0 -80 -43 -123t-123 -43q-77 0 -118.5 43.5t-41.5 124.5v229q0 35 -10 53.5t-37 34.5q-7 4 -8.5 6.5t-1.5 6.5v12q0 10 12 10h264zM135 649
q0 -35 -23.5 -57.5t-60.5 -22.5t-60.5 22.5t-23.5 57.5t23.5 57.5t60.5 22.5t60.5 -22.5t23.5 -57.5zM325 649q0 -35 -23.5 -57.5t-60.5 -22.5t-60.5 22.5t-23.5 57.5t23.5 57.5t60.5 22.5t60.5 -22.5t23.5 -57.5z" />
    <glyph glyph-name="eth" unicode="&#xf0;" horiz-adv-x="594" 
d="M140 724q0 10 12 10q129 0 224 -52l95 49q6 3 9 3q6 0 8 -5l7 -12q3 -6 3 -9q0 -5 -7 -9l-77 -41q78 -56 119 -147t41 -208q0 -147 -74.5 -231t-204.5 -84q-78 0 -140.5 33.5t-99 95.5t-36.5 143q0 118 65 184t180 66q33 0 56 -7q-2 57 -24 96l-108 -57q-10 -5 -15 -5
q-6 0 -10 6l-4 7q-4 7 -4 11q0 7 11 13l107 57q-41 47 -126 67q-8 1 -8 10zM296 34q18 0 18 27v367q0 27 -18 27t-18 -27v-367q0 -27 18 -27z" />
    <glyph glyph-name="ntilde" unicode="&#xf1;" horiz-adv-x="614" 
d="M156 508q49 0 78.5 -17.5t40.5 -54.5q23 41 62.5 62.5t89.5 21.5q72 0 110 -43t38 -122v-323q0 -17 -7.5 -24.5t-26.5 -7.5h-180q-19 0 -26.5 7.5t-7.5 24.5v344q0 11 -5 18t-14 7q-12 0 -17 -8v-361q0 -17 -7.5 -24.5t-26.5 -7.5h-180q-19 0 -26.5 7.5t-7.5 24.5v353
q0 35 -10 53.5t-37 34.5q-7 4 -8.5 6.5t-1.5 6.5v12q0 10 12 10h158zM495 665q0 -48 -34.5 -81.5t-85.5 -33.5q-27 0 -53.5 9.5t-59.5 31.5q-55 36 -70.5 43.5t-27.5 7.5q-8 0 -14 -4.5t-6 -11.5q0 -17 27 -28q10 -4 13 -6t3 -6q0 -3 -2 -7l-2 -5q-4 -10 -10 -10q-4 0 -14 3
q-42 12 -66 40t-24 65q0 48 34.5 81.5t85.5 33.5q24 0 49.5 -9t63.5 -32q32 -19 50 -30t28.5 -16t19.5 -5q8 0 14 4.5t6 11.5q0 18 -27 28q-10 4 -13 6t-3 6q0 3 2 7l2 5q4 10 10 10q4 0 14 -3q42 -12 66 -40t24 -65z" />
    <glyph glyph-name="ograve" unicode="&#xf2;" horiz-adv-x="614" 
d="M307 34q18 0 18 27v386q0 27 -18 27t-18 -27v-386q0 -27 18 -27zM307 -12q-141 0 -214.5 68t-73.5 198t73.5 198t214.5 68t214.5 -68t73.5 -198t-73.5 -198t-214.5 -68zM266 829q48 0 77.5 -28.5t30.5 -75.5q0 -16 -1.5 -28t-3.5 -23.5t-2 -24.5q0 -24 10 -37.5t28 -13.5
q16 0 32 9l4 2q6 3 9 3q4 0 7 -4l6 -10q3 -4 3 -8q0 -6 -11 -12q-34 -21 -84 -21q-53 0 -99 22t-75 62.5t-30 89.5q0 44 27.5 71t71.5 27z" />
    <glyph glyph-name="oacute" unicode="&#xf3;" horiz-adv-x="614" 
d="M307 34q18 0 18 27v386q0 27 -18 27t-18 -27v-386q0 -27 18 -27zM307 -12q-141 0 -214.5 68t-73.5 198t73.5 198t214.5 68t214.5 -68t73.5 -198t-73.5 -198t-214.5 -68zM358 829q44 0 71.5 -27t27.5 -71q0 -45 -26.5 -84.5t-73.5 -64.5t-104 -25q-50 0 -84 21
q-11 6 -11 12q0 4 3 8l6 10q3 4 7 4q3 0 9 -3l4 -2q16 -9 32 -9q18 0 28 13.5t10 37.5q0 13 -1.5 24.5t-3.5 23.5t-2 28q1 47 30.5 75.5t77.5 28.5z" />
    <glyph glyph-name="ocircumflex" unicode="&#xf4;" horiz-adv-x="614" 
d="M307 34q18 0 18 27v386q0 27 -18 27t-18 -27v-386q0 -27 18 -27zM307 -12q-141 0 -214.5 68t-73.5 198t73.5 198t214.5 68t214.5 -68t73.5 -198t-73.5 -198t-214.5 -68zM386 781q16 0 23 -4.5t10 -17.5q17 -68 46.5 -116.5t66.5 -68.5l10 -5q7 -3 7 -9q0 -2 -2 -10l-2 -7
q-2 -8 -11 -8q-41 0 -112 37.5t-115 82.5q-44 -45 -115 -82.5t-112 -37.5q-9 0 -11 8l-2 7q-2 8 -2 10q0 6 7 9l10 5q37 20 66.5 68.5t46.5 116.5q3 13 10 17.5t23 4.5h158z" />
    <glyph glyph-name="otilde" unicode="&#xf5;" horiz-adv-x="614" 
d="M307 34q18 0 18 27v386q0 27 -18 27t-18 -27v-386q0 -27 18 -27zM307 -12q-141 0 -214.5 68t-73.5 198t73.5 198t214.5 68t214.5 -68t73.5 -198t-73.5 -198t-214.5 -68zM517 665q0 -48 -34.5 -81.5t-85.5 -33.5q-27 0 -53.5 9.5t-59.5 31.5q-55 36 -70.5 43.5t-27.5 7.5
q-8 0 -14 -4.5t-6 -11.5q0 -17 27 -28q10 -4 13 -6t3 -6q0 -3 -2 -7l-2 -5q-4 -10 -10 -10q-4 0 -14 3q-42 12 -66 40t-24 65q0 48 34.5 81.5t85.5 33.5q24 0 49.5 -9t63.5 -32q32 -19 50 -30t28.5 -16t19.5 -5q8 0 14 4.5t6 11.5q0 18 -27 28q-10 4 -13 6t-3 6q0 3 2 7l2 5
q4 10 10 10q4 0 14 -3q42 -12 66 -40t24 -65z" />
    <glyph glyph-name="odieresis" unicode="&#xf6;" horiz-adv-x="614" 
d="M307 34q18 0 18 27v386q0 27 -18 27t-18 -27v-386q0 -27 18 -27zM307 -12q-141 0 -214.5 68t-73.5 198t73.5 198t214.5 68t214.5 -68t73.5 -198t-73.5 -198t-214.5 -68zM65 649q0 42 32 70t83 28t83 -28t32 -70t-32 -70t-83 -28t-83 28t-32 70zM323 649q0 42 32 70t83 28
t83 -28t32 -70t-32 -70t-83 -28t-83 28t-32 70z" />
    <glyph glyph-name="divide" unicode="&#xf7;" horiz-adv-x="618" 
d="M309 428q-23 0 -38 12.5t-15 31.5q0 18 15 31t38 13t38 -13t15 -31q0 -19 -15 -31.5t-38 -12.5zM98 311q-11 0 -11 10v25q0 10 11 10h422q11 0 11 -10v-25q0 -10 -11 -10h-422zM309 151q-23 0 -38 12.5t-15 31.5q0 18 15 31t38 13t38 -13t15 -31q0 -19 -15 -31.5
t-38 -12.5z" />
    <glyph glyph-name="oslash" unicode="&#xf8;" horiz-adv-x="614" 
d="M307 -12q-112 0 -181 42l-29 -33q-6 -8 -12 -8q-5 0 -10 4l-14 12q-8 6 -8 12q0 4 5 9l30 34q-69 66 -69 194q0 130 73.5 198t214.5 68q97 0 165 -34l36 40q6 8 12 8q5 0 10 -4l13 -10q8 -6 8 -12q0 -4 -5 -9l-34 -39q83 -69 83 -206q0 -130 -73.5 -198t-214.5 -68z
M307 34q18 0 18 27v193l-36 -67v-126q0 -27 18 -27zM289 274l36 67v106q0 27 -18 27t-18 -27v-173z" />
    <glyph glyph-name="ugrave" unicode="&#xf9;" horiz-adv-x="646" 
d="M253 508q19 0 26.5 -7.5t7.5 -24.5v-344q0 -11 5 -18t14 -7q12 0 17 8v361q0 17 7.5 24.5t26.5 7.5h180q18 0 26 -7.5t8 -24.5v-325q0 -17 3 -23t10 -6q9 0 13 8t7 31q2 17 4 20.5t8 3.5h17q6 0 8.5 -7t2.5 -23q0 -78 -43 -122.5t-119 -44.5q-47 0 -85 22t-58 62
q-22 -40 -62 -62t-90 -22q-72 0 -110 43t-38 122v232q0 35 -10 53.5t-37 34.5q-7 4 -8.5 6.5t-1.5 6.5v12q0 10 12 10h259zM256 829q48 0 77.5 -28.5t30.5 -75.5q0 -16 -1.5 -28t-3.5 -23.5t-2 -24.5q0 -24 10 -37.5t28 -13.5q16 0 32 9l4 2q6 3 9 3q4 0 7 -4l6 -10
q3 -4 3 -8q0 -6 -11 -12q-34 -21 -84 -21q-53 0 -99 22t-75 62.5t-30 89.5q0 44 27.5 71t71.5 27z" />
    <glyph glyph-name="uacute" unicode="&#xfa;" horiz-adv-x="646" 
d="M253 508q19 0 26.5 -7.5t7.5 -24.5v-344q0 -11 5 -18t14 -7q12 0 17 8v361q0 17 7.5 24.5t26.5 7.5h180q18 0 26 -7.5t8 -24.5v-325q0 -17 3 -23t10 -6q9 0 13 8t7 31q2 17 4 20.5t8 3.5h17q6 0 8.5 -7t2.5 -23q0 -78 -43 -122.5t-119 -44.5q-47 0 -85 22t-58 62
q-22 -40 -62 -62t-90 -22q-72 0 -110 43t-38 122v232q0 35 -10 53.5t-37 34.5q-7 4 -8.5 6.5t-1.5 6.5v12q0 10 12 10h259zM356 829q44 0 71.5 -27t27.5 -71q0 -45 -26.5 -84.5t-73.5 -64.5t-104 -25q-50 0 -84 21q-11 6 -11 12q0 4 3 8l6 10q3 4 7 4q3 0 9 -3l4 -2
q16 -9 32 -9q18 0 28 13.5t10 37.5q0 13 -1.5 24.5t-3.5 23.5t-2 28q1 47 30.5 75.5t77.5 28.5z" />
    <glyph glyph-name="ucircumflex" unicode="&#xfb;" horiz-adv-x="646" 
d="M253 508q19 0 26.5 -7.5t7.5 -24.5v-344q0 -11 5 -18t14 -7q12 0 17 8v361q0 17 7.5 24.5t26.5 7.5h180q18 0 26 -7.5t8 -24.5v-325q0 -17 3 -23t10 -6q9 0 13 8t7 31q2 17 4 20.5t8 3.5h17q6 0 8.5 -7t2.5 -23q0 -78 -43 -122.5t-119 -44.5q-47 0 -85 22t-58 62
q-22 -40 -62 -62t-90 -22q-72 0 -110 43t-38 122v232q0 35 -10 53.5t-37 34.5q-7 4 -8.5 6.5t-1.5 6.5v12q0 10 12 10h259zM366 781q16 0 23 -4.5t10 -17.5q17 -68 46.5 -116.5t66.5 -68.5l10 -5q7 -3 7 -9q0 -2 -2 -10l-2 -7q-2 -8 -11 -8q-41 0 -112 37.5t-115 82.5
q-44 -45 -115 -82.5t-112 -37.5q-9 0 -11 8l-2 7q-2 8 -2 10q0 6 7 9l10 5q37 20 66.5 68.5t46.5 116.5q3 13 10 17.5t23 4.5h158z" />
    <glyph glyph-name="udieresis" unicode="&#xfc;" horiz-adv-x="646" 
d="M253 508q19 0 26.5 -7.5t7.5 -24.5v-344q0 -11 5 -18t14 -7q12 0 17 8v361q0 17 7.5 24.5t26.5 7.5h180q18 0 26 -7.5t8 -24.5v-325q0 -17 3 -23t10 -6q9 0 13 8t7 31q2 17 4 20.5t8 3.5h17q6 0 8.5 -7t2.5 -23q0 -78 -43 -122.5t-119 -44.5q-47 0 -85 22t-58 62
q-22 -40 -62 -62t-90 -22q-72 0 -110 43t-38 122v232q0 35 -10 53.5t-37 34.5q-7 4 -8.5 6.5t-1.5 6.5v12q0 10 12 10h259zM58 649q0 42 32 70t83 28t83 -28t32 -70t-32 -70t-83 -28t-83 28t-32 70zM316 649q0 42 32 70t83 28t83 -28t32 -70t-32 -70t-83 -28t-83 28t-32 70z
" />
    <glyph glyph-name="yacute" unicode="&#xfd;" horiz-adv-x="683" 
d="M23 421q-6 17 -16.5 28t-31.5 24q-10 6 -10 13v12q0 10 12 10h156q68 0 100.5 -10.5t51 -36.5t35.5 -77l96 -290q5 -5 12 -5q15 0 15 17q0 10 -8 33l-90 275q-13 40 -23 52q-9 11 -11.5 14.5t-2.5 8.5v9q0 10 12 10h283q36 0 36 -26q0 -24 -51 -164t-139 -356
q-32 -79 -63 -122.5t-68.5 -62t-88.5 -18.5q-74 0 -119.5 33t-45.5 87q0 47 37 76t96 29q55 0 90 -26.5t35 -68.5q0 -32 -21.5 -49.5t-60.5 -17.5q-2 -4 -2 -9q0 -14 23 -14q39 0 65 26.5t26 66.5q0 47 -33 77.5t-96 41.5q-36 6 -47 16t-23 44zM378 829q44 0 71.5 -27
t27.5 -71q0 -45 -26.5 -84.5t-73.5 -64.5t-104 -25q-50 0 -84 21q-11 6 -11 12q0 4 3 8l6 10q3 4 7 4q3 0 9 -3l4 -2q16 -9 32 -9q18 0 28 13.5t10 37.5q0 13 -1.5 24.5t-3.5 23.5t-2 28q1 47 30.5 75.5t77.5 28.5z" />
    <glyph glyph-name="thorn" unicode="&#xfe;" horiz-adv-x="615" 
d="M291 464q43 56 119 56q88 0 137.5 -71.5t49.5 -198.5q0 -124 -50 -193t-140 -69q-75 0 -116 41v-208q0 -17 -7.5 -24.5t-26.5 -7.5h-180q-19 0 -26.5 7.5t-7.5 24.5v775q0 35 -10 53.5t-37 34.5q-7 4 -8.5 6.5t-1.5 6.5v12q0 10 12 10h259q19 0 26.5 -7.5t7.5 -24.5v-223
zM327 393q0 24 -19 24q-11 0 -17 -8v-325q6 -8 17 -8q19 0 19 24v293z" />
    <glyph glyph-name="ydieresis" unicode="&#xff;" horiz-adv-x="683" 
d="M23 421q-6 17 -16.5 28t-31.5 24q-10 6 -10 13v12q0 10 12 10h156q68 0 100.5 -10.5t51 -36.5t35.5 -77l96 -290q5 -5 12 -5q15 0 15 17q0 10 -8 33l-90 275q-13 40 -23 52q-9 11 -11.5 14.5t-2.5 8.5v9q0 10 12 10h283q36 0 36 -26q0 -24 -51 -164t-139 -356
q-32 -79 -63 -122.5t-68.5 -62t-88.5 -18.5q-74 0 -119.5 33t-45.5 87q0 47 37 76t96 29q55 0 90 -26.5t35 -68.5q0 -32 -21.5 -49.5t-60.5 -17.5q-2 -4 -2 -9q0 -14 23 -14q39 0 65 26.5t26 66.5q0 47 -33 77.5t-96 41.5q-36 6 -47 16t-23 44zM67 649q0 42 32 70t83 28
t83 -28t32 -70t-32 -70t-83 -28t-83 28t-32 70zM325 649q0 42 32 70t83 28t83 -28t32 -70t-32 -70t-83 -28t-83 28t-32 70z" />
    <glyph glyph-name="dotlessi" unicode="&#x131;" horiz-adv-x="367" 
d="M258 508q19 0 26.5 -7.5t7.5 -24.5v-325q0 -17 3 -23t10 -6q9 0 12.5 7t7.5 32q2 17 4 20.5t8 3.5h17q6 0 8.5 -7t2.5 -24q0 -80 -43 -123t-123 -43q-77 0 -118.5 43.5t-41.5 124.5v229q0 35 -10 53.5t-37 34.5q-7 4 -8.5 6.5t-1.5 6.5v12q0 10 12 10h264z" />
    <glyph glyph-name="OE" unicode="&#x152;" horiz-adv-x="984" 
d="M363 34q18 0 18 27v543q0 27 -18 27t-18 -27v-543q0 -27 18 -27zM489 0q-59 -17 -126 -17q-164 0 -253 91t-89 259q0 167 89 258t253 91q67 0 126 -17h430q18 0 25.5 -8t7.5 -27v-119q0 -63 -27 -93.5t-83 -30.5h-123q-19 0 -27 8t-8 27v173q0 22 -17 22q-12 0 -18 -8
v-252h190q12 0 12 -11v-26q0 -10 -12 -10h-190v-252q6 -8 18 -8q17 0 17 22v171q0 19 8 27t27 8h123q56 0 83 -30.5t27 -93.5v-119q0 -19 -7.5 -27t-25.5 -8h-430z" />
    <glyph glyph-name="oe" unicode="&#x153;" horiz-adv-x="912" 
d="M307 -12q-141 0 -214.5 68t-73.5 198t73.5 198t214.5 68q100 0 174 -54q70 54 174 54q63 0 114 -21t81 -60t30 -90q0 -65 -47 -107.5t-119 -42.5t-117 48q-6 0 -10.5 -4.5t-4.5 -11.5q0 -23 39.5 -42.5t86.5 -19.5q95 0 156 64q6 6 8.5 7.5t7.5 1.5h12q7 0 9.5 -5
t2.5 -18q0 -61 -32 -113.5t-90.5 -85t-131.5 -32.5q-101 0 -168 53q-33 -28 -75 -40.5t-100 -12.5zM307 34q18 0 18 27v386q0 27 -18 27t-18 -27v-386q0 -27 18 -27zM612 300q6 -8 16 -8q18 0 18 20v142q0 20 -18 20q-10 0 -16 -8v-166z" />
    <glyph glyph-name="Scaron" unicode="&#x160;" horiz-adv-x="652" 
d="M632 190q0 -100 -83 -153.5t-238 -53.5q-144 0 -218.5 43.5t-74.5 126.5q0 51 37 83.5t95 32.5q67 0 106.5 -29.5t39.5 -79.5q0 -38 -26 -60t-73 -24q-6 -6 -6 -13t6.5 -11t16.5 -4q50 0 83.5 32t33.5 80q0 39 -16 64.5t-51.5 45.5t-96.5 39q-69 21 -104 63t-35 103
q0 60 37.5 106.5t108 73.5t164.5 27q132 0 206.5 -45t74.5 -125q0 -51 -38.5 -83.5t-99.5 -32.5q-63 0 -101.5 30t-38.5 79q0 38 26 60t73 24q6 6 6 13t-6.5 11t-16.5 4q-32 0 -58.5 -14.5t-42.5 -40t-16 -57.5q0 -55 37 -88.5t127 -58.5q83 -23 122.5 -64t39.5 -104z
M319 858q35 34 124.5 72t134.5 38q5 0 7 -1.5t4 -6.5l2 -7q2 -8 2 -10q0 -6 -7 -9l-10 -5q-46 -26 -84.5 -77.5t-53.5 -107.5q-3 -13 -10 -17.5t-23 -4.5h-172q-16 0 -23 4.5t-10 17.5q-15 56 -53.5 107.5t-84.5 77.5l-10 5q-7 3 -7 9q0 2 2 10l2 7q2 5 4 6.5t7 1.5
q45 0 134.5 -38t124.5 -72z" />
    <glyph glyph-name="scaron" unicode="&#x161;" horiz-adv-x="562" 
d="M253 115q0 -26 -18 -43.5t-49 -19.5q-4 -6 -4 -11q0 -13 18 -13q32 0 57.5 27.5t25.5 63.5q0 41 -28 64.5t-97 39.5q-131 30 -131 128q0 78 75.5 123.5t204.5 45.5q106 0 165 -32.5t59 -90.5q0 -40 -31 -63.5t-86 -23.5q-54 0 -88 23t-34 60q0 26 18 43.5t49 19.5
q4 6 4 11q0 13 -18 13q-32 0 -57.5 -27.5t-25.5 -63.5q0 -41 30.5 -65t101.5 -39q84 -17 120 -47.5t36 -86.5q0 -79 -70.5 -121t-202.5 -42q-120 0 -191.5 34t-71.5 90q0 40 31.5 63t85.5 23t88 -23t34 -60zM200 562q-16 0 -23 4.5t-10 17.5q-14 56 -49.5 105t-77.5 70
l-10 5q-7 3 -7 9q0 2 2 10l2 7q2 5 4 6.5t7 1.5q45 0 122.5 -32.5t115.5 -67.5q38 35 115.5 67.5t122.5 32.5q5 0 7 -1.5t4 -6.5l2 -7q2 -8 2 -10q0 -6 -7 -9l-10 -5q-42 -21 -77.5 -70t-49.5 -105q-3 -13 -10 -17.5t-23 -4.5h-152z" />
    <glyph glyph-name="Ydieresis" unicode="&#x178;" horiz-adv-x="778" 
d="M43 582q-6 16 -16.5 26.5t-35.5 25.5q-5 3 -5 9v12q0 10 12 10h225q47 0 78 -13.5t51 -42t32 -74.5l86 -325q5 -5 15 -5q6 0 11 4.5t5 11.5q0 8 -4 21l-79 308q-5 18 -14 39t-18 33t-11 16t-2 10v7q0 10 13 10h323q20 0 30.5 -9.5t10.5 -26.5q0 -25 -23 -100t-102 -302
q-13 -39 -33.5 -53t-56.5 -14v-125q0 -19 -7.5 -27t-25.5 -8h-202q-18 0 -25.5 8t-7.5 27v125q-26 0 -41.5 5t-25 15.5t-18.5 34.5zM135 813q0 43 32.5 71.5t84.5 28.5t84.5 -28.5t32.5 -71.5t-32.5 -71.5t-84.5 -28.5t-84.5 28.5t-32.5 71.5zM399 813q0 43 32.5 71.5
t84.5 28.5t84.5 -28.5t32.5 -71.5t-32.5 -71.5t-84.5 -28.5t-84.5 28.5t-32.5 71.5z" />
    <glyph glyph-name="Zcaron" unicode="&#x17d;" horiz-adv-x="670" 
d="M652 35q0 -19 -7.5 -27t-25.5 -8h-565q-40 0 -40 34q0 19 17 46l320 524q-3 6 -9 9.5t-12 3.5q-8 0 -13.5 -5.5t-16.5 -23.5l-148 -243q-9 -15 -16 -20t-18 -5h-38q-28 0 -40 14t-12 44v252q0 19 7.5 27t25.5 8h535q40 0 40 -34q0 -15 -17 -46l-290 -524q7 -13 21 -13
q9 0 15 6t15 23l134 243q8 14 15 19.5t19 5.5h52q28 0 40 -14t12 -44v-252zM327 858q35 34 124.5 72t134.5 38q5 0 7 -1.5t4 -6.5l2 -7q2 -8 2 -10q0 -6 -7 -9l-10 -5q-46 -26 -84.5 -77.5t-53.5 -107.5q-3 -13 -10 -17.5t-23 -4.5h-172q-16 0 -23 4.5t-10 17.5
q-15 56 -53.5 107.5t-84.5 77.5l-10 5q-7 3 -7 9q0 2 2 10l2 7q2 5 4 6.5t7 1.5q45 0 134.5 -38t124.5 -72z" />
    <glyph glyph-name="zcaron" unicode="&#x17e;" horiz-adv-x="568" 
d="M274 55q8 -9 19 -9q8 0 13.5 4.5t12.5 16.5l112 182q10 15 27 15h30q28 -1 40 -14.5t12 -43.5v-174q0 -18 -8 -25t-28 -7h-451q-18 0 -26.5 6.5t-8.5 21.5q0 14 10 29l257 391q-8 9 -19 9q-6 0 -11.5 -4t-15.5 -18l-115 -176q-10 -15 -27 -15h-24q-28 1 -40 14.5
t-12 43.5v174q0 18 8 25t28 7h435q35 0 35 -25q0 -15 -11 -33zM199 562q-16 0 -23 4.5t-10 17.5q-14 56 -49.5 105t-77.5 70l-10 5q-7 3 -7 9q0 2 2 10l2 7q2 5 4 6.5t7 1.5q45 0 122.5 -32.5t115.5 -67.5q38 35 115.5 67.5t122.5 32.5q5 0 7 -1.5t4 -6.5l2 -7q2 -8 2 -10
q0 -6 -7 -9l-10 -5q-42 -21 -77.5 -70t-49.5 -105q-3 -13 -10 -17.5t-23 -4.5h-152z" />
    <glyph glyph-name="florin" unicode="&#x192;" horiz-adv-x="346" 
d="M44 470h-67q-12 0 -12 10v18q0 10 12 10h67v49q0 87 61 139.5t162 52.5q80 0 130 -33t50 -86q0 -45 -36.5 -71t-98.5 -26q-59 0 -92 23t-33 63q0 30 22 48.5t60 18.5q2 2 2.5 5t0.5 5q0 14 -21 14q-39 0 -66.5 -27.5t-27.5 -66.5q0 -73 90 -108h136q12 0 12 -10v-18
q0 -10 -12 -10h-100q11 -9 15 -18.5t4 -28.5v-472q0 -87 -61 -139.5t-162 -52.5q-80 0 -130 33t-50 86q0 47 37.5 76t97.5 29q56 0 90.5 -26t34.5 -68q0 -30 -22 -48.5t-60 -18.5q-1 -2 -1.5 -4t-0.5 -4q0 -7 6.5 -11.5t17.5 -4.5q37 0 63.5 27.5t26.5 66.5q0 42 -28 68.5
t-94 48.5q-13 4 -18 14t-5 34v413z" />
    <glyph glyph-name="uni0237" unicode="&#x237;" horiz-adv-x="336" 
d="M39 385q0 35 -10 53.5t-37 34.5q-7 4 -8.5 6.5t-1.5 6.5v12q0 10 12 10h264q19 0 26.5 -7.5t7.5 -24.5v-525q0 -87 -61 -139.5t-162 -52.5q-80 0 -130 33t-50 86q0 47 37.5 76t97.5 29q56 0 90.5 -26t34.5 -68q0 -30 -22 -48.5t-60 -18.5q-1 -2 -1.5 -4t-0.5 -4
q0 -7 6.5 -11.5t17.5 -4.5q37 0 63.5 27.5t26.5 66.5q-1 44 -28 72t-85 46q-15 5 -21 14.5t-6 28.5v332z" />
    <glyph glyph-name="circumflex" unicode="&#x2c6;" horiz-adv-x="600" 
d="M368 781q16 0 23 -4.5t10 -17.5q17 -68 46.5 -116.5t66.5 -68.5l10 -5q7 -3 7 -9q0 -2 -2 -10l-2 -7q-2 -8 -11 -8q-41 0 -112 37.5t-115 82.5q-44 -45 -115 -82.5t-112 -37.5q-9 0 -11 8l-2 7q-2 8 -2 10q0 6 7 9l10 5q37 20 66.5 68.5t46.5 116.5q3 13 10 17.5t23 4.5
h158z" />
    <glyph glyph-name="tilde" unicode="&#x2dc;" horiz-adv-x="600" 
d="M497 665q0 -48 -34.5 -81.5t-85.5 -33.5q-27 0 -53.5 9.5t-59.5 31.5q-55 36 -70.5 43.5t-27.5 7.5q-8 0 -14 -4.5t-6 -11.5q0 -17 27 -28q10 -4 13 -6t3 -6q0 -3 -2 -7l-2 -5q-4 -10 -10 -10q-4 0 -14 3q-42 12 -66 40t-24 65q0 48 34.5 81.5t85.5 33.5q24 0 49.5 -9
t63.5 -32q32 -19 50 -30t28.5 -16t19.5 -5q8 0 14 4.5t6 11.5q0 18 -27 28q-10 4 -13 6t-3 6q0 3 2 7l2 5q4 10 10 10q4 0 14 -3q42 -12 66 -40t24 -65z" />
    <glyph glyph-name="gravecomb" unicode="&#x300;" 
d="M-50 829q48 0 77.5 -28.5t30.5 -75.5q0 -16 -1.5 -28t-3.5 -23.5t-2 -24.5q0 -24 10 -37.5t28 -13.5q16 0 32 9l4 2q6 3 9 3q4 0 7 -4l6 -10q3 -4 3 -8q0 -6 -11 -12q-34 -21 -84 -21q-53 0 -99 22t-75 62.5t-30 89.5q0 44 27.5 71t71.5 27z" />
    <glyph glyph-name="acutecomb" unicode="&#x301;" 
d="M51 829q44 0 71.5 -27t27.5 -71q0 -45 -26.5 -84.5t-73.5 -64.5t-104 -25q-50 0 -84 21q-11 6 -11 12q0 4 3 8l6 10q3 4 7 4q3 0 9 -3l4 -2q16 -9 32 -9q18 0 28 13.5t10 37.5q0 13 -1.5 24.5t-3.5 23.5t-2 28q1 47 30.5 75.5t77.5 28.5z" />
    <glyph glyph-name="uni0302" unicode="&#x302;" 
d="M79 781q16 0 23 -4.5t10 -17.5q17 -68 46.5 -116.5t66.5 -68.5l10 -5q7 -3 7 -9q0 -2 -2 -10l-2 -7q-2 -8 -11 -8q-41 0 -112 37.5t-115 82.5q-44 -45 -115 -82.5t-112 -37.5q-9 0 -11 8l-2 7q-2 8 -2 10q0 6 7 9l10 5q37 20 66.5 68.5t46.5 116.5q3 13 10 17.5t23 4.5
h158z" />
    <glyph glyph-name="tildecomb" unicode="&#x303;" 
d="M213 665q0 -48 -34.5 -81.5t-85.5 -33.5q-27 0 -53.5 9.5t-59.5 31.5q-55 36 -70.5 43.5t-27.5 7.5q-8 0 -14 -4.5t-6 -11.5q0 -17 27 -28q10 -4 13 -6t3 -6q0 -3 -2 -7l-2 -5q-4 -10 -10 -10q-4 0 -14 3q-42 12 -66 40t-24 65q0 48 34.5 81.5t85.5 33.5q24 0 49.5 -9
t63.5 -32q32 -19 50 -30t28.5 -16t19.5 -5q8 0 14 4.5t6 11.5q0 18 -27 28q-10 4 -13 6t-3 6q0 3 2 7l2 5q4 10 10 10q4 0 14 -3q42 -12 66 -40t24 -65z" />
    <glyph glyph-name="uni0304" unicode="&#x304;" 
d="M194 691q12 0 12 -10v-104q0 -10 -12 -10h-388q-12 0 -12 10v104q0 10 12 10h388z" />
    <glyph glyph-name="uni0308" unicode="&#x308;" 
d="M-244 649q0 42 32 70t83 28t83 -28t32 -70t-32 -70t-83 -28t-83 28t-32 70zM14 649q0 42 32 70t83 28t83 -28t32 -70t-32 -70t-83 -28t-83 28t-32 70z" />
    <glyph glyph-name="uni030A" unicode="&#x30a;" 
d="M-34 674q0 -16 9.5 -26t24.5 -10t24 10t9 26t-9 25.5t-24 9.5t-24.5 -9.5t-9.5 -25.5zM-126 674q0 33 16 61t45 45.5t65 17.5q34 0 62.5 -16t46 -44.5t17.5 -63.5q0 -33 -16 -61t-45 -45.5t-65 -17.5q-34 0 -62.5 16t-46 44.5t-17.5 63.5z" />
    <glyph glyph-name="uni030C" unicode="&#x30c;" 
d="M-76 562q-16 0 -23 4.5t-10 17.5q-14 56 -49.5 105t-77.5 70l-10 5q-7 3 -7 9q0 2 2 10l2 7q2 5 4 6.5t7 1.5q45 0 122.5 -32.5t115.5 -67.5q38 35 115.5 67.5t122.5 32.5q5 0 7 -1.5t4 -6.5l2 -7q2 -8 2 -10q0 -6 -7 -9l-10 -5q-42 -21 -77.5 -70t-49.5 -105
q-3 -13 -10 -17.5t-23 -4.5h-152z" />
    <glyph glyph-name="uni0327" unicode="&#x327;" 
d="M12 -290q-71 0 -118.5 46t-47.5 113v11q0 11 2.5 15.5t8.5 4.5h16q4 0 5.5 -2t4.5 -10q10 -27 33 -43t52 -16q28 0 48 16.5t20 38.5q0 7 -3 11.5t-8 4.5q-26 -41 -57 -41q-22 0 -36 13t-14 34q0 20 13 39l44 62h42l-53 -78q-9 -14 -9 -22q0 -13 13 -13q10 0 21 17l6 9
q12 19 30.5 29.5t40.5 10.5q40 0 67 -33t27 -80q0 -58 -42.5 -97.5t-105.5 -39.5z" />
    <glyph glyph-name="endash" unicode="&#x2013;" horiz-adv-x="500" 
d="M11 309q-11 0 -11 10v25q0 10 11 10h478q11 0 11 -10v-25q0 -10 -11 -10h-478z" />
    <glyph glyph-name="emdash" unicode="&#x2014;" horiz-adv-x="1000" 
d="M11 309q-11 0 -11 10v25q0 10 11 10h978q11 0 11 -10v-25q0 -10 -11 -10h-978z" />
    <glyph glyph-name="quoteleft" unicode="&#x2018;" horiz-adv-x="251" 
d="M57 632q17 19 50.5 34.5t59.5 15.5q8 0 10 -9l1 -4q1 -4 1.5 -7t0.5 -5q0 -9 -14 -12q-40 -9 -64.5 -26t-24.5 -36q0 -12 6 -18q29 27 64 27q37 0 60.5 -24.5t23.5 -63.5q0 -42 -28.5 -67.5t-75.5 -25.5q-49 0 -78 30.5t-29 81.5q0 36 8.5 61t28.5 48z" />
    <glyph glyph-name="quoteright" unicode="&#x2019;" horiz-adv-x="251" 
d="M174 510q0 12 -6 18q-28 -27 -64 -27q-37 0 -60.5 24.5t-23.5 63.5q0 42 28.5 67.5t75.5 25.5q49 0 78 -30.5t29 -81.5q0 -36 -8.5 -61t-28.5 -48q-17 -19 -50.5 -34.5t-59.5 -15.5q-8 0 -10 9l-1 4q-1 4 -1.5 7t-0.5 5q0 9 14 12q40 9 64.5 26t24.5 36z" />
    <glyph glyph-name="quotesinglbase" unicode="&#x201a;" horiz-adv-x="251" 
d="M174 -2q0 12 -6 18q-28 -27 -64 -27q-37 0 -60.5 24.5t-23.5 63.5q0 42 28.5 67.5t75.5 25.5q49 0 78 -30.5t29 -81.5q0 -36 -8.5 -61t-28.5 -48q-17 -19 -50.5 -34.5t-59.5 -15.5q-8 0 -10 9l-1 4q-1 4 -1.5 7t-0.5 5q0 9 14 12q40 9 64.5 26t24.5 36z" />
    <glyph glyph-name="quotedblleft" unicode="&#x201c;" horiz-adv-x="492" 
d="M57 632q17 19 50.5 34.5t59.5 15.5q8 0 10 -9l1 -4q1 -4 1.5 -7t0.5 -5q0 -9 -14 -12q-40 -9 -64.5 -26t-24.5 -36q0 -12 6 -18q29 27 64 27q37 0 60.5 -24.5t23.5 -63.5q0 -42 -28.5 -67.5t-75.5 -25.5q-49 0 -78 30.5t-29 81.5q0 36 8.5 61t28.5 48zM298 632
q17 19 50.5 34.5t59.5 15.5q8 0 10 -9l1 -4q1 -4 1.5 -7t0.5 -5q0 -9 -14 -12q-40 -9 -64.5 -26t-24.5 -36q0 -12 6 -18q29 27 64 27q37 0 60.5 -24.5t23.5 -63.5q0 -42 -28.5 -67.5t-75.5 -25.5q-49 0 -78 30.5t-29 81.5q0 36 8.5 61t28.5 48z" />
    <glyph glyph-name="quotedblright" unicode="&#x201d;" horiz-adv-x="492" 
d="M174 510q0 12 -6 18q-28 -27 -64 -27q-37 0 -60.5 24.5t-23.5 63.5q0 42 28.5 67.5t75.5 25.5q49 0 78 -30.5t29 -81.5q0 -36 -8.5 -61t-28.5 -48q-17 -19 -50.5 -34.5t-59.5 -15.5q-8 0 -10 9l-1 4q-1 4 -1.5 7t-0.5 5q0 9 14 12q40 9 64.5 26t24.5 36zM415 510
q0 12 -6 18q-28 -27 -64 -27q-37 0 -60.5 24.5t-23.5 63.5q0 42 28.5 67.5t75.5 25.5q49 0 78 -30.5t29 -81.5q0 -36 -8.5 -61t-28.5 -48q-17 -19 -50.5 -34.5t-59.5 -15.5q-8 0 -10 9l-1 4q-1 4 -1.5 7t-0.5 5q0 9 14 12q40 9 64.5 26t24.5 36z" />
    <glyph glyph-name="quotedblbase" unicode="&#x201e;" horiz-adv-x="492" 
d="M174 -2q0 12 -6 18q-28 -27 -64 -27q-37 0 -60.5 24.5t-23.5 63.5q0 42 28.5 67.5t75.5 25.5q49 0 78 -30.5t29 -81.5q0 -36 -8.5 -61t-28.5 -48q-17 -19 -50.5 -34.5t-59.5 -15.5q-8 0 -10 9l-1 4q-1 4 -1.5 7t-0.5 5q0 9 14 12q40 9 64.5 26t24.5 36zM415 -2
q0 12 -6 18q-28 -27 -64 -27q-37 0 -60.5 24.5t-23.5 63.5q0 42 28.5 67.5t75.5 25.5q49 0 78 -30.5t29 -81.5q0 -36 -8.5 -61t-28.5 -48q-17 -19 -50.5 -34.5t-59.5 -15.5q-8 0 -10 9l-1 4q-1 4 -1.5 7t-0.5 5q0 9 14 12q40 9 64.5 26t24.5 36z" />
    <glyph glyph-name="dagger" unicode="&#x2020;" horiz-adv-x="612" 
d="M306 778q50 0 82.5 -29.5t32.5 -75.5q0 -30 -8.5 -53.5t-28.5 -49.5q-23 -29 -32.5 -46.5t-9.5 -33.5h30q6 35 36 56t73 21q49 0 80 -26.5t31 -68.5t-30.5 -68.5t-80.5 -26.5q-44 0 -73.5 21t-35.5 56h-30q0 -27 15.5 -50t40.5 -34q14 -6 14 -17v-13q0 -12 -10 -12h-61
q-10 0 -10 -12v-515q0 -12 -10 -12h-30q-10 0 -10 12v515q0 12 -10 12h-61q-10 0 -10 12v13q0 11 14 17q26 11 41 34t15 50h-30q-6 -35 -35.5 -56t-73.5 -21q-50 0 -80.5 26.5t-30.5 68.5t31 68.5t80 26.5q43 0 73 -21t36 -56h30q0 16 -9.5 33.5t-32.5 46.5
q-20 26 -28.5 49.5t-8.5 53.5q0 46 32.5 75.5t82.5 29.5z" />
    <glyph glyph-name="daggerdbl" unicode="&#x2021;" horiz-adv-x="612" 
d="M402 209q10 0 10 -12v-13q0 -11 -14 -17q-25 -11 -40.5 -34t-15.5 -50h30q6 35 35.5 56t73.5 21q50 0 80.5 -26.5t30.5 -68.5t-31 -68.5t-80 -26.5q-43 0 -73 21t-36 56h-30q0 -16 9.5 -33.5t32.5 -46.5q20 -26 28.5 -49.5t8.5 -53.5q0 -46 -32.5 -75.5t-82.5 -29.5
t-82.5 29.5t-32.5 75.5q0 30 8.5 53.5t28.5 49.5q23 29 32.5 46.5t9.5 33.5h-30q-6 -35 -36 -56t-73 -21q-49 0 -80 26.5t-31 68.5t30.5 68.5t80.5 26.5q44 0 73.5 -21t35.5 -56h30q0 27 -15 50t-41 34q-14 6 -14 17v13q0 12 10 12h67q8 0 8 8v17l-25 23q-7 7 -7 12t8 13
l24 22v16q0 8 -8 8h-67q-10 0 -10 12v13q0 11 14 17q26 11 41 34t15 50h-30q-6 -35 -35.5 -56t-73.5 -21q-50 0 -80.5 26.5t-30.5 68.5t31 68.5t80 26.5q43 0 73 -21t36 -56h30q0 16 -9.5 33.5t-32.5 46.5q-20 26 -28.5 49.5t-8.5 53.5q0 46 32.5 75.5t82.5 29.5t82.5 -29.5
t32.5 -75.5q0 -30 -8.5 -53.5t-28.5 -49.5q-23 -29 -32.5 -46.5t-9.5 -33.5h30q6 35 36 56t73 21q49 0 80 -26.5t31 -68.5t-30.5 -68.5t-80.5 -26.5q-44 0 -73.5 21t-35.5 56h-30q0 -27 15.5 -50t40.5 -34q14 -6 14 -17v-13q0 -12 -10 -12h-67q-8 0 -8 -8v-16l24 -22
q8 -8 8 -13t-7 -12l-25 -23v-17q0 -8 8 -8h67z" />
    <glyph glyph-name="bullet" unicode="&#x2022;" horiz-adv-x="433" 
d="M32 290q0 48 23.5 90t66 68t94.5 26q49 0 91 -23.5t68 -66t26 -94.5q0 -49 -23.5 -91t-66 -68t-95.5 -26q-48 0 -90 23.5t-68 66.5t-26 95z" />
    <glyph glyph-name="ellipsis" unicode="&#x2026;" horiz-adv-x="782" 
d="M133 -17q-50 0 -81.5 27t-31.5 70t31.5 70t81.5 27t81.5 -27t31.5 -70t-31.5 -70t-81.5 -27zM391 -17q-50 0 -81.5 27t-31.5 70t31.5 70t81.5 27t81.5 -27t31.5 -70t-31.5 -70t-81.5 -27zM649 -17q-50 0 -81.5 27t-31.5 70t31.5 70t81.5 27t81.5 -27t31.5 -70t-31.5 -70
t-81.5 -27z" />
    <glyph glyph-name="perthousand" unicode="&#x2030;" horiz-adv-x="1213" 
d="M156 -24q0 3 3 8l361 587q-50 1 -90 8t-60 17q26 -40 26 -105q0 -51 -23.5 -93t-66.5 -67t-99 -25q-83 0 -136 53t-53 136q0 84 54 135.5t141 51.5q30 0 54.5 -7t59.5 -24q91 -42 171 -42q27 0 48 3l53 96q32 59 82 59q35 0 57 -18.5t22 -49.5q0 -51 -50 -84.5
t-134 -41.5l-377 -612q-4 -7 -9 -7q-3 0 -8 3l-20 11q-6 3 -6 8zM785 171q0 -53 -23 -95.5t-66 -67.5t-100 -25q-53 0 -96 23t-68 66t-25 99q0 53 23 95.5t66 67.5t100 25q53 0 96 -23t68 -66t25 -99zM1195 171q0 -53 -23 -95.5t-66 -67.5t-100 -25q-53 0 -96 23t-68 66
t-25 99q0 53 23 95.5t66 67.5t100 25q53 0 96 -23t68 -66t25 -99zM581 49q0 -26 15 -26t15 26v244q0 26 -15 26t-15 -26v-244zM192 372q0 -26 15 -26t15 26v244q0 26 -15 26t-15 -26v-244zM991 49q0 -26 15 -26t15 26v244q0 26 -15 26t-15 -26v-244z" />
    <glyph glyph-name="guilsinglleft" unicode="&#x2039;" horiz-adv-x="363" 
d="M20 328q1 7 5 12.5t15 13.5l258 181q9 6 13 6q5 0 9 -5l7 -9q4 -5 4 -10q0 -4 -4 -11l-103 -189l103 -189q4 -7 4 -11q0 -5 -4 -10l-7 -9q-4 -5 -9 -5q-4 0 -13 6l-258 181q-12 9 -16 14t-4 12v22z" />
    <glyph glyph-name="guilsinglright" unicode="&#x203a;" horiz-adv-x="363" 
d="M343 306q0 -7 -4 -12t-16 -14l-258 -181q-9 -6 -13 -6q-5 0 -9 5l-7 9q-4 5 -4 10q0 4 4 11l103 189l-103 189q-4 7 -4 11q0 5 4 10l7 9q4 5 9 5q4 0 13 -6l258 -181q11 -8 15 -13.5t5 -12.5v-22z" />
    <glyph glyph-name="fraction" unicode="&#x2044;" horiz-adv-x="484" 
d="M61 316q-11 0 -11 10v13q0 10 11 10h362q11 0 11 -10v-13q0 -10 -11 -10h-362z" />
    <glyph glyph-name="uni2081" unicode="&#x2081;" horiz-adv-x="420" 
d="M85 -101q-8 0 -8 6v11q0 5 6 6q26 8 34.5 15.5t8.5 26.5v210h-49q-7 0 -7 6v15q0 6 7 6h46q52 0 91.5 18.5t49.5 47.5q1 4 3 5.5t8 1.5h16q7 0 7 -7v-303q0 -18 8 -26t35 -16q5 -1 5 -6v-11q0 -6 -7 -6h-254z" />
    <glyph glyph-name="uni2082" unicode="&#x2082;" horiz-adv-x="420" 
d="M101 15q0 21 18 21q12 0 28.5 -6t39 -12t53.5 -6q36 0 66 11.5t48 31.5q3 4 4.5 5t5.5 1h6q5 0 6.5 -3t1.5 -14q0 -73 -38.5 -111t-110.5 -38q-76 0 -130 48q-6 0 -9 -4.5t-5 -17.5l-1 -6q-1 -11 -14 -11h-14q-10 0 -10 8v107q0 30 7.5 44t25.5 20t51 8q51 4 80.5 25
t29.5 53t-19.5 52t-49.5 20q-14 0 -22.5 -4t-8.5 -11q0 -2 1 -4.5t2 -4.5q4 1 8 1.5t8 0.5q26 0 41 -13t15 -34q0 -26 -25 -41.5t-70 -15.5q-39 0 -62 17t-23 48q0 41 44 66t114 25q82 0 134 -34.5t52 -88.5q0 -46 -40.5 -79t-96.5 -33q-27 0 -51 6.5t-44.5 12.5t-35.5 6
q-17 0 -25 -9t-8 -30v-49q2 -2 5 -2.5t5 -0.5q13 0 13 12v33z" />
    <glyph glyph-name="uni2083" unicode="&#x2083;" horiz-adv-x="420" 
d="M88 96q0 6 9 6h16q56 0 84.5 18.5t28.5 54.5q0 29 -17 47.5t-42 18.5q-31 0 -31 -14q0 -2 1 -4.5t2 -4.5q3 1 15 1q22 0 35 -12t13 -31q0 -23 -23.5 -36.5t-62.5 -13.5q-38 0 -59 15t-21 42q0 41 47.5 64.5t128.5 23.5q77 0 120 -25t43 -71q0 -32 -27.5 -53.5
t-75.5 -27.5q56 -2 89 -27t33 -65q-1 -50 -54 -78.5t-146 -28.5q-80 0 -124.5 23.5t-44.5 65.5q0 29 26 47t67 18q38 0 61 -16.5t23 -43.5q0 -18 -13 -30t-32 -12q-7 0 -18 3q-5 -5 -5 -11q0 -14 27 -14q29 0 47 18t18 48q0 38 -30.5 60t-83.5 22h-15q-9 0 -9 6v17z" />
    <glyph glyph-name="uni2084" unicode="&#x2084;" horiz-adv-x="420" 
d="M353 24h43q8 0 8 -6v-15q0 -6 -8 -6h-43v-33q0 -19 8.5 -26.5t34.5 -15.5q6 -1 6 -6v-11q0 -6 -8 -6h-259q-8 0 -8 6v11q0 4 6 6q27 8 35 16t8 26v36h-19q-20 -21 -44.5 -31.5t-50.5 -10.5q-28 0 -44.5 12.5t-16.5 33.5q0 19 14 32t35 13q16 0 27.5 -6.5t20 -13
t14.5 -6.5q19 14 19 36q0 15 -8.5 30.5t-20 32t-20 33.5t-8.5 34q0 39 32 63.5t82 24.5q51 0 82 -22.5t31 -62.5q0 -44 -50 -94q-24 -24 -63 -56q-9 -7 -9 -14q0 -5 4.5 -8t10.5 -3q45 33 70 59q40 44 57 88q1 5 7 5h17q5 0 6.5 -1.5t1.5 -6.5v-137z" />
    <glyph glyph-name="Euro" unicode="&#x20ac;" horiz-adv-x="680" 
d="M350 278v-115q0 -57 32.5 -93.5t83.5 -36.5q15 0 23.5 4.5t8.5 11.5t-6 13h-6q-49 0 -76 25t-27 72q0 55 37.5 85t106.5 30q62 0 101.5 -36t39.5 -92q0 -76 -67 -119.5t-187 -43.5q-143 0 -234 79.5t-109 215.5h-49q-12 0 -12 10v17q0 10 12 10h45v25h-45q-12 0 -12 10
v17q0 10 12 10h46q8 92 51.5 161t118.5 106.5t176 37.5q120 0 187 -43.5t67 -119.5q0 -56 -39.5 -92t-101.5 -36q-69 0 -106.5 30t-37.5 85q0 47 27 72t76 25h6q6 6 6 13q0 8 -8.5 12t-23.5 4q-51 0 -83.5 -36t-32.5 -93v-126h140q12 0 12 -10v-17q0 -10 -12 -10h-140v-25
h90q12 0 12 -10v-17q0 -10 -12 -10h-90z" />
    <glyph glyph-name="trademark" unicode="&#x2122;" horiz-adv-x="911" 
d="M428 665q13 0 13 -14v-91q0 -28 -13.5 -41t-43.5 -13h-46q-13 0 -13 14v95q0 14 -15 14h-7v-237q0 -14 -13 -14h-117q-13 0 -13 14v237h-7q-15 0 -15 -14v-95q0 -14 -13 -14h-46q-30 0 -43.5 13t-13.5 41v91q0 14 13 14h393zM767 665q31 0 40 -23l85 -220q6 -16 7.5 -21
t1.5 -10q0 -13 -16 -13h-108q-11 0 -16.5 4t-8.5 15l-50 177q-5 5 -11 5q-4 0 -7 -3t-3 -7q0 -5 3 -17l41 -150q2 -5 2 -11q0 -13 -16 -13h-93q-10 0 -14.5 4t-7.5 15l-50 177q-5 5 -11 5q-4 0 -7 -3t-3 -7q0 -5 3 -17l41 -150q2 -4 2 -10q0 -14 -17 -14h-124q-8 0 -13 4.5
t-5 11.5q0 15 21 63t73 153q3 8 3 13q-1 7 -4.5 11t-14.5 10q-5 3 -5 9v8q0 4 6 4h113q17 0 26.5 -6.5t19.5 -24.5l18 -34l11 14q9 12 9 17q0 7 -9 13q-5 3 -5 8v7q0 6 6 6h87z" />
    <glyph glyph-name="minus" unicode="&#x2212;" horiz-adv-x="618" 
d="M98 311q-11 0 -11 10v25q0 10 11 10h422q11 0 11 -10v-25q0 -10 -11 -10h-422z" />
    <glyph glyph-name="glyph223" 
d="M-135 841q0 55 39.5 94t95.5 39q35 0 66 -17t50 -48t19 -68q0 -35 -17.5 -65t-48.5 -49t-69 -19q-56 0 -95.5 39t-39.5 94zM-36 841q0 -16 10.5 -27t25.5 -11t25 11t10 27t-10 26.5t-25 10.5t-25.5 -10.5t-10.5 -26.5z" />
    <glyph glyph-name="glyph233" 
d="M-39 713q-24 0 -54.5 6.5t-45.5 15.5q-11 6 -11 13q0 3 3 9l5 9q3 5 8 5q3 0 9 -3l6 -3q18 -9 35 -9q54 0 54 52q0 20 -3.5 41t-3.5 44q0 50 30.5 79t82.5 29q44 0 72.5 -28.5t28.5 -73.5q0 -50 -28 -92t-78 -68t-110 -26z" />
    <glyph glyph-name="glyph235" 
d="M53 713q-56 0 -105.5 24t-80 66.5t-30.5 95.5q0 45 28.5 73.5t72.5 28.5q52 0 82.5 -29t30.5 -79q0 -23 -3.5 -44t-3.5 -41q0 -52 54 -52q17 0 35 9l6 3q6 3 9 3q5 0 8 -5l5 -9q3 -6 3 -9q0 -7 -11 -13q-15 -9 -45.5 -15.5t-54.5 -6.5z" />
    <glyph glyph-name="glyph238" 
d="M96 957q16 0 23 -4.5t10 -17.5q18 -74 48.5 -126t68.5 -74l10 -5q7 -3 7 -9q0 -2 -2 -10l-2 -7q-2 -8 -11 -8q-27 0 -71 17.5t-93.5 48.5t-83.5 64q-30 -29 -76.5 -59t-94 -50.5t-77.5 -20.5q-9 0 -11 8l-2 7q-2 8 -2 10q0 6 7 9l10 5q38 22 68.5 74t48.5 126
q3 13 10 17.5t23 4.5h192z" />
    <glyph glyph-name="glyph239" 
d="M223 838q0 -54 -33 -89.5t-87 -35.5q-61 0 -123 41q-42 27 -67 39t-41 12q-8 0 -14 -4.5t-6 -11.5q0 -17 27 -28q10 -4 13 -6t3 -6q0 -1 -2 -7l-2 -5q-4 -10 -10 -10q-4 0 -14 3q-42 12 -66 40t-24 65q0 54 34.5 89.5t91.5 35.5q48 0 117 -41q53 -31 74 -41t34 -10
q8 0 14 4.5t6 11.5q0 18 -27 28q-10 4 -13 6t-3 6q0 3 2 7l2 5q4 10 10 10q4 0 14 -3q42 -12 66 -40t24 -65z" />
    <glyph glyph-name="glyph240" 
d="M64 781q13 0 19 -4.5t8 -17.5q15 -79 37.5 -123.5t56.5 -61.5l10 -5q7 -3 7 -9q0 -2 -2 -10l-2 -7q-2 -8 -11 -8q-35 0 -93 37t-94 83q-36 -46 -94 -83t-93 -37q-9 0 -11 8l-2 7q-2 8 -2 10q0 6 7 9l10 5q34 17 56.5 61.5t37.5 123.5q2 13 8 17.5t19 4.5h128z" />
    <glyph glyph-name="glyph242" 
d="M0 858q35 34 124.5 72t134.5 38q5 0 7 -1.5t4 -6.5l2 -7q2 -8 2 -10q0 -6 -7 -9l-10 -5q-46 -26 -84.5 -77.5t-53.5 -107.5q-3 -13 -10 -17.5t-23 -4.5h-172q-16 0 -23 4.5t-10 17.5q-15 56 -53.5 107.5t-84.5 77.5l-10 5q-7 3 -7 9q0 2 2 10l2 7q2 5 4 6.5t7 1.5
q45 0 134.5 -38t124.5 -72z" />
    <glyph glyph-name="glyph245" 
d="M-249 813q0 43 32.5 71.5t84.5 28.5t84.5 -28.5t32.5 -71.5t-32.5 -71.5t-84.5 -28.5t-84.5 28.5t-32.5 71.5zM15 813q0 43 32.5 71.5t84.5 28.5t84.5 -28.5t32.5 -71.5t-32.5 -71.5t-84.5 -28.5t-84.5 28.5t-32.5 71.5z" />
    <glyph glyph-name="glyph246" 
d="M-11 649q0 -35 -23.5 -57.5t-60.5 -22.5t-60.5 22.5t-23.5 57.5t23.5 57.5t60.5 22.5t60.5 -22.5t23.5 -57.5zM179 649q0 -35 -23.5 -57.5t-60.5 -22.5t-60.5 22.5t-23.5 57.5t23.5 57.5t60.5 22.5t60.5 -22.5t23.5 -57.5z" />
    </font>
</defs>
</svg>
