<?xml version="1.0" standalone="no"?>
<!DOCTYPE svg PUBLIC "-//W3C//DTD SVG 1.1//EN" "http://www.w3.org/Graphics/SVG/1.1/DTD/svg11.dtd" >
<svg>
<metadata>
Created by FontForge 20120731 at Thu May 31 08:02:24 2018
 By www
Copyright (c) 2013 by AnthonyJames. All rights reserved.
</metadata>
<defs>
<font id="Regular" horiz-adv-x="553" >
  <font-face 
    font-family="Kaiju"
    font-weight="400"
    font-stretch="normal"
    units-per-em="1000"
    panose-1="2 0 0 0 0 0 0 0 0 0"
    ascent="750"
    descent="-250"
    x-height="700"
    cap-height="700"
    bbox="-0.727273 -59.2 772 740"
    underline-thickness="50"
    underline-position="-50"
    unicode-range="U+000D-2013"
  />
<missing-glyph horiz-adv-x="500" 
 />
    <glyph glyph-name=".notdef" horiz-adv-x="500" 
 />
    <glyph glyph-name="NULL" horiz-adv-x="0" 
 />
    <glyph glyph-name="NULL" horiz-adv-x="0" 
 />
    <glyph glyph-name="nonmarkingreturn" unicode="&#xd;" horiz-adv-x="500" 
 />
    <glyph glyph-name="space" unicode=" " horiz-adv-x="500" 
 />
    <glyph glyph-name="C" unicode="C" horiz-adv-x="746" 
d="M457 72q3 -8 7 -13q11 -11 25.5 -13.5t27.5 4.5q17 10 33 21t30 25q48 42 79 103q2 3 5 2t1 -5l-1 -2q-14 -29 -34.5 -55.5t-44.5 -47.5q-26 -23 -54.5 -40.5t-60.5 -29.5q-67 -24 -135.5 -20.5t-129 31t-108.5 77t-74 116.5t-23 135.5t29 129t74.5 109t114.5 75.5
q64 26 133 26q66 0 130 -25q3 -2 1.5 -5t-4.5 -1q-60 24 -127 24q-40 0 -77 -9q-14 -3 -24 -14.5t-10 -26.5q0 -9 3 -15z" />
    <glyph glyph-name="c" unicode="c" horiz-adv-x="746" 
d="M457 72q3 -8 7 -13q11 -11 25.5 -13.5t27.5 4.5q17 10 33 21t30 25q48 42 79 103q2 3 5 2t1 -5l-1 -2q-14 -29 -34.5 -55.5t-44.5 -47.5q-26 -23 -54.5 -40.5t-60.5 -29.5q-67 -24 -135.5 -20.5t-129 31t-108.5 77t-74 116.5t-23 135.5t29 129t74.5 109t114.5 75.5
q64 26 133 26q66 0 130 -25q3 -2 1.5 -5t-4.5 -1q-60 24 -127 24q-40 0 -77 -9q-14 -3 -24 -14.5t-10 -26.5q0 -9 3 -15z" />
    <glyph glyph-name="ydieresis" unicode="&#xff;" horiz-adv-x="833" 
 />
    <glyph glyph-name="D" unicode="D" horiz-adv-x="708" 
d="M278 700q72 0 135.5 -27.5t111.5 -74.5t75.5 -111t27.5 -137q0 -74 -28.5 -138t-76.5 -111t-111.5 -74t-133.5 -27h-278v700h278zM233 693q-18 0 -30.5 -12.5t-12.5 -29.5v-602q0 -17 12.5 -29.5t30.5 -12.5h45q71 0 133.5 27t109 73.5t73.5 109t27 133.5t-27 133.5
t-73.5 109t-109 73.5t-133.5 27h-45z" />
    <glyph glyph-name="d" unicode="d" horiz-adv-x="708" 
d="M278 700q72 0 135.5 -27.5t111.5 -74.5t75.5 -111t27.5 -137q0 -74 -28.5 -138t-76.5 -111t-111.5 -74t-133.5 -27h-278v700h278zM233 693q-18 0 -30.5 -12.5t-12.5 -29.5v-602q0 -17 12.5 -29.5t30.5 -12.5h45q71 0 133.5 27t109 73.5t73.5 109t27 133.5t-27 133.5
t-73.5 109t-109 73.5t-133.5 27h-45z" />
    <glyph glyph-name="E" unicode="E" horiz-adv-x="423" 
d="M190 345v-295q0 -17 12.5 -29.5t30.5 -12.5h107q3 0 3 -4t-3 -4h-340v700h340q3 0 3 -4t-3 -4h-107q-18 0 -30.5 -12.5t-12.5 -29.5v-297h150q3 0 3 -4t-3 -4h-150z" />
    <glyph glyph-name="e" unicode="e" horiz-adv-x="423" 
d="M190 345v-295q0 -17 12.5 -29.5t30.5 -12.5h107q3 0 3 -4t-3 -4h-340v700h340q3 0 3 -4t-3 -4h-107q-18 0 -30.5 -12.5t-12.5 -29.5v-297h150q3 0 3 -4t-3 -4h-150z" />
    <glyph glyph-name="A" unicode="A" horiz-adv-x="616" 
d="M536 0h-204l-124 320q-10 28 -39 28q-14 0 -24.5 -7.5t-15.5 -20.5l-122 -318q-2 -3 -5.5 -2.5t-1.5 5.5l267 695z" />
    <glyph glyph-name="B" unicode="B" horiz-adv-x="587" 
d="M382 378l4 2q42 21 66 60t24 87q0 34 -13 64.5t-35.5 53t-52.5 35.5t-64 13h-1h-77q-18 0 -30.5 -12.5t-12.5 -29.5v-602q0 -17 12.5 -29.5t30.5 -12.5h2h76q39 0 73.5 15t60 40.5t40.5 60.5t15 74q0 58 -32 105.5t-86 69.5v6zM393 375q54 -26 84 -73.5t30 -104.5
q0 -41 -15.5 -77t-42 -62.5t-62.5 -42t-76 -15.5h-311v700h310h1q36 0 67 -13.5t54.5 -37t37 -55t13.5 -67.5q0 -48 -24 -88t-66 -64z" />
    <glyph glyph-name="b" unicode="b" horiz-adv-x="587" 
d="M382 378l4 2q42 21 66 60t24 87q0 34 -13 64.5t-35.5 53t-52.5 35.5t-64 13h-1h-77q-18 0 -30.5 -12.5t-12.5 -29.5v-602q0 -17 12.5 -29.5t30.5 -12.5h2h76q39 0 73.5 15t60 40.5t40.5 60.5t15 74q0 58 -32 105.5t-86 69.5v6zM393 375q54 -26 84 -73.5t30 -104.5
q0 -41 -15.5 -77t-42 -62.5t-62.5 -42t-76 -15.5h-311v700h310h1q36 0 67 -13.5t54.5 -37t37 -55t13.5 -67.5q0 -48 -24 -88t-66 -64z" />
    <glyph glyph-name="a" unicode="a" horiz-adv-x="616" 
d="M536 0h-204l-124 320q-10 28 -39 28q-14 0 -24.5 -7.5t-15.5 -20.5l-122 -318q-2 -3 -5.5 -2.5t-1.5 5.5l267 695z" />
    <glyph glyph-name="F" unicode="F" horiz-adv-x="423" 
d="M190 0h-190v700h340q3 0 3 -4t-3 -4h-107q-18 0 -30.5 -12.5t-12.5 -29.5v-297h150q3 0 3 -4t-3 -4h-150v-345z" />
    <glyph glyph-name="f" unicode="f" horiz-adv-x="423" 
d="M190 0h-190v700h340q3 0 3 -4t-3 -4h-107q-18 0 -30.5 -12.5t-12.5 -29.5v-297h150q3 0 3 -4t-3 -4h-150v-345z" />
    <glyph glyph-name="G" unicode="G" horiz-adv-x="564" 
d="M350 350h125v-327q-68 -26 -137 -23t-130.5 30.5t-110 77t-74.5 117.5q-26 67 -23 135.5t29 129t74.5 109t114.5 75.5q64 26 133 26q66 0 130 -25q3 -2 1.5 -5t-4.5 -1q-60 24 -127 24q-41 0 -78 -9q-14 -3 -23.5 -14.5t-9.5 -26.5q0 -10 3 -16z" />
    <glyph glyph-name="g" unicode="g" horiz-adv-x="564" 
d="M350 350h125v-327q-68 -26 -137 -23t-130.5 30.5t-110 77t-74.5 117.5q-26 67 -23 135.5t29 129t74.5 109t114.5 75.5q64 26 133 26q66 0 130 -25q3 -2 1.5 -5t-4.5 -1q-60 24 -127 24q-41 0 -78 -9q-14 -3 -23.5 -14.5t-9.5 -26.5q0 -10 3 -16z" />
    <glyph glyph-name="H" unicode="H" horiz-adv-x="549" 
d="M190 346v-346h-190v700h190v-347h89v347h190v-700h-190v346h-89v0z" />
    <glyph glyph-name="h" unicode="h" horiz-adv-x="549" 
d="M190 346v-346h-190v700h190v-347h89v347h190v-700h-190v346h-89v0z" />
    <glyph glyph-name="I" unicode="I" horiz-adv-x="270" 
d="M190 0h-190v700h190v-700v0z" />
    <glyph glyph-name="i" unicode="i" horiz-adv-x="270" 
d="M190 0h-190v700h190v-700v0z" />
    <glyph glyph-name="J" unicode="J" horiz-adv-x="423" 
d="M1 75q-2 2 0 4t5 0q35 -46 91 -63q8 -2 13 -2q18 0 30.5 12.5t12.5 29.5v594q0 17 -12.5 29.5t-30.5 12.5h-106q-4 0 -4 4t4 4h339v-510q0 -39 -15 -74t-40.5 -60.5t-60.5 -40.5t-74 -15h-1q-47 1 -86 21t-65 54z" />
    <glyph glyph-name="j" unicode="j" horiz-adv-x="423" 
d="M1 75q-2 2 0 4t5 0q35 -46 91 -63q8 -2 13 -2q18 0 30.5 12.5t12.5 29.5v594q0 17 -12.5 29.5t-30.5 12.5h-106q-4 0 -4 4t4 4h339v-510q0 -39 -15 -74t-40.5 -60.5t-60.5 -40.5t-74 -15h-1q-47 1 -86 21t-65 54z" />
    <glyph glyph-name="K" unicode="K" horiz-adv-x="538" 
d="M321 340l-131 -340h-190v700h190v-452q0 -17 12.5 -29.5t30.5 -12.5q14 0 24 7.5t15 19.5l179 465q2 3 5 1.5t1 -4.5l-132 -345l132 -345q2 -4 -1 -5t-5 2z" />
    <glyph glyph-name="k" unicode="k" horiz-adv-x="538" 
d="M321 340l-131 -340h-190v700h190v-452q0 -17 12.5 -29.5t30.5 -12.5q14 0 24 7.5t15 19.5l179 465q2 3 5 1.5t1 -4.5l-132 -345l132 -345q2 -4 -1 -5t-5 2z" />
    <glyph glyph-name="L" unicode="L" horiz-adv-x="423" 
d="M190 51q0 -17 12.5 -29.5t30.5 -12.5h107q4 0 4 -4.5t-4 -4.5h-340v700h190v-649z" />
    <glyph glyph-name="l" unicode="l" horiz-adv-x="423" 
d="M190 51q0 -17 12.5 -29.5t30.5 -12.5h107q4 0 4 -4.5t-4 -4.5h-340v700h190v-649z" />
    <glyph glyph-name="M" unicode="M" horiz-adv-x="821" 
d="M537 700h204v-697q0 -3 -3.5 -3t-3.5 3v449v1q0 17 -12.5 29.5t-29.5 12.5q-14 0 -24.5 -7.5t-15.5 -18.5l-179 -469h-204l-180 469q-5 11 -15.5 18.5t-24.5 7.5q-17 0 -29.5 -12.5t-12.5 -29.5v-1v-449q0 -3 -3.5 -3t-3.5 3v697h204l167 -434z" />
    <glyph glyph-name="m" unicode="m" horiz-adv-x="821" 
d="M537 700h204v-697q0 -3 -3.5 -3t-3.5 3v449v1q0 17 -12.5 29.5t-29.5 12.5q-14 0 -24.5 -7.5t-15.5 -18.5l-179 -469h-204l-180 469q-5 11 -15.5 18.5t-24.5 7.5q-17 0 -29.5 -12.5t-12.5 -29.5v-1v-449q0 -3 -3.5 -3t-3.5 3v697h204l167 -434z" />
    <glyph glyph-name="N" unicode="N" 
d="M269 0l-180 469q-5 11 -15.5 18.5t-24.5 7.5q-17 0 -29.5 -12.5t-12.5 -29.5v-450q0 -3 -3.5 -3t-3.5 3v697h204l180 -469q5 -11 15 -18.5t24 -7.5q18 0 30.5 12t12.5 31v448q0 4 3.5 4t3.5 -4v-696h-204z" />
    <glyph glyph-name="n" unicode="n" 
d="M269 0l-180 469q-5 11 -15.5 18.5t-24.5 7.5q-17 0 -29.5 -12.5t-12.5 -29.5v-450q0 -3 -3.5 -3t-3.5 3v697h204l180 -469q5 -11 15 -18.5t24 -7.5q18 0 30.5 12t12.5 31v448q0 4 3.5 4t3.5 -4v-696h-204z" />
    <glyph glyph-name="O" unicode="O" horiz-adv-x="780" 
d="M350 700q71 0 134.5 -27.5t111.5 -74.5t76 -111t28 -137q0 -71 -27 -134.5t-74.5 -111.5t-111.5 -76t-137 -28q-72 0 -136 27q-62 27 -112 75q-48 50 -75 112q-27 64 -27 136q0 71 27 136q27 63 75 111t112.5 75.5t135.5 27.5zM521 53q39 22 70.5 53.5t54 69.5t35 82
t12.5 92q0 71 -27 133.5t-73.5 109t-109 73.5t-133.5 27q-35 0 -72 -8q-21 -5 -29.5 -22t-2.5 -34l213 -555q8 -18 26.5 -24.5t35.5 3.5z" />
    <glyph glyph-name="o" unicode="o" horiz-adv-x="780" 
d="M350 700q71 0 134.5 -27.5t111.5 -74.5t76 -111t28 -137q0 -71 -27 -134.5t-74.5 -111.5t-111.5 -76t-137 -28q-72 0 -136 27q-62 27 -112 75q-48 50 -75 112q-27 64 -27 136q0 71 27 136q27 63 75 111t112.5 75.5t135.5 27.5zM521 53q39 22 70.5 53.5t54 69.5t35 82
t12.5 92q0 71 -27 133.5t-73.5 109t-109 73.5t-133.5 27q-35 0 -72 -8q-21 -5 -29.5 -22t-2.5 -34l213 -555q8 -18 26.5 -24.5t35.5 3.5z" />
    <glyph glyph-name="P" unicode="P" horiz-adv-x="546" 
d="M190 0h-190v700h252q44 0 83 -17t68 -46t46 -68t17 -83t-17 -83t-46 -68t-68 -45.5t-83 -16.5h-62v-273zM252 280q43 0 80.5 16t65.5 44t44.5 65.5t16.5 80.5t-16.5 80.5t-44.5 65.5t-65.5 44.5t-80.5 16.5h-19q-18 0 -30.5 -12.5t-12.5 -29.5v-330q1 -17 13.5 -29
t29.5 -12h19z" />
    <glyph glyph-name="p" unicode="p" horiz-adv-x="546" 
d="M190 0h-190v700h252q44 0 83 -17t68 -46t46 -68t17 -83t-17 -83t-46 -68t-68 -45.5t-83 -16.5h-62v-273zM252 280q43 0 80.5 16t65.5 44t44.5 65.5t16.5 80.5t-16.5 80.5t-44.5 65.5t-65.5 44.5t-80.5 16.5h-19q-18 0 -30.5 -12.5t-12.5 -29.5v-330q1 -17 13.5 -29
t29.5 -12h19z" />
    <glyph glyph-name="Q" unicode="Q" horiz-adv-x="780" 
d="M535 53q-4 -2 -5 1t1 5q36 22 66 53t51.5 68.5t33 80.5t11.5 89q0 71 -27 133.5t-73.5 109t-109 73.5t-133.5 27q-35 0 -72 -8q-20 -5 -29 -22t-3 -34l228 -593q5 -13 15.5 -21t24.5 -8h182q4 0 4 -3.5t-4 -3.5h-344h-2q-72 0 -136 27q-62 27 -112 75q-48 50 -75 112
q-27 64 -27 136q0 71 27 136q27 63 75 111q51 51 115.5 77t132.5 26q53 0 103 -16t92.5 -44.5t75 -68t51.5 -85.5q28 -63 28 -136t-28 -136q-25 -62 -75 -112q-29 -29 -62 -49z" />
    <glyph glyph-name="q" unicode="q" horiz-adv-x="780" 
d="M535 53q-4 -2 -5 1t1 5q36 22 66 53t51.5 68.5t33 80.5t11.5 89q0 71 -27 133.5t-73.5 109t-109 73.5t-133.5 27q-35 0 -72 -8q-20 -5 -29 -22t-3 -34l228 -593q5 -13 15.5 -21t24.5 -8h182q4 0 4 -3.5t-4 -3.5h-344h-2q-72 0 -136 27q-62 27 -112 75q-48 50 -75 112
q-27 64 -27 136q0 71 27 136q27 63 75 111q51 51 115.5 77t132.5 26q53 0 103 -16t92.5 -44.5t75 -68t51.5 -85.5q28 -63 28 -136t-28 -136q-25 -62 -75 -112q-29 -29 -62 -49z" />
    <glyph glyph-name="R" unicode="R" horiz-adv-x="549" 
d="M346 302q51 26 82 75t31 109q0 43 -16.5 80.5t-44.5 65.5t-65.5 44.5t-80.5 16.5h-19q-18 0 -30.5 -12.5t-12.5 -29.5v-651h-190v700h252q44 0 83 -17t68 -46t46 -68t17 -83q0 -60 -30.5 -110t-80.5 -77l113 -294q2 -4 -2 -5t-5 2z" />
    <glyph glyph-name="r" unicode="r" horiz-adv-x="549" 
d="M346 302q51 26 82 75t31 109q0 43 -16.5 80.5t-44.5 65.5t-65.5 44.5t-80.5 16.5h-19q-18 0 -30.5 -12.5t-12.5 -29.5v-651h-190v700h252q44 0 83 -17t68 -46t46 -68t17 -83q0 -60 -30.5 -110t-80.5 -77l113 -294q2 -4 -2 -5t-5 2z" />
    <glyph glyph-name="S" unicode="S" horiz-adv-x="545" 
d="M352 663q-26 14 -56.5 22t-63.5 8q-38 0 -73 -10.5t-64 -30.5q-18 -13 -18 -35t16 -33l290 -219q39 -30 60.5 -71t21.5 -87q0 -42 -17.5 -80t-50.5 -67t-75 -44.5t-89 -15.5t-89.5 15.5t-75.5 44.5q-29 26 -46 59t-21 69q0 3 2.5 4t4.5 -3q4 -38 23 -71.5t49 -58
t69.5 -38.5t83.5 -14q38 0 73.5 11t64.5 31q18 11 18 34q0 20 -17 34l-292 220q-38 30 -59 71t-21 86q0 42 17.5 79.5t50.5 66.5t75 44.5t89 15.5q67 0 123 -31q3 -2 2 -5t-5 -1z" />
    <glyph glyph-name="s" unicode="s" horiz-adv-x="545" 
d="M352 663q-26 14 -56.5 22t-63.5 8q-38 0 -73 -10.5t-64 -30.5q-18 -13 -18 -35t16 -33l290 -219q39 -30 60.5 -71t21.5 -87q0 -42 -17.5 -80t-50.5 -67t-75 -44.5t-89 -15.5t-89.5 15.5t-75.5 44.5q-29 26 -46 59t-21 69q0 3 2.5 4t4.5 -3q4 -38 23 -71.5t49 -58
t69.5 -38.5t83.5 -14q38 0 73.5 11t64.5 31q18 11 18 34q0 20 -17 34l-292 220q-38 30 -59 71t-21 86q0 42 17.5 79.5t50.5 66.5t75 44.5t89 15.5q67 0 123 -31q3 -2 2 -5t-5 -1z" />
    <glyph glyph-name="T" unicode="T" horiz-adv-x="576" 
d="M492 700q4 0 4 -4t-4 -4h-107q-17 0 -29.5 -12.5t-12.5 -29.5v-650h-190v650q0 17 -12.5 29.5t-30.5 12.5h-107q-3 0 -3 4t3 4h489z" />
    <glyph glyph-name="t" unicode="t" horiz-adv-x="576" 
d="M492 700q4 0 4 -4t-4 -4h-107q-17 0 -29.5 -12.5t-12.5 -29.5v-650h-190v650q0 17 -12.5 29.5t-30.5 12.5h-107q-3 0 -3 4t3 4h489z" />
    <glyph glyph-name="U" unicode="U" horiz-adv-x="460" 
d="M373 697q0 3 3.5 3t3.5 -3v-503q0 -40 -15 -75.5t-40.5 -61.5t-59.5 -41.5t-73 -15.5h-2q-39 0 -74 15t-60.5 40.5t-40.5 60.5t-15 74v510h190v-644q0 -17 12.5 -29.5t30.5 -12.5q5 0 13 2q28 9 51 26.5t40 40.5t26.5 51.5t9.5 59.5v503z" />
    <glyph glyph-name="u" unicode="u" horiz-adv-x="460" 
d="M373 697q0 3 3.5 3t3.5 -3v-503q0 -40 -15 -75.5t-40.5 -61.5t-59.5 -41.5t-73 -15.5h-2q-39 0 -74 15t-60.5 40.5t-40.5 60.5t-15 74v510h190v-644q0 -17 12.5 -29.5t30.5 -12.5q5 0 13 2q28 9 51 26.5t40 40.5t26.5 51.5t9.5 59.5v503z" />
    <glyph glyph-name="V" unicode="V" horiz-adv-x="616" 
d="M0 700h204l123 -321q6 -14 16.5 -20.5t22.5 -6t23.5 7.5t17.5 20l122 318q0 2 4 2t2 -5l-266 -695z" />
    <glyph glyph-name="v" unicode="v" horiz-adv-x="616" 
d="M0 700h204l123 -321q6 -14 16.5 -20.5t22.5 -6t23.5 7.5t17.5 20l122 318q0 2 4 2t2 -5l-266 -695z" />
    <glyph glyph-name="W" unicode="W" horiz-adv-x="830" 
d="M214 700h204l123 -321q6 -14 17.5 -20.5t24 -6t23 7.5t15.5 20l122 318q0 2 4 2t2 -5l-267 -695zM367 256l-98 -256l-269 700h196z" />
    <glyph glyph-name="w" unicode="w" horiz-adv-x="830" 
d="M214 700h204l123 -321q6 -14 17.5 -20.5t24 -6t23 7.5t15.5 20l122 318q0 2 4 2t2 -5l-267 -695zM367 256l-98 -256l-269 700h196z" />
    <glyph glyph-name="X" unicode="X" 
d="M0 700h204l269 -700h-204l-269 700v0zM126 327v0l-126 -327h251l-125 327v0zM347 373v0l126 327h-252l126 -327v0z" />
    <glyph glyph-name="x" unicode="x" 
d="M0 700h204l269 -700h-204l-269 700v0zM126 327v0l-126 -327h251l-125 327v0zM347 373v0l126 327h-252l126 -327v0z" />
    <glyph glyph-name="Y" unicode="Y" horiz-adv-x="542" 
d="M454 698q2 3 5.5 2t1.5 -5l-136 -355v-340h-191v350l-134 350h190l103 -267q4 -9 11.5 -15t18.5 -6t18.5 6t11.5 15z" />
    <glyph glyph-name="y" unicode="y" horiz-adv-x="542" 
d="M454 698q2 3 5.5 2t1.5 -5l-136 -355v-340h-191v350l-134 350h190l103 -267q4 -9 11.5 -15t18.5 -6t18.5 6t11.5 15z" />
    <glyph glyph-name="Z" unicode="Z" 
d="M244 633q7 20 -5 38t-35 20h-201q-3 0 -3 4.5t3 4.5h470l-244 -633q-3 -8 -3 -16q0 -17 12.5 -29.5t29.5 -12.5h3h198q4 0 4.5 -4.5t-4.5 -4.5h-469z" />
    <glyph glyph-name="z" unicode="z" 
d="M244 633q7 20 -5 38t-35 20h-201q-3 0 -3 4.5t3 4.5h470l-244 -633q-3 -8 -3 -16q0 -17 12.5 -29.5t29.5 -12.5h3h198q4 0 4.5 -4.5t-4.5 -4.5h-469z" />
    <glyph glyph-name="one" unicode="1" horiz-adv-x="360" 
d="M7 464q-1 -3 -4.5 -3t-2.5 5l90 234h190v-700h-190v437v15q0 17 -12.5 29.5t-29.5 12.5q-30 0 -41 -30z" />
    <glyph glyph-name="two" unicode="2" 
d="M0 202q0 46 21.5 88t61.5 71l293 221q16 13 16 34q0 22 -18 35q-29 20 -64.5 31t-74.5 11q-66 0 -120 -31q-4 -2 -5.5 1.5t1.5 5.5q57 31 124 31q46 0 88.5 -15t75 -42t52 -65.5t19.5 -86.5q0 -45 -21.5 -86.5t-59.5 -70.5l-353 -267q-13 -10 -13 -27q0 -14 9.5 -23.5
t23.5 -9.5h3h414v-7h-473v202z" />
    <glyph glyph-name="three" unicode="3" horiz-adv-x="550" 
d="M299 693h-62h-97q-3 0 -3 3.5t3 3.5h169l-79 -206q22 -1 43.5 -5t38.5 -12q47 -18 82 -52.5t54 -77.5t21 -91.5t-16 -96.5q-18 -47 -52 -82t-76.5 -54.5t-91 -22t-95.5 14.5q-23 8 -43.5 20t-38.5 29q-17 15 -31 33.5t-25 39.5q-1 4 2 5t5 -2q19 -39 53 -70
q22 -21 45 -32q14 -6 26 -1.5t17 16.5l144 375q5 20 -3.5 36t-29.5 21q-18 3 -39 3z" />
    <glyph glyph-name="four" unicode="4" horiz-adv-x="506" 
d="M201 92q4 0 4 -3.5t-4 -3.5h-201l2 5l234 610h190v-700h-190v451q0 18 -12.5 30.5t-30.5 12.5q-14 0 -24 -8t-15 -19l-144 -375h191z" />
    <glyph glyph-name="five" unicode="5" 
d="M142 481q13 5 36 9t43 4q48 0 95 -18q46 -19 80 -53.5t53 -77.5t20.5 -91t-16.5 -95t-52 -82t-76.5 -54.5t-91 -22t-96.5 14.5q-22 8 -42.5 20t-38.5 29q-34 31 -56 73q-2 4 1.5 5.5t5.5 -2.5q19 -39 53 -70q21 -20 45 -33q15 -6 26.5 -1t16.5 17l149 388q4 13 -1.5 25
t-19.5 15q-36 8 -75 6t-71 -18l89 231h250q5 0 4.5 -3.5t-4.5 -3.5h-246z" />
    <glyph glyph-name="six" unicode="6" horiz-adv-x="574" 
d="M329 479q35 -12 65.5 -35t52.5 -53.5t34.5 -67t12.5 -76.5q0 -51 -19.5 -95.5t-53 -78.5t-78.5 -53.5t-96 -19.5q-50 0 -95 18.5t-80 53.5t-53.5 80t-18.5 95q0 44 17 90l139 363h204l-236 -616q-6 -16 -0.5 -31t21.5 -23q48 -23 102 -23q49 0 93 19t76.5 51.5t51.5 76
t19 93.5q0 39 -12 74.5t-33 65t-50.5 52t-64.5 34.5q-4 2 -3.5 5t5.5 1z" />
    <glyph glyph-name="seven" unicode="7" 
d="M244 635q4 10 2.5 20t-7 18.5t-14.5 14t-21 5.5h-201q-3 0 -3 3.5t3 3.5h470l-269 -700h-204l244 635v0z" />
    <glyph glyph-name="eight" unicode="8" horiz-adv-x="541" 
d="M47 358q-40 -57 -40 -128q0 -46 17.5 -86.5t48 -71t71 -48t86.5 -17.5q49 0 91.5 19.5t73.5 52.5q12 15 10.5 33t-15.5 29l-259 196q-40 30 -61.5 71.5t-21.5 87.5q0 39 13.5 75.5t38 65t58 46t72.5 17.5q35 0 66 -13.5t54 -36.5t36.5 -53.5t13.5 -65.5q0 -24 -6.5 -45.5
t-17.5 -40.5q-2 -3 -5 -1t-1 5q11 18 17 38.5t6 43.5q0 33 -13 62.5t-35 51.5t-51.5 35t-63.5 13q-54 0 -94 -31q-17 -14 -20 -33.5t16 -34.5l233 -177q22 -16 39.5 -36.5t30.5 -43.5q26 -50 26 -107q0 -48 -18.5 -90t-50 -73t-73.5 -49t-89 -18q-46 0 -88 17.5t-75 49.5
q-32 33 -49.5 75t-17.5 88q0 38 11 71t31 62q2 2 4.5 0t0.5 -5z" />
    <glyph glyph-name="nine" unicode="9" horiz-adv-x="574" 
d="M164 220q-53 20 -92 59q-35 35 -53.5 79.5t-18.5 94.5t18.5 95t53.5 80t80 53.5t95 18.5t94.5 -18.5t79.5 -53.5q53 -53 67 -123.5t-11 -141.5l-140 -363h-204l237 616q6 16 0 31t-21 23q-48 23 -102 23q-50 0 -93.5 -19t-76 -51.5t-51.5 -76.5t-19 -93q0 -39 12 -74.5
t33 -65t50.5 -52t64.5 -34.5q3 -2 2 -5t-5 -2z" />
    <glyph glyph-name="zero" unicode="0" horiz-adv-x="780" 
d="M0 350q0 71 27 136q27 63 75 111t112.5 75.5t135.5 27.5q68 0 131.5 -27t112 -74t77.5 -111t29 -138q0 -69 -27.5 -132.5t-74.5 -112t-111 -77t-137 -28.5q-69 0 -133 26t-115 76q-49 51 -74.5 113.5t-27.5 134.5zM7 350q0 -48 12.5 -92t35 -82t54 -69.5t70.5 -53.5
q17 -10 35.5 -3.5t25.5 24.5l213 555q7 18 -2 34.5t-29 21.5q-37 8 -72 8q-71 0 -133.5 -27t-109 -73.5t-73.5 -109t-27 -133.5z" />
    <glyph glyph-name="question" unicode="?" horiz-adv-x="536" 
d="M217 0h-191v56h191v-56zM228 109q-11 -13 -11 -29v-10h-191v171q0 15 12 29l298 326q15 15 11.5 35t-21.5 31q-54 31 -117 31q-64 0 -117 -30t-85 -81q-2 -3 -5 -1t-1 5q32 52 87.5 83t120.5 31q51 0 96 -19.5t78.5 -53t53 -78.5t19.5 -96q0 -45 -16 -86.5t-45 -75.5z
" />
    <glyph glyph-name="exclam" unicode="!" horiz-adv-x="270" 
d="M190 0h-190v56h190v-56v0zM190 70h-190v630h190v-630v0z" />
    <glyph glyph-name="ampersand" unicode="&#x26;" horiz-adv-x="657" 
d="M577 256v-256l-149 112q-13 -23 -35 -45q-32 -32 -74 -49.5t-89 -17.5q-46 0 -88 17.5t-75 49.5q-32 33 -49.5 75t-17.5 88q0 29 6.5 55t18.5 51q4 7 8 13.5t9 13.5q2 2 5 0q2 -2 0 -5q-40 -57 -40 -128q0 -46 17.5 -86.5t48 -71t71 -48t86.5 -17.5q49 0 91.5 19.5
t73.5 52.5l1 1q10 12 10 28q0 22 -16 33l-259 196q-40 30 -61.5 71.5t-21.5 87.5q0 41 17 85t50 73l1 1q23 21 52 33t62 12q35 0 66 -13.5t54 -36.5t36.5 -53.5t13.5 -65.5q0 -24 -6.5 -45.5t-17.5 -40.5q-1 -3 -5 -1q-3 1 -1 5q11 18 17 38.5t6 43.5q0 33 -13 62.5
t-35 51.5t-51.5 35t-63.5 13q-54 0 -94 -31l-2 -1q-8 -5 -13.5 -13.5t-5.5 -19.5q0 -22 17 -34z" />
    <glyph glyph-name="sterling" unicode="&#xa3;" horiz-adv-x="509" 
d="M428 625q2 -2 -0.5 -4.5t-5.5 0.5q-17 22 -40 38.5t-50 24.5q-21 7 -38.5 -5.5t-17.5 -34.5v-313h149q3 0 3 -3.5t-3 -3.5h-149v-275q0 -17 -12.5 -29.5t-30.5 -12.5h192q3 0 3 -3.5t-3 -3.5h-422q-3 0 -3 3.5t3 3.5h40q17 0 29.5 12.5t12.5 29.5v2v458q0 40 15 74.5
t41 60.5t61 41t74 15h1q46 -1 85.5 -21t65.5 -54z" />
    <glyph glyph-name="dollar" unicode="$" horiz-adv-x="550" 
d="M140 684v56h190v-56q8 -2 14.5 -5.5t14.5 -7.5q4 -2 2 -5.5t-6 -1.5q-54 31 -120 31q-80 0 -139 -42q-8 -5 -13.5 -14.5t-5.5 -20.5q0 -21 17 -33l292 -221q41 -30 62.5 -71.5t21.5 -88.5q0 -33 -11 -63t-30.5 -55t-45 -43.5t-53.5 -29.5v-56h-190v56q-59 25 -96 68.5
t-43 103.5q0 4 3.5 4t3.5 -3q4 -39 23 -72.5t49.5 -58t70 -39t84.5 -14.5q39 0 74.5 11t64.5 31q8 6 13.5 15t5.5 20q0 20 -17 34l-295 223q-39 30 -60 71t-21 87q0 33 11 63t30.5 54.5t44.5 43t54 29.5z" />
    <glyph glyph-name="percent" unicode="%" horiz-adv-x="852" 
d="M620 696h-202l-266 -693h202zM152 396q-32 0 -59.5 12t-48 32.5t-32.5 48t-12 59.5q0 31 12 59t32.5 48.5t48 32.5t59.5 12q31 0 59 -12t48.5 -32.5t32.5 -48.5t12 -59q0 -32 -12 -59.5t-32.5 -48t-48.5 -32.5t-59 -12zM144 693q-29 -2 -53.5 -14t-43.5 -31.5t-29.5 -45
t-10.5 -54.5q0 -30 11 -56t31 -46q18 -17 40 -11.5t30 27.5l67 173q7 23 -5.5 40.5t-36.5 17.5zM620 304q31 0 59 -12t48.5 -33t32.5 -48.5t12 -58.5q0 -32 -12 -59.5t-33 -48t-49 -32.5t-59 -12t-58.5 12t-48 33t-32.5 48.5t-12 58.5t12 59t32.5 48.5t48 32.5t59.5 12z
M627 7q29 1 54 13t44 31.5t29.5 45.5t10.5 55t-11 55.5t-31 46.5q-13 13 -30 13q-14 0 -24.5 -8t-15.5 -21l-67 -173q-3 -9 -3 -16q0 -17 12.5 -30t31.5 -12z" />
    <glyph glyph-name="comma" unicode="," horiz-adv-x="270" 
d="M136 -53q1 20 -7 35.5t-34 17.5q-20 0 -37 7.5t-30 20t-20.5 30t-7.5 37.5q0 19 7.5 36.5t20.5 30.5t30 20.5t37 7.5t37.5 -7.5t30 -20.5t20 -30.5t7.5 -36.5v-54l-43 -97q-2 -4 -6.5 -3t-4.5 6z" />
    <glyph glyph-name="period" unicode="." horiz-adv-x="270" 
d="M190 95q0 -20 -7.5 -37t-20 -30t-30 -20.5t-37.5 -7.5t-37 7.5t-30 20.5t-20.5 30t-7.5 37t7.5 37.5t20.5 30t30 20t37 7.5q40 0 67.5 -27.5t27.5 -67.5z" />
    <glyph glyph-name="quotedbl" unicode="&#x22;" horiz-adv-x="480" 
d="M136 482q1 20 -7 35.5t-34 17.5q-20 0 -37 7.5t-30 20t-20.5 30t-7.5 37.5q0 19 7.5 36.5t20.5 30.5t30 20.5t37 7.5t37.5 -7.5t30 -20.5t20 -30.5t7.5 -36.5v-54l-43 -97q-2 -4 -6.5 -3t-4.5 6zM356 482q1 20 -7 35.5t-34 17.5q-20 0 -37 7.5t-30 20t-20.5 30t-7.5 37.5
q0 19 7.5 36.5t20.5 30.5t30 20.5t37 7.5t37.5 -7.5t30 -20.5t20 -30.5t7.5 -36.5v-54l-43 -97q-2 -4 -6.5 -3t-4.5 6z" />
    <glyph glyph-name="equal" unicode="=" horiz-adv-x="710" 
d="M0 371v191h630v-191h-630v0zM0 138v191h630v-191h-630v0z" />
    <glyph glyph-name="plus" unicode="+" horiz-adv-x="780" 
d="M445 255v-255h-190v255v0h-255v190h255v0v255h190v-255v0h255v-190h-255v0v0z" />
    <glyph glyph-name="endash" unicode="&#x2013;" horiz-adv-x="833" 
d="M0 255v190h445h255v-190h-700v0z" />
    <glyph glyph-name="hyphen" unicode="-" horiz-adv-x="780" 
d="M0 255v190h445h255v-190h-700v0z" />
    <glyph glyph-name="quotesingle" unicode="'" horiz-adv-x="270" 
d="M136 482q1 20 -7 35.5t-34 17.5q-20 0 -37 7.5t-30 20t-20.5 30t-7.5 37.5q0 19 7.5 36.5t20.5 30.5t30 20.5t37 7.5t37.5 -7.5t30 -20.5t20 -30.5t7.5 -36.5v-54l-43 -97q-2 -4 -6.5 -3t-4.5 6z" />
    <glyph glyph-name="slash" unicode="/" 
d="M473 700l-269 -700h-204l269 700h204v0z" />
    <glyph glyph-name="parenleft" unicode="(" horiz-adv-x="415" 
d="M3 334q-3 7 -3 16q0 7 3 16l128 334h204l-128 -335q-3 -8 -3 -15q0 -8 3 -17l128 -333h-204z" />
    <glyph glyph-name="parenright" unicode=")" horiz-adv-x="415" 
d="M204 0h-204l128 333q3 9 3 17q0 7 -3 15l-128 335h204l128 -334q3 -9 3 -16q0 -9 -3 -16z" />
    <glyph glyph-name="colon" unicode=":" horiz-adv-x="270" 
d="M190 466q0 -20 -7.5 -37t-20 -30t-30 -20.5t-37.5 -7.5t-37 7.5t-30 20.5t-20.5 30t-7.5 37t7.5 37.5t20.5 30t30 20t37 7.5q40 0 67.5 -27.5t27.5 -67.5zM190 233q0 -20 -7.5 -37t-20 -30t-30 -20.5t-37.5 -7.5t-37 7.5t-30 20.5t-20.5 30t-7.5 37t7.5 37.5t20.5 30.5
t30 20.5t37 7.5q40 0 67.5 -28t27.5 -68z" />
    <glyph glyph-name="semicolon" unicode=";" horiz-adv-x="270" 
d="M190 466q0 -20 -7.5 -37t-20 -30t-30 -20.5t-37.5 -7.5t-37 7.5t-30 20.5t-20.5 30t-7.5 37t7.5 37.5t20.5 30t30 20t37 7.5q40 0 67.5 -27.5t27.5 -67.5zM136 85q0 -5 4.5 -6t6.5 3l43 97v54q0 19 -7.5 36.5t-20 30.5t-30 20.5t-37.5 7.5t-37 -7.5t-30 -20.5
t-20.5 -30.5t-7.5 -36.5q0 -20 7.5 -37.5t20.5 -30t30 -20t37 -7.5q26 -2 34 -17.5t7 -35.5z" />
    </font>
</defs>
</svg>
